G75*
%MOIN*%
%OFA0B0*%
%FSLAX24Y24*%
%IPPOS*%
%LPD*%
%AMOC8*
5,1,8,0,0,1.08239X$1,22.5*
%
%ADD10OC8,0.0560*%
%ADD11C,0.0520*%
%ADD12C,0.0515*%
%ADD13OC8,0.0520*%
%ADD14C,0.0787*%
%ADD15C,0.0709*%
%ADD16OC8,0.0630*%
%ADD17C,0.0630*%
%ADD18C,0.0574*%
%ADD19OC8,0.0600*%
%ADD20C,0.2000*%
%ADD21C,0.0750*%
%ADD22OC8,0.0750*%
%ADD23C,0.0100*%
D10*
X005930Y013930D03*
X005930Y014930D03*
X005930Y015930D03*
X005930Y016930D03*
X005930Y017930D03*
X005930Y018930D03*
X005930Y019930D03*
X005930Y020930D03*
X005930Y021930D03*
X005930Y022930D03*
X005930Y023930D03*
X005930Y024930D03*
X005930Y025930D03*
X006930Y025930D03*
X006930Y024930D03*
X006930Y023930D03*
X006930Y022930D03*
X006930Y021930D03*
X006930Y020930D03*
X006930Y019930D03*
X006930Y018930D03*
X006930Y017930D03*
X006930Y016930D03*
X006930Y015930D03*
X006930Y014930D03*
X006930Y013930D03*
X031930Y012180D03*
X031930Y011180D03*
X031930Y010180D03*
X031930Y009180D03*
X031930Y008180D03*
X032930Y008180D03*
X032930Y009180D03*
X032930Y010180D03*
X032930Y011180D03*
X032930Y012180D03*
X032930Y026180D03*
X032930Y027180D03*
X032930Y028180D03*
X032930Y029180D03*
X032930Y030180D03*
X031930Y030180D03*
X031930Y029180D03*
X031930Y028180D03*
X031930Y027180D03*
X031930Y026180D03*
D11*
X029440Y026430D02*
X028920Y026430D01*
X028920Y025430D02*
X029440Y025430D01*
X029440Y024430D02*
X028920Y024430D01*
X028920Y023430D02*
X029440Y023430D01*
X030930Y020680D02*
X031450Y020680D01*
X031450Y019680D02*
X030930Y019680D01*
X030930Y018680D02*
X031450Y018680D01*
X031450Y017680D02*
X030930Y017680D01*
X027930Y017680D02*
X027410Y017680D01*
X027410Y018680D02*
X027930Y018680D01*
X027930Y019680D02*
X027410Y019680D01*
X027410Y020680D02*
X027930Y020680D01*
X025950Y020680D02*
X025430Y020680D01*
X025430Y019680D02*
X025950Y019680D01*
X025950Y018680D02*
X025430Y018680D01*
X025430Y017680D02*
X025950Y017680D01*
X026180Y015190D02*
X026180Y014670D01*
X027180Y014670D02*
X027180Y015190D01*
X025180Y015190D02*
X025180Y014670D01*
X024180Y014670D02*
X024180Y015190D01*
X023180Y015190D02*
X023180Y014670D01*
X022180Y014670D02*
X022180Y015190D01*
X021180Y015190D02*
X021180Y014670D01*
X021180Y012190D02*
X021180Y011670D01*
X022180Y011670D02*
X022180Y012190D01*
X023180Y012190D02*
X023180Y011670D01*
X024180Y011670D02*
X024180Y012190D01*
X025180Y012190D02*
X025180Y011670D01*
X026180Y011670D02*
X026180Y012190D01*
X027180Y012190D02*
X027180Y011670D01*
X027180Y008440D02*
X027180Y007920D01*
X026180Y007920D02*
X026180Y008440D01*
X025180Y008440D02*
X025180Y007920D01*
X024180Y007920D02*
X024180Y008440D01*
X023180Y008440D02*
X023180Y007920D01*
X022180Y007920D02*
X022180Y008440D01*
X021180Y008440D02*
X021180Y007920D01*
X021180Y005440D02*
X021180Y004920D01*
X022180Y004920D02*
X022180Y005440D01*
X023180Y005440D02*
X023180Y004920D01*
X024180Y004920D02*
X024180Y005440D01*
X025180Y005440D02*
X025180Y004920D01*
X026180Y004920D02*
X026180Y005440D01*
X027180Y005440D02*
X027180Y004920D01*
X023700Y002680D02*
X023180Y002680D01*
X023180Y001680D02*
X023700Y001680D01*
X020180Y001680D02*
X019660Y001680D01*
X019660Y002680D02*
X020180Y002680D01*
X017690Y005930D02*
X017170Y005930D01*
X017170Y006930D02*
X017690Y006930D01*
X017690Y007930D02*
X017170Y007930D01*
X017170Y008930D02*
X017690Y008930D01*
X017690Y009930D02*
X017170Y009930D01*
X017170Y010930D02*
X017690Y010930D01*
X017690Y011930D02*
X017170Y011930D01*
X017170Y012930D02*
X017690Y012930D01*
X017690Y013930D02*
X017170Y013930D01*
X015200Y013930D02*
X014680Y013930D01*
X014680Y014930D02*
X015200Y014930D01*
X015200Y015930D02*
X014680Y015930D01*
X014680Y016930D02*
X015200Y016930D01*
X015200Y017930D02*
X014680Y017930D01*
X014680Y018930D02*
X015200Y018930D01*
X015200Y019930D02*
X014680Y019930D01*
X016410Y019680D02*
X016930Y019680D01*
X016930Y018680D02*
X016410Y018680D01*
X016410Y017680D02*
X016930Y017680D01*
X019930Y017680D02*
X020450Y017680D01*
X020450Y018680D02*
X019930Y018680D01*
X019930Y019680D02*
X020450Y019680D01*
X020450Y020680D02*
X019930Y020680D01*
X021910Y020680D02*
X022430Y020680D01*
X022430Y019680D02*
X021910Y019680D01*
X021910Y018680D02*
X022430Y018680D01*
X022430Y017680D02*
X021910Y017680D01*
X016930Y020680D02*
X016410Y020680D01*
X016420Y023430D02*
X016940Y023430D01*
X016940Y024430D02*
X016420Y024430D01*
X016420Y025430D02*
X016940Y025430D01*
X016940Y026430D02*
X016420Y026430D01*
X016420Y027430D02*
X016940Y027430D01*
X016940Y028430D02*
X016420Y028430D01*
X016420Y029430D02*
X016940Y029430D01*
X016940Y030430D02*
X016420Y030430D01*
X016420Y031430D02*
X016940Y031430D01*
X018410Y030930D02*
X018930Y030930D01*
X018930Y029930D02*
X018410Y029930D01*
X018410Y028930D02*
X018930Y028930D01*
X018930Y026430D02*
X018410Y026430D01*
X018410Y025430D02*
X018930Y025430D01*
X018930Y024430D02*
X018410Y024430D01*
X018410Y023430D02*
X018930Y023430D01*
X021930Y023430D02*
X022450Y023430D01*
X022450Y024430D02*
X021930Y024430D01*
X021930Y025430D02*
X022450Y025430D01*
X022450Y026430D02*
X021930Y026430D01*
X023920Y025930D02*
X024440Y025930D01*
X024440Y026930D02*
X023920Y026930D01*
X023920Y027930D02*
X024440Y027930D01*
X024440Y028930D02*
X023920Y028930D01*
X023920Y029930D02*
X024440Y029930D01*
X024440Y030930D02*
X023920Y030930D01*
X023920Y031930D02*
X024440Y031930D01*
X025920Y031430D02*
X026440Y031430D01*
X026440Y032430D02*
X025920Y032430D01*
X024430Y033930D02*
X023910Y033930D01*
X023910Y034930D02*
X024430Y034930D01*
X024430Y035930D02*
X023910Y035930D01*
X023910Y036930D02*
X024430Y036930D01*
X022450Y036930D02*
X021930Y036930D01*
X021930Y035930D02*
X022450Y035930D01*
X022450Y034930D02*
X021930Y034930D01*
X021930Y033930D02*
X022450Y033930D01*
X022450Y031930D02*
X021930Y031930D01*
X021930Y030930D02*
X022450Y030930D01*
X022450Y029930D02*
X021930Y029930D01*
X021930Y028930D02*
X022450Y028930D01*
X025920Y028430D02*
X026440Y028430D01*
X026440Y027430D02*
X025920Y027430D01*
X025920Y026430D02*
X026440Y026430D01*
X026440Y025430D02*
X025920Y025430D01*
X025920Y024430D02*
X026440Y024430D01*
X026440Y023430D02*
X025920Y023430D01*
X024440Y023930D02*
X023920Y023930D01*
X023920Y024930D02*
X024440Y024930D01*
X028920Y027430D02*
X029440Y027430D01*
X029440Y028430D02*
X028920Y028430D01*
X028920Y029430D02*
X029440Y029430D01*
X029440Y030430D02*
X028920Y030430D01*
X028920Y031430D02*
X029440Y031430D01*
X029440Y032430D02*
X028920Y032430D01*
X027950Y033930D02*
X027430Y033930D01*
X027430Y034930D02*
X027950Y034930D01*
X028930Y034930D02*
X028930Y034410D01*
X029930Y034410D02*
X029930Y034930D01*
X027950Y035930D02*
X027430Y035930D01*
X027430Y036930D02*
X027950Y036930D01*
X028930Y037930D02*
X028930Y038450D01*
X029930Y038450D02*
X029930Y037930D01*
X026440Y030430D02*
X025920Y030430D01*
X025920Y029430D02*
X026440Y029430D01*
X018930Y031930D02*
X018410Y031930D01*
X018410Y033930D02*
X018930Y033930D01*
X018930Y034930D02*
X018410Y034930D01*
X018410Y035930D02*
X018930Y035930D01*
X018930Y036930D02*
X018410Y036930D01*
X016950Y036930D02*
X016430Y036930D01*
X016430Y035930D02*
X016950Y035930D01*
X016950Y034930D02*
X016430Y034930D01*
X016430Y033930D02*
X016950Y033930D01*
X014940Y031430D02*
X014420Y031430D01*
X014420Y030430D02*
X014940Y030430D01*
X014940Y029430D02*
X014420Y029430D01*
X014420Y028430D02*
X014940Y028430D01*
X014940Y027430D02*
X014420Y027430D01*
X014420Y026430D02*
X014940Y026430D01*
X014940Y025430D02*
X014420Y025430D01*
X014420Y024430D02*
X014940Y024430D01*
X014940Y023430D02*
X014420Y023430D01*
X011940Y023430D02*
X011420Y023430D01*
X011420Y024430D02*
X011940Y024430D01*
X011940Y025430D02*
X011420Y025430D01*
X011420Y026430D02*
X011940Y026430D01*
X011940Y027430D02*
X011420Y027430D01*
X011420Y028430D02*
X011940Y028430D01*
X011940Y029430D02*
X011420Y029430D01*
X011420Y030430D02*
X011940Y030430D01*
X011940Y031430D02*
X011420Y031430D01*
X009940Y031430D02*
X009420Y031430D01*
X009420Y030430D02*
X009940Y030430D01*
X009940Y029430D02*
X009420Y029430D01*
X009420Y028430D02*
X009940Y028430D01*
X009940Y027430D02*
X009420Y027430D01*
X009420Y026430D02*
X009940Y026430D01*
X009940Y025430D02*
X009420Y025430D01*
X009420Y024430D02*
X009940Y024430D01*
X009940Y023430D02*
X009420Y023430D01*
X011160Y019930D02*
X011680Y019930D01*
X011680Y018930D02*
X011160Y018930D01*
X011160Y017930D02*
X011680Y017930D01*
X011680Y016930D02*
X011160Y016930D01*
X011160Y015930D02*
X011680Y015930D01*
X011680Y014930D02*
X011160Y014930D01*
X011160Y013930D02*
X011680Y013930D01*
X011680Y012930D02*
X011160Y012930D01*
X011160Y011930D02*
X011680Y011930D01*
X011680Y010930D02*
X011160Y010930D01*
X011160Y009930D02*
X011680Y009930D01*
X011680Y008930D02*
X011160Y008930D01*
X011160Y007930D02*
X011680Y007930D01*
X011680Y006930D02*
X011160Y006930D01*
X011160Y005930D02*
X011680Y005930D01*
X011680Y004930D02*
X011160Y004930D01*
X009690Y006180D02*
X009170Y006180D01*
X009170Y007180D02*
X009690Y007180D01*
X009690Y008180D02*
X009170Y008180D01*
X009170Y009180D02*
X009690Y009180D01*
X009690Y010180D02*
X009170Y010180D01*
X009170Y011180D02*
X009690Y011180D01*
X009690Y012180D02*
X009170Y012180D01*
X009170Y013180D02*
X009690Y013180D01*
X009690Y014180D02*
X009170Y014180D01*
X014680Y012930D02*
X015200Y012930D01*
X015200Y011930D02*
X014680Y011930D01*
X014680Y010930D02*
X015200Y010930D01*
X015200Y009930D02*
X014680Y009930D01*
X014680Y008930D02*
X015200Y008930D01*
X015200Y007930D02*
X014680Y007930D01*
X014680Y006930D02*
X015200Y006930D01*
X015200Y005930D02*
X014680Y005930D01*
X014680Y004930D02*
X015200Y004930D01*
X035430Y016920D02*
X035430Y017440D01*
X035430Y020920D02*
X035430Y021440D01*
X013430Y033930D02*
X012910Y033930D01*
X012910Y034930D02*
X013430Y034930D01*
X013430Y035930D02*
X012910Y035930D01*
X012910Y036930D02*
X013430Y036930D01*
D12*
X006680Y032180D03*
X006680Y031180D03*
X006680Y030180D03*
X006680Y029180D03*
D13*
X005430Y004680D03*
X005930Y003430D03*
X005930Y002430D03*
X007930Y002680D03*
X008430Y001930D03*
X008930Y002680D03*
X010180Y002930D03*
X010180Y001930D03*
X009430Y004680D03*
X006180Y008680D03*
X002180Y008680D03*
X001680Y007430D03*
X001680Y006430D03*
X009430Y016180D03*
X009430Y017180D03*
X009430Y018930D03*
X009430Y019930D03*
X012680Y022180D03*
X013680Y022180D03*
X017930Y021930D03*
X018930Y021930D03*
X023430Y021930D03*
X024430Y021930D03*
X028680Y021930D03*
X029680Y021930D03*
X031930Y023430D03*
X032930Y023430D03*
X034430Y021180D03*
X032930Y019680D03*
X032930Y018680D03*
X034430Y017180D03*
X032930Y014930D03*
X031930Y014930D03*
X029680Y016430D03*
X028680Y016430D03*
X028430Y013930D03*
X028430Y012930D03*
X027180Y010680D03*
X027180Y009680D03*
X026180Y009680D03*
X026180Y010680D03*
X025180Y010680D03*
X025180Y009680D03*
X023180Y009680D03*
X023180Y010680D03*
X022180Y010680D03*
X022180Y009680D03*
X021180Y009680D03*
X021180Y010680D03*
X019930Y012930D03*
X019930Y013930D03*
X018930Y016430D03*
X017930Y016430D03*
X023430Y016430D03*
X024430Y016430D03*
X028430Y007180D03*
X028430Y006180D03*
X028680Y002930D03*
X028680Y001430D03*
X024680Y001430D03*
X024680Y002930D03*
X019930Y006180D03*
X019930Y007180D03*
X015930Y002680D03*
X015180Y002180D03*
X015930Y001680D03*
X014180Y001930D03*
X014180Y002930D03*
X031930Y005430D03*
X032930Y005430D03*
X020930Y027680D03*
X019930Y027680D03*
X013680Y032680D03*
X012680Y032680D03*
X014430Y038180D03*
X015430Y038180D03*
X019930Y038180D03*
X020930Y038180D03*
X025430Y038180D03*
X026430Y038180D03*
X031180Y038430D03*
X032180Y038430D03*
X033930Y036430D03*
X033930Y035430D03*
X032180Y034430D03*
X031180Y034430D03*
X031930Y032930D03*
X032930Y032930D03*
X005430Y032180D03*
X005430Y031180D03*
X005430Y030180D03*
X005430Y029180D03*
D14*
X030922Y001940D03*
X032922Y001940D03*
X037940Y018188D03*
X037940Y020188D03*
D15*
X036034Y023680D02*
X035326Y023680D01*
X035326Y024680D02*
X036034Y024680D01*
X036034Y025680D02*
X035326Y025680D01*
X035326Y026680D02*
X036034Y026680D01*
X036034Y027680D02*
X035326Y027680D01*
X035326Y028680D02*
X036034Y028680D01*
X036034Y029680D02*
X035326Y029680D01*
X035326Y030680D02*
X036034Y030680D01*
X036034Y031680D02*
X035326Y031680D01*
X035326Y032680D02*
X036034Y032680D01*
X034430Y038076D02*
X034430Y038784D01*
X033430Y038784D02*
X033430Y038076D01*
X035326Y014680D02*
X036034Y014680D01*
X036034Y013680D02*
X035326Y013680D01*
X035326Y012680D02*
X036034Y012680D01*
X036034Y011680D02*
X035326Y011680D01*
X035326Y010680D02*
X036034Y010680D01*
X036034Y009680D02*
X035326Y009680D01*
X035326Y008680D02*
X036034Y008680D01*
X036034Y007680D02*
X035326Y007680D01*
X035326Y006680D02*
X036034Y006680D01*
X036034Y005680D02*
X035326Y005680D01*
D16*
X018180Y002680D03*
X002680Y033380D03*
D17*
X002680Y031980D03*
X018180Y001680D03*
D18*
X010308Y034076D02*
X010308Y034650D01*
X009324Y034650D02*
X009324Y034076D01*
X008536Y034076D02*
X008536Y034650D01*
X007552Y034650D02*
X007552Y034076D01*
D19*
X003680Y026450D03*
X003680Y025360D03*
X003680Y024280D03*
X003680Y023190D03*
X003680Y022100D03*
X003680Y021020D03*
X003680Y019930D03*
X003680Y018840D03*
X003680Y017760D03*
X003680Y016670D03*
X003680Y015580D03*
X003680Y014500D03*
X003680Y013410D03*
X002680Y013950D03*
X002680Y015040D03*
X002680Y016130D03*
X002680Y017210D03*
X002680Y018300D03*
X002680Y019390D03*
X002680Y020470D03*
X002680Y021560D03*
X002680Y022650D03*
X002680Y023730D03*
X002680Y024820D03*
X002680Y025910D03*
D20*
X003180Y029190D03*
X003180Y010670D03*
D21*
X006180Y006430D03*
D22*
X004180Y006430D03*
D23*
X005039Y007571D02*
X006180Y006430D01*
X006180Y005430D01*
X005430Y004680D01*
X005930Y003430D02*
X009680Y003430D01*
X010180Y002930D01*
X011680Y005930D02*
X012110Y006360D01*
X012110Y007500D01*
X011680Y007930D01*
X012110Y008360D01*
X012110Y009500D01*
X011680Y009930D01*
X012110Y010360D01*
X012110Y011500D01*
X011680Y011930D01*
X011680Y012930D02*
X011180Y012930D01*
X009430Y011180D01*
X009430Y012180D02*
X010389Y013139D01*
X010389Y015774D01*
X011545Y016930D01*
X010090Y018385D01*
X010090Y018882D01*
X009475Y019497D01*
X009237Y019497D01*
X008499Y020235D01*
X008499Y021009D01*
X007028Y022480D01*
X006740Y022480D01*
X006469Y022751D01*
X006469Y023469D01*
X006930Y023930D01*
X007480Y024762D02*
X007480Y025380D01*
X006930Y025930D01*
X006480Y025835D02*
X006075Y025430D01*
X005783Y025430D01*
X005476Y025123D01*
X005476Y022384D01*
X005930Y021930D01*
X006930Y021930D02*
X006930Y020930D01*
X006930Y019930D01*
X006930Y018930D01*
X006930Y017930D01*
X006930Y016930D02*
X006930Y015930D01*
X006930Y014930D01*
X006430Y014430D02*
X005930Y014930D01*
X005479Y015479D02*
X005930Y015930D01*
X005259Y016259D02*
X005259Y011351D01*
X009430Y007180D01*
X010120Y006870D02*
X010120Y009368D01*
X009808Y009680D01*
X009040Y009680D01*
X008737Y009984D01*
X008737Y015487D01*
X009430Y016180D01*
X011545Y016930D02*
X011680Y016930D01*
X012119Y015369D02*
X011680Y014930D01*
X012119Y015369D02*
X012119Y019109D01*
X011868Y019360D01*
X011120Y019360D01*
X008229Y022251D01*
X008229Y023631D01*
X006930Y024930D01*
X007480Y024762D02*
X012349Y019892D01*
X012349Y013599D01*
X011680Y012930D01*
X014250Y012360D02*
X014680Y011930D01*
X014250Y011500D01*
X014250Y010360D01*
X014680Y009930D01*
X014232Y009482D01*
X014232Y008378D01*
X014680Y007930D01*
X014249Y007499D01*
X014249Y006361D01*
X014680Y005930D01*
X014680Y004930D02*
X015430Y004930D01*
X017070Y006570D01*
X017430Y006570D01*
X017430Y006930D01*
X017430Y006570D02*
X018530Y006570D01*
X020616Y004484D01*
X022484Y004484D01*
X023180Y005180D01*
X022180Y005180D02*
X021180Y006180D01*
X019930Y006180D01*
X019748Y006749D02*
X022749Y006749D01*
X024180Y008180D01*
X023180Y008180D02*
X023180Y009680D01*
X023364Y010121D02*
X024235Y009250D01*
X025361Y009250D01*
X025680Y009568D01*
X025680Y009800D01*
X025992Y010112D01*
X026748Y010112D01*
X027180Y009680D01*
X027610Y009250D01*
X027610Y006375D01*
X028555Y005430D01*
X031930Y005430D01*
X032180Y006180D02*
X032930Y006930D01*
X032930Y008180D01*
X032930Y009180D02*
X034350Y007760D01*
X034350Y007680D01*
X035680Y007680D01*
X034350Y007680D02*
X034350Y006233D01*
X032593Y004476D01*
X024884Y004476D01*
X024180Y005180D01*
X026180Y008180D02*
X026180Y009680D01*
X026180Y010680D02*
X025180Y009680D01*
X025180Y010680D02*
X025180Y011930D01*
X026680Y013430D02*
X025180Y014930D01*
X024430Y016430D02*
X024430Y016680D01*
X025430Y017680D01*
X024430Y018680D01*
X024430Y021930D01*
X023430Y021930D02*
X023430Y016430D01*
X021930Y018180D02*
X019813Y018180D01*
X018383Y016749D01*
X018383Y016257D01*
X018122Y015997D01*
X017749Y015997D01*
X017440Y016306D01*
X017440Y017796D01*
X016993Y018243D01*
X016213Y018243D01*
X015930Y018525D01*
X015930Y018822D01*
X015322Y019430D01*
X014545Y019430D01*
X014248Y019727D01*
X014248Y021123D01*
X015384Y022259D01*
X015384Y024726D01*
X014680Y025430D01*
X016680Y026430D02*
X017393Y025717D01*
X017393Y020143D01*
X016930Y019680D01*
X017101Y019239D02*
X018376Y020514D01*
X018376Y021484D01*
X019096Y021484D01*
X020606Y022994D01*
X020606Y027356D01*
X020930Y027680D01*
X019930Y027680D02*
X019930Y022930D01*
X018930Y021930D01*
X018376Y021484D02*
X017930Y021930D01*
X019930Y020680D02*
X017930Y018680D01*
X017930Y016430D01*
X018930Y016430D02*
X018930Y016680D01*
X019930Y017680D01*
X019930Y018680D02*
X020064Y018680D01*
X021480Y020095D01*
X021480Y024612D01*
X021798Y024930D01*
X022558Y024930D01*
X022880Y025252D01*
X022880Y028299D01*
X023437Y028856D01*
X023437Y030187D01*
X024180Y030930D01*
X024870Y032129D02*
X024870Y028746D01*
X024620Y028496D01*
X023863Y028496D01*
X023489Y028122D01*
X023489Y024621D01*
X024180Y023930D01*
X023100Y025161D02*
X023100Y028045D01*
X023986Y028930D01*
X024180Y028930D01*
X024180Y027930D02*
X024891Y027219D01*
X024891Y019219D01*
X025430Y018680D01*
X025430Y020680D02*
X025942Y021192D01*
X028942Y021192D01*
X029680Y021930D01*
X030494Y024091D02*
X032382Y025979D01*
X032382Y026365D01*
X032116Y026630D01*
X031814Y026630D01*
X030439Y028005D01*
X030439Y028171D01*
X029180Y029430D01*
X029980Y029630D02*
X029180Y030430D01*
X029980Y029630D02*
X032480Y029630D01*
X032930Y029180D01*
X032430Y028680D02*
X031930Y028180D01*
X032430Y028680D02*
X035680Y028680D01*
X035680Y031680D02*
X034430Y031680D01*
X032930Y030180D01*
X031930Y030180D02*
X031930Y032930D01*
X033680Y034680D01*
X035680Y032680D01*
X033680Y034680D02*
X033930Y034930D01*
X033930Y035430D01*
X033930Y036430D02*
X032180Y034680D01*
X032180Y034430D01*
X029750Y037500D02*
X029930Y037930D01*
X029750Y037500D02*
X028397Y037500D01*
X028397Y034756D01*
X027571Y033930D01*
X027430Y033930D01*
X027430Y033180D01*
X026930Y033180D01*
X026180Y032430D01*
X025477Y032977D02*
X025477Y026133D01*
X026180Y025430D01*
X026617Y025993D02*
X026180Y026430D01*
X026617Y025993D02*
X031743Y025993D01*
X031930Y026180D01*
X032930Y026180D02*
X032930Y024430D01*
X033680Y023680D01*
X035680Y023680D01*
X035680Y021430D01*
X036698Y021430D01*
X037940Y020188D01*
X035680Y021430D02*
X035430Y021180D01*
X032930Y024430D02*
X031930Y023430D01*
X030494Y024091D02*
X030494Y019116D01*
X030930Y018680D01*
X030930Y017680D02*
X032930Y015680D01*
X032930Y014930D01*
X032361Y014499D02*
X031930Y014067D01*
X031930Y012180D01*
X032430Y011680D02*
X031930Y011180D01*
X029680Y013430D01*
X026680Y013430D01*
X027180Y011930D02*
X027430Y011930D01*
X028430Y012930D01*
X027180Y010680D02*
X027969Y009891D01*
X027969Y006641D01*
X028430Y006180D01*
X032180Y006180D01*
X032930Y005430D01*
X032430Y011680D02*
X033688Y011680D01*
X034688Y012680D01*
X035680Y012680D01*
X034999Y014499D02*
X032361Y014499D01*
X031930Y014930D01*
X034999Y014499D02*
X035430Y014930D01*
X035680Y014680D01*
X035430Y014930D02*
X035430Y017180D01*
X035680Y025680D02*
X034430Y025680D01*
X032930Y027180D01*
X029180Y031430D02*
X027430Y033180D01*
X027430Y034930D02*
X025477Y032977D01*
X024870Y032129D02*
X022069Y034930D01*
X021930Y034930D01*
X021498Y035106D02*
X021822Y035430D01*
X022560Y035430D01*
X022887Y035756D01*
X022887Y036112D01*
X022069Y036930D01*
X021930Y036930D01*
X021180Y036930D01*
X019930Y038180D01*
X020188Y036368D02*
X016868Y036368D01*
X016430Y035930D01*
X017680Y034850D02*
X018760Y035930D01*
X018930Y035930D01*
X018930Y034930D02*
X018779Y034930D01*
X017903Y034054D01*
X017903Y030759D01*
X017136Y029993D01*
X015117Y029993D01*
X014680Y030430D01*
X014680Y031430D02*
X014680Y033680D01*
X013430Y034930D01*
X013430Y035930D02*
X016680Y032680D01*
X016680Y031430D01*
X016680Y030430D02*
X017680Y031430D01*
X017680Y034850D01*
X016430Y033930D02*
X014430Y035930D01*
X014430Y036368D01*
X009556Y036368D01*
X007552Y034363D01*
X006680Y033491D01*
X006680Y032180D01*
X008485Y030985D02*
X006680Y029180D01*
X007786Y028430D02*
X004300Y024944D01*
X004300Y023810D01*
X003680Y023190D01*
X002680Y021560D02*
X002680Y020470D01*
X002680Y019390D01*
X002680Y018300D01*
X002680Y017210D01*
X002680Y016130D01*
X002680Y015040D01*
X002680Y013950D01*
X005479Y015479D02*
X005479Y012131D01*
X009430Y008180D01*
X009430Y009180D02*
X009229Y009180D01*
X006430Y011979D01*
X006430Y014430D01*
X005259Y016259D02*
X005930Y016930D01*
X011176Y018930D02*
X007176Y022930D01*
X006930Y022930D01*
X005039Y025039D02*
X005039Y007571D01*
X002180Y007930D02*
X002180Y008680D01*
X002180Y007930D02*
X001680Y007430D01*
X009430Y006180D02*
X010120Y006870D01*
X014250Y012360D02*
X014250Y013500D01*
X014680Y013930D01*
X015710Y014650D02*
X015710Y016044D01*
X014824Y016930D01*
X014680Y016930D01*
X014246Y016364D02*
X014680Y015930D01*
X014246Y016364D02*
X014246Y017496D01*
X014680Y017930D01*
X014680Y018930D02*
X014824Y018930D01*
X015930Y017824D01*
X015930Y015430D01*
X017430Y013930D01*
X017430Y012930D02*
X015710Y014650D01*
X018930Y013930D02*
X019930Y012930D01*
X019930Y010930D01*
X021180Y009680D01*
X019930Y008430D01*
X019930Y007180D01*
X019748Y006749D02*
X018731Y007765D01*
X018731Y008629D01*
X017430Y009930D01*
X021180Y010680D02*
X021610Y011110D01*
X021610Y014500D01*
X021180Y014930D01*
X018930Y013930D02*
X018930Y016430D01*
X017101Y019239D02*
X016077Y019239D01*
X015387Y019930D01*
X014680Y019930D01*
X013680Y022180D02*
X014680Y023180D01*
X014680Y023430D01*
X012180Y025930D01*
X011287Y025930D01*
X010488Y026730D01*
X010488Y030860D01*
X010363Y030985D01*
X012058Y032680D01*
X012680Y032680D01*
X010363Y030985D02*
X008485Y030985D01*
X008750Y030430D02*
X003680Y025360D01*
X005039Y025039D02*
X005930Y025930D01*
X006480Y025835D02*
X006480Y026135D01*
X007775Y027430D01*
X009680Y027430D01*
X009680Y028430D02*
X007786Y028430D01*
X008750Y030430D02*
X009680Y030430D01*
X014430Y036368D02*
X014430Y038180D01*
X020188Y036368D02*
X021278Y035278D01*
X021930Y035930D01*
X021278Y035278D02*
X021278Y031582D01*
X021930Y030930D01*
X021499Y030499D01*
X021499Y025430D01*
X021930Y025430D01*
X021499Y025430D02*
X020965Y024896D01*
X020965Y020582D01*
X020063Y019680D01*
X019930Y019680D01*
X021930Y018180D02*
X022430Y018680D01*
X022369Y024430D02*
X021930Y024430D01*
X022369Y024430D02*
X023100Y025161D01*
X022096Y028930D02*
X021930Y028930D01*
X022096Y028930D02*
X022886Y029720D01*
X022886Y032974D01*
X021930Y033930D01*
X021498Y035106D02*
X021498Y032362D01*
X021930Y031930D01*
X018930Y030930D02*
X018786Y030930D01*
X017900Y030044D01*
X017900Y029650D01*
X016680Y028430D01*
X016680Y027430D02*
X018680Y025430D01*
X018930Y025430D01*
X011680Y018930D02*
X011176Y018930D01*
X021180Y010680D02*
X021618Y010242D01*
X021618Y010121D01*
X021618Y008618D01*
X021180Y008180D01*
X021618Y010121D02*
X023364Y010121D01*
X022180Y010680D02*
X022180Y011930D01*
X026110Y037500D02*
X028397Y037500D01*
X026110Y037500D02*
X025430Y038180D01*
M02*
