G75*
%MOIN*%
%OFA0B0*%
%FSLAX24Y24*%
%IPPOS*%
%LPD*%
%AMOC8*
5,1,8,0,0,1.08239X$1,22.5*
%
%ADD10C,0.0160*%
%ADD11C,0.0030*%
%ADD12C,0.0080*%
%ADD13C,0.0060*%
%ADD14C,0.0020*%
%ADD15C,0.0050*%
%ADD16C,0.0120*%
%ADD17C,0.0000*%
%ADD18R,0.0340X0.0240*%
%ADD19C,0.0100*%
%ADD20R,0.0240X0.0340*%
%ADD21C,0.0040*%
%ADD22C,0.0010*%
%ADD23R,0.0800X0.0200*%
%ADD24R,0.0200X0.0750*%
%ADD25R,0.0400X0.0650*%
%ADD26R,0.0650X0.0400*%
%ADD27R,0.0300X1.6000*%
%ADD28R,0.2850X0.0320*%
%ADD29R,0.1850X0.0320*%
%ADD30R,0.0200X0.0800*%
D10*
X000180Y000180D02*
X000180Y039550D01*
X039550Y039550D01*
X039550Y000180D01*
X000180Y000180D01*
D11*
X010277Y004723D02*
X010647Y004723D01*
X010647Y004970D01*
X010647Y005092D02*
X010647Y005215D01*
X010647Y005153D02*
X010400Y005153D01*
X010400Y005092D01*
X010277Y005153D02*
X010215Y005153D01*
X010400Y005399D02*
X010462Y005337D01*
X010585Y005337D01*
X010647Y005399D01*
X010647Y005584D01*
X010585Y005706D02*
X010462Y005706D01*
X010400Y005767D01*
X010400Y005891D01*
X010462Y005952D01*
X010524Y005952D01*
X010524Y005706D01*
X010585Y005706D02*
X010647Y005767D01*
X010647Y005891D01*
X010647Y006074D02*
X010400Y006074D01*
X010400Y006259D01*
X010462Y006321D01*
X010647Y006321D01*
X010647Y006442D02*
X010647Y006627D01*
X010585Y006689D01*
X010524Y006627D01*
X010524Y006504D01*
X010462Y006442D01*
X010400Y006504D01*
X010400Y006689D01*
X010462Y006810D02*
X010400Y006872D01*
X010400Y006996D01*
X010462Y007057D01*
X010524Y007057D01*
X010524Y006810D01*
X010585Y006810D02*
X010462Y006810D01*
X010585Y006810D02*
X010647Y006872D01*
X010647Y006996D01*
X010647Y007179D02*
X010585Y007179D01*
X010585Y007241D01*
X010647Y007241D01*
X010647Y007179D01*
X010462Y007179D02*
X010400Y007179D01*
X010400Y007241D01*
X010462Y007241D01*
X010462Y007179D01*
X010339Y007731D02*
X010585Y007731D01*
X010647Y007793D01*
X010647Y007916D01*
X010585Y007978D01*
X010647Y008100D02*
X010647Y008346D01*
X010647Y008468D02*
X010277Y008468D01*
X010277Y008653D01*
X010339Y008715D01*
X010462Y008715D01*
X010524Y008653D01*
X010524Y008468D01*
X010524Y008591D02*
X010647Y008715D01*
X010647Y008836D02*
X010277Y008836D01*
X010647Y009083D01*
X010277Y009083D01*
X010462Y009205D02*
X010462Y009451D01*
X010339Y009573D02*
X010585Y009573D01*
X010647Y009635D01*
X010647Y009758D01*
X010585Y009820D01*
X010339Y009820D01*
X010277Y009758D01*
X010277Y009635D01*
X010339Y009573D01*
X010277Y009941D02*
X010647Y009941D01*
X010462Y009941D02*
X010462Y010188D01*
X010277Y010188D02*
X010647Y010188D01*
X010647Y010309D02*
X010647Y010556D01*
X010462Y010678D02*
X010462Y010925D01*
X010524Y011046D02*
X010524Y011231D01*
X010462Y011293D01*
X010339Y011293D01*
X010277Y011231D01*
X010277Y011046D01*
X010647Y011046D01*
X010647Y010309D02*
X010277Y010309D01*
X010277Y011783D02*
X010524Y011783D01*
X010647Y011906D01*
X010524Y012030D01*
X010277Y012030D01*
X010339Y012151D02*
X010277Y012213D01*
X010277Y012336D01*
X010339Y012398D01*
X010400Y012398D01*
X010647Y012151D01*
X010647Y012398D01*
X010619Y013945D02*
X010619Y014068D01*
X010619Y014007D02*
X010372Y014007D01*
X010372Y013945D01*
X010249Y014007D02*
X010187Y014007D01*
X010372Y014191D02*
X010372Y014376D01*
X010434Y014437D01*
X010619Y014437D01*
X010619Y014621D02*
X010310Y014621D01*
X010249Y014682D01*
X010434Y014682D02*
X010434Y014559D01*
X010434Y014804D02*
X010372Y014866D01*
X010372Y014990D01*
X010434Y015051D01*
X010557Y015051D01*
X010619Y014990D01*
X010619Y014866D01*
X010557Y014804D01*
X010434Y014804D01*
X010557Y015173D02*
X010310Y015173D01*
X010249Y015234D01*
X010249Y015358D01*
X010310Y015420D01*
X010434Y015420D01*
X010496Y015358D01*
X010372Y015358D01*
X010372Y015234D01*
X010496Y015234D01*
X010496Y015358D01*
X010557Y015420D02*
X010619Y015358D01*
X010619Y015234D01*
X010557Y015173D01*
X010372Y015541D02*
X010619Y015664D01*
X010372Y015788D01*
X010372Y015909D02*
X010372Y015971D01*
X010619Y015971D01*
X010619Y015909D02*
X010619Y016033D01*
X010619Y016155D02*
X010372Y016155D01*
X010372Y016278D02*
X010372Y016340D01*
X010372Y016278D02*
X010496Y016155D01*
X010249Y015971D02*
X010187Y015971D01*
X010372Y016462D02*
X010372Y016585D01*
X010310Y016524D02*
X010557Y016524D01*
X010619Y016585D01*
X010557Y016707D02*
X010372Y016707D01*
X010557Y016707D02*
X010619Y016769D01*
X010619Y016954D01*
X010372Y016954D01*
X010372Y017137D02*
X010372Y017261D01*
X010434Y017323D01*
X010619Y017323D01*
X010619Y017137D01*
X010557Y017076D01*
X010496Y017137D01*
X010496Y017323D01*
X010619Y017444D02*
X010619Y017567D01*
X010619Y017506D02*
X010249Y017506D01*
X010249Y017444D01*
X010434Y017690D02*
X010372Y017751D01*
X010372Y017936D01*
X010372Y018058D02*
X010372Y018120D01*
X010619Y018120D01*
X010619Y018181D02*
X010619Y018058D01*
X010557Y017936D02*
X010496Y017875D01*
X010496Y017751D01*
X010434Y017690D01*
X010619Y017690D02*
X010619Y017875D01*
X010557Y017936D01*
X010249Y018120D02*
X010187Y018120D01*
X010249Y018303D02*
X010249Y018365D01*
X010619Y018365D01*
X010619Y018303D02*
X010619Y018427D01*
X010619Y018549D02*
X010619Y018672D01*
X010619Y018611D02*
X010372Y018611D01*
X010372Y018549D01*
X010249Y018611D02*
X010187Y018611D01*
X010372Y018856D02*
X010434Y018794D01*
X010557Y018794D01*
X010619Y018856D01*
X010619Y019041D01*
X010557Y019163D02*
X010619Y019225D01*
X010619Y019348D01*
X010557Y019410D01*
X010434Y019410D01*
X010372Y019348D01*
X010372Y019225D01*
X010434Y019163D01*
X010557Y019163D01*
X010372Y019041D02*
X010372Y018856D01*
X010372Y019531D02*
X010372Y019716D01*
X010434Y019778D01*
X010619Y019778D01*
X010619Y019899D02*
X010619Y019961D01*
X010557Y019961D01*
X010557Y019899D01*
X010619Y019899D01*
X010557Y020084D02*
X010619Y020145D01*
X010619Y020330D01*
X010619Y020452D02*
X010249Y020452D01*
X010372Y020514D02*
X010372Y020637D01*
X010434Y020699D01*
X010619Y020699D01*
X010434Y020452D02*
X010372Y020514D01*
X010372Y020330D02*
X010372Y020145D01*
X010434Y020084D01*
X010557Y020084D01*
X010619Y019531D02*
X010372Y019531D01*
X010372Y014191D02*
X010619Y014191D01*
X015722Y014158D02*
X016092Y014405D01*
X016092Y014158D02*
X015722Y014405D01*
X015845Y014956D02*
X015845Y015079D01*
X015907Y015141D01*
X016092Y015141D01*
X016092Y014956D01*
X016030Y014894D01*
X015969Y014956D01*
X015969Y015141D01*
X016030Y015263D02*
X015907Y015263D01*
X015845Y015324D01*
X015845Y015510D01*
X015722Y015510D02*
X016092Y015510D01*
X016092Y015324D01*
X016030Y015263D01*
X016030Y015631D02*
X015969Y015693D01*
X015969Y015878D01*
X015907Y015878D02*
X016092Y015878D01*
X016092Y015693D01*
X016030Y015631D01*
X015845Y015693D02*
X015845Y015816D01*
X015907Y015878D01*
X015845Y015999D02*
X015845Y016184D01*
X015907Y016246D01*
X016030Y016246D01*
X016092Y016184D01*
X016092Y015999D01*
X016215Y015999D02*
X015845Y015999D01*
X015845Y016368D02*
X015845Y016491D01*
X015783Y016429D02*
X016030Y016429D01*
X016092Y016491D01*
X016030Y016613D02*
X015907Y016613D01*
X015845Y016675D01*
X015845Y016798D01*
X015907Y016860D01*
X015969Y016860D01*
X015969Y016613D01*
X016030Y016613D02*
X016092Y016675D01*
X016092Y016798D01*
X016092Y016981D02*
X015845Y016981D01*
X015969Y016981D02*
X015845Y017105D01*
X015845Y017167D01*
X015907Y013668D02*
X015969Y013668D01*
X015969Y013421D01*
X016030Y013421D02*
X015907Y013421D01*
X015845Y013483D01*
X015845Y013606D01*
X015907Y013668D01*
X016092Y013606D02*
X016092Y013483D01*
X016030Y013421D01*
X016092Y013300D02*
X016092Y013114D01*
X016030Y013053D01*
X015907Y013053D01*
X015845Y013114D01*
X015845Y013300D01*
X015722Y013300D02*
X016092Y013300D01*
X016030Y012931D02*
X015907Y012931D01*
X015845Y012870D01*
X015845Y012746D01*
X015907Y012684D01*
X016030Y012684D01*
X016092Y012746D01*
X016092Y012870D01*
X016030Y012931D01*
X016092Y012563D02*
X015907Y012563D01*
X015845Y012501D01*
X015907Y012440D01*
X016092Y012440D01*
X016092Y012316D02*
X015845Y012316D01*
X015845Y012378D01*
X015907Y012440D01*
X015722Y011826D02*
X015722Y011580D01*
X015722Y011703D02*
X016092Y011703D01*
X015907Y011458D02*
X015969Y011396D01*
X015969Y011211D01*
X016092Y011211D02*
X015722Y011211D01*
X015722Y011396D01*
X015783Y011458D01*
X015907Y011458D01*
X016092Y011090D02*
X016092Y010843D01*
X015722Y010843D01*
X015783Y010353D02*
X015722Y010291D01*
X015722Y010168D01*
X015783Y010106D01*
X016030Y010106D01*
X016092Y010168D01*
X016092Y010291D01*
X016030Y010353D01*
X016092Y009985D02*
X015722Y009985D01*
X015722Y009738D02*
X016092Y009985D01*
X016092Y009738D02*
X015722Y009738D01*
X015783Y009616D02*
X015722Y009555D01*
X015722Y009431D01*
X015783Y009370D01*
X016030Y009370D01*
X016092Y009431D01*
X016092Y009555D01*
X016030Y009616D01*
X016092Y009248D02*
X015845Y009001D01*
X015845Y008880D02*
X016092Y008880D01*
X016092Y008695D01*
X016030Y008633D01*
X015845Y008633D01*
X015907Y008512D02*
X016092Y008512D01*
X015907Y008512D02*
X015845Y008450D01*
X015845Y008265D01*
X016092Y008265D01*
X016092Y008143D02*
X016092Y008019D01*
X016092Y008081D02*
X015845Y008081D01*
X015845Y008019D01*
X015722Y008081D02*
X015660Y008081D01*
X015722Y007651D02*
X016092Y007651D01*
X016092Y007898D01*
X016030Y007161D02*
X016092Y007099D01*
X016092Y006976D01*
X016030Y006914D01*
X015783Y006914D01*
X015722Y006976D01*
X015722Y007099D01*
X015783Y007161D01*
X016092Y006793D02*
X016092Y006546D01*
X016092Y006669D02*
X015722Y006669D01*
X015845Y006546D01*
X015783Y006424D02*
X016030Y006178D01*
X016092Y006239D01*
X016092Y006363D01*
X016030Y006424D01*
X015783Y006424D01*
X015722Y006363D01*
X015722Y006239D01*
X015783Y006178D01*
X016030Y006178D01*
X015907Y006056D02*
X015907Y005809D01*
X015969Y005688D02*
X016030Y005688D01*
X016092Y005626D01*
X016092Y005503D01*
X016030Y005441D01*
X016030Y005319D02*
X016092Y005258D01*
X016092Y005134D01*
X016030Y005073D01*
X015907Y005073D02*
X015845Y005196D01*
X015845Y005258D01*
X015907Y005319D01*
X016030Y005319D01*
X015907Y005564D02*
X015907Y005626D01*
X015969Y005688D01*
X015907Y005626D02*
X015845Y005688D01*
X015783Y005688D01*
X015722Y005626D01*
X015722Y005503D01*
X015783Y005441D01*
X015722Y005319D02*
X015722Y005073D01*
X015907Y005073D01*
X016092Y004951D02*
X016092Y004704D01*
X016092Y004828D02*
X015722Y004828D01*
X015845Y004704D01*
X016092Y009001D02*
X015845Y009248D01*
X010647Y008100D02*
X010277Y008100D01*
X010277Y008346D01*
X010462Y008223D02*
X010462Y008100D01*
X010339Y007978D02*
X010277Y007916D01*
X010277Y007793D01*
X010339Y007731D01*
X010400Y005584D02*
X010400Y005399D01*
D12*
X002267Y002936D02*
X002269Y002987D01*
X002275Y003038D01*
X002285Y003088D01*
X002298Y003138D01*
X002316Y003186D01*
X002336Y003233D01*
X002361Y003278D01*
X002389Y003321D01*
X002420Y003362D01*
X002454Y003400D01*
X002491Y003435D01*
X002530Y003468D01*
X002572Y003498D01*
X002616Y003524D01*
X002662Y003546D01*
X002710Y003566D01*
X002759Y003581D01*
X002809Y003593D01*
X002859Y003601D01*
X002910Y003605D01*
X002962Y003605D01*
X003013Y003601D01*
X003063Y003593D01*
X003113Y003581D01*
X003162Y003566D01*
X003210Y003546D01*
X003256Y003524D01*
X003300Y003498D01*
X003342Y003468D01*
X003381Y003435D01*
X003418Y003400D01*
X003452Y003362D01*
X003483Y003321D01*
X003511Y003278D01*
X003536Y003233D01*
X003556Y003186D01*
X003574Y003138D01*
X003587Y003088D01*
X003597Y003038D01*
X003603Y002987D01*
X003605Y002936D01*
X003603Y002885D01*
X003597Y002834D01*
X003587Y002784D01*
X003574Y002734D01*
X003556Y002686D01*
X003536Y002639D01*
X003511Y002594D01*
X003483Y002551D01*
X003452Y002510D01*
X003418Y002472D01*
X003381Y002437D01*
X003342Y002404D01*
X003300Y002374D01*
X003256Y002348D01*
X003210Y002326D01*
X003162Y002306D01*
X003113Y002291D01*
X003063Y002279D01*
X003013Y002271D01*
X002962Y002267D01*
X002910Y002267D01*
X002859Y002271D01*
X002809Y002279D01*
X002759Y002291D01*
X002710Y002306D01*
X002662Y002326D01*
X002616Y002348D01*
X002572Y002374D01*
X002530Y002404D01*
X002491Y002437D01*
X002454Y002472D01*
X002420Y002510D01*
X002389Y002551D01*
X002361Y002594D01*
X002336Y002639D01*
X002316Y002686D01*
X002298Y002734D01*
X002285Y002784D01*
X002275Y002834D01*
X002269Y002885D01*
X002267Y002936D01*
X006227Y028416D02*
X008117Y028416D01*
X008117Y032944D01*
X006227Y032944D01*
X006227Y028416D01*
X002267Y036794D02*
X002269Y036845D01*
X002275Y036896D01*
X002285Y036946D01*
X002298Y036996D01*
X002316Y037044D01*
X002336Y037091D01*
X002361Y037136D01*
X002389Y037179D01*
X002420Y037220D01*
X002454Y037258D01*
X002491Y037293D01*
X002530Y037326D01*
X002572Y037356D01*
X002616Y037382D01*
X002662Y037404D01*
X002710Y037424D01*
X002759Y037439D01*
X002809Y037451D01*
X002859Y037459D01*
X002910Y037463D01*
X002962Y037463D01*
X003013Y037459D01*
X003063Y037451D01*
X003113Y037439D01*
X003162Y037424D01*
X003210Y037404D01*
X003256Y037382D01*
X003300Y037356D01*
X003342Y037326D01*
X003381Y037293D01*
X003418Y037258D01*
X003452Y037220D01*
X003483Y037179D01*
X003511Y037136D01*
X003536Y037091D01*
X003556Y037044D01*
X003574Y036996D01*
X003587Y036946D01*
X003597Y036896D01*
X003603Y036845D01*
X003605Y036794D01*
X003603Y036743D01*
X003597Y036692D01*
X003587Y036642D01*
X003574Y036592D01*
X003556Y036544D01*
X003536Y036497D01*
X003511Y036452D01*
X003483Y036409D01*
X003452Y036368D01*
X003418Y036330D01*
X003381Y036295D01*
X003342Y036262D01*
X003300Y036232D01*
X003256Y036206D01*
X003210Y036184D01*
X003162Y036164D01*
X003113Y036149D01*
X003063Y036137D01*
X003013Y036129D01*
X002962Y036125D01*
X002910Y036125D01*
X002859Y036129D01*
X002809Y036137D01*
X002759Y036149D01*
X002710Y036164D01*
X002662Y036184D01*
X002616Y036206D01*
X002572Y036232D01*
X002530Y036262D01*
X002491Y036295D01*
X002454Y036330D01*
X002420Y036368D01*
X002389Y036409D01*
X002361Y036452D01*
X002336Y036497D01*
X002316Y036544D01*
X002298Y036592D01*
X002285Y036642D01*
X002275Y036692D01*
X002269Y036743D01*
X002267Y036794D01*
X029922Y003524D02*
X029922Y002924D01*
X029922Y002734D01*
X029922Y001160D01*
X029922Y000966D01*
X033922Y000966D01*
X033922Y000699D01*
X033922Y000454D01*
X033922Y000336D01*
X029922Y000336D01*
X029922Y000454D01*
X033922Y000454D01*
X033922Y000699D02*
X029922Y000699D01*
X029922Y000620D01*
X029922Y000454D01*
X029801Y000561D02*
X029871Y000620D01*
X029922Y000620D01*
X029922Y000699D02*
X029922Y000783D01*
X029922Y000966D01*
X029801Y000842D02*
X029871Y000783D01*
X029922Y000783D01*
X029801Y000842D02*
X029697Y000842D01*
X029697Y000561D01*
X029801Y000561D01*
X030168Y001940D02*
X030170Y001994D01*
X030176Y002049D01*
X030186Y002102D01*
X030199Y002155D01*
X030217Y002206D01*
X030238Y002257D01*
X030262Y002305D01*
X030290Y002352D01*
X030322Y002396D01*
X030356Y002438D01*
X030394Y002478D01*
X030434Y002515D01*
X030477Y002548D01*
X030522Y002579D01*
X030569Y002606D01*
X030618Y002630D01*
X030668Y002650D01*
X030720Y002667D01*
X030773Y002679D01*
X030827Y002688D01*
X030881Y002693D01*
X030936Y002694D01*
X030990Y002691D01*
X031044Y002684D01*
X031097Y002673D01*
X031150Y002659D01*
X031201Y002640D01*
X031251Y002618D01*
X031299Y002593D01*
X031345Y002564D01*
X031389Y002532D01*
X031431Y002497D01*
X031469Y002459D01*
X031505Y002418D01*
X031538Y002374D01*
X031568Y002329D01*
X031594Y002281D01*
X031617Y002232D01*
X031637Y002181D01*
X031652Y002129D01*
X031664Y002075D01*
X031672Y002022D01*
X031676Y001967D01*
X031676Y001913D01*
X031672Y001858D01*
X031664Y001805D01*
X031652Y001751D01*
X031637Y001699D01*
X031617Y001648D01*
X031594Y001599D01*
X031568Y001551D01*
X031538Y001506D01*
X031505Y001462D01*
X031469Y001421D01*
X031431Y001383D01*
X031389Y001348D01*
X031345Y001316D01*
X031299Y001287D01*
X031251Y001262D01*
X031201Y001240D01*
X031150Y001221D01*
X031097Y001207D01*
X031044Y001196D01*
X030990Y001189D01*
X030936Y001186D01*
X030881Y001187D01*
X030827Y001192D01*
X030773Y001201D01*
X030720Y001213D01*
X030668Y001230D01*
X030618Y001250D01*
X030569Y001274D01*
X030522Y001301D01*
X030477Y001332D01*
X030434Y001365D01*
X030394Y001402D01*
X030356Y001442D01*
X030322Y001484D01*
X030290Y001528D01*
X030262Y001575D01*
X030238Y001623D01*
X030217Y001674D01*
X030199Y001725D01*
X030186Y001778D01*
X030176Y001831D01*
X030170Y001886D01*
X030168Y001940D01*
X029922Y002924D02*
X033922Y002924D01*
X033922Y003524D01*
X029922Y003524D01*
X032168Y001940D02*
X032170Y001994D01*
X032176Y002049D01*
X032186Y002102D01*
X032199Y002155D01*
X032217Y002206D01*
X032238Y002257D01*
X032262Y002305D01*
X032290Y002352D01*
X032322Y002396D01*
X032356Y002438D01*
X032394Y002478D01*
X032434Y002515D01*
X032477Y002548D01*
X032522Y002579D01*
X032569Y002606D01*
X032618Y002630D01*
X032668Y002650D01*
X032720Y002667D01*
X032773Y002679D01*
X032827Y002688D01*
X032881Y002693D01*
X032936Y002694D01*
X032990Y002691D01*
X033044Y002684D01*
X033097Y002673D01*
X033150Y002659D01*
X033201Y002640D01*
X033251Y002618D01*
X033299Y002593D01*
X033345Y002564D01*
X033389Y002532D01*
X033431Y002497D01*
X033469Y002459D01*
X033505Y002418D01*
X033538Y002374D01*
X033568Y002329D01*
X033594Y002281D01*
X033617Y002232D01*
X033637Y002181D01*
X033652Y002129D01*
X033664Y002075D01*
X033672Y002022D01*
X033676Y001967D01*
X033676Y001913D01*
X033672Y001858D01*
X033664Y001805D01*
X033652Y001751D01*
X033637Y001699D01*
X033617Y001648D01*
X033594Y001599D01*
X033568Y001551D01*
X033538Y001506D01*
X033505Y001462D01*
X033469Y001421D01*
X033431Y001383D01*
X033389Y001348D01*
X033345Y001316D01*
X033299Y001287D01*
X033251Y001262D01*
X033201Y001240D01*
X033150Y001221D01*
X033097Y001207D01*
X033044Y001196D01*
X032990Y001189D01*
X032936Y001186D01*
X032881Y001187D01*
X032827Y001192D01*
X032773Y001201D01*
X032720Y001213D01*
X032668Y001230D01*
X032618Y001250D01*
X032569Y001274D01*
X032522Y001301D01*
X032477Y001332D01*
X032434Y001365D01*
X032394Y001402D01*
X032356Y001442D01*
X032322Y001484D01*
X032290Y001528D01*
X032262Y001575D01*
X032238Y001623D01*
X032217Y001674D01*
X032199Y001725D01*
X032186Y001778D01*
X032176Y001831D01*
X032170Y001886D01*
X032168Y001940D01*
X033922Y001160D02*
X033922Y002734D01*
X033922Y002924D01*
X033922Y001160D02*
X033922Y000966D01*
X036125Y002936D02*
X036127Y002987D01*
X036133Y003038D01*
X036143Y003088D01*
X036156Y003138D01*
X036174Y003186D01*
X036194Y003233D01*
X036219Y003278D01*
X036247Y003321D01*
X036278Y003362D01*
X036312Y003400D01*
X036349Y003435D01*
X036388Y003468D01*
X036430Y003498D01*
X036474Y003524D01*
X036520Y003546D01*
X036568Y003566D01*
X036617Y003581D01*
X036667Y003593D01*
X036717Y003601D01*
X036768Y003605D01*
X036820Y003605D01*
X036871Y003601D01*
X036921Y003593D01*
X036971Y003581D01*
X037020Y003566D01*
X037068Y003546D01*
X037114Y003524D01*
X037158Y003498D01*
X037200Y003468D01*
X037239Y003435D01*
X037276Y003400D01*
X037310Y003362D01*
X037341Y003321D01*
X037369Y003278D01*
X037394Y003233D01*
X037414Y003186D01*
X037432Y003138D01*
X037445Y003088D01*
X037455Y003038D01*
X037461Y002987D01*
X037463Y002936D01*
X037461Y002885D01*
X037455Y002834D01*
X037445Y002784D01*
X037432Y002734D01*
X037414Y002686D01*
X037394Y002639D01*
X037369Y002594D01*
X037341Y002551D01*
X037310Y002510D01*
X037276Y002472D01*
X037239Y002437D01*
X037200Y002404D01*
X037158Y002374D01*
X037114Y002348D01*
X037068Y002326D01*
X037020Y002306D01*
X036971Y002291D01*
X036921Y002279D01*
X036871Y002271D01*
X036820Y002267D01*
X036768Y002267D01*
X036717Y002271D01*
X036667Y002279D01*
X036617Y002291D01*
X036568Y002306D01*
X036520Y002326D01*
X036474Y002348D01*
X036430Y002374D01*
X036388Y002404D01*
X036349Y002437D01*
X036312Y002472D01*
X036278Y002510D01*
X036247Y002551D01*
X036219Y002594D01*
X036194Y002639D01*
X036174Y002686D01*
X036156Y002734D01*
X036143Y002784D01*
X036133Y002834D01*
X036127Y002885D01*
X036125Y002936D01*
X038027Y016373D02*
X038027Y016987D01*
X037720Y016680D02*
X038334Y016680D01*
X038734Y017188D02*
X038924Y017188D01*
X039524Y017188D01*
X039524Y021188D01*
X038924Y021188D01*
X038734Y021188D01*
X037160Y021188D01*
X036966Y021188D01*
X036966Y017188D01*
X036699Y017188D01*
X036454Y017188D01*
X036336Y017188D01*
X036336Y021188D01*
X036454Y021188D01*
X036454Y017188D01*
X036699Y017188D02*
X036699Y021188D01*
X036620Y021188D01*
X036454Y021188D01*
X036561Y021309D02*
X036620Y021239D01*
X036620Y021188D01*
X036699Y021188D02*
X036783Y021188D01*
X036966Y021188D01*
X036842Y021309D02*
X036783Y021239D01*
X036783Y021188D01*
X036842Y021309D02*
X036842Y021413D01*
X036561Y021413D01*
X036561Y021309D01*
X037930Y021470D02*
X037930Y022084D01*
X038924Y021188D02*
X038924Y017188D01*
X038734Y017188D02*
X037160Y017188D01*
X036966Y017188D01*
X037186Y018188D02*
X037188Y018242D01*
X037194Y018297D01*
X037204Y018350D01*
X037217Y018403D01*
X037235Y018454D01*
X037256Y018505D01*
X037280Y018553D01*
X037308Y018600D01*
X037340Y018644D01*
X037374Y018686D01*
X037412Y018726D01*
X037452Y018763D01*
X037495Y018796D01*
X037540Y018827D01*
X037587Y018854D01*
X037636Y018878D01*
X037686Y018898D01*
X037738Y018915D01*
X037791Y018927D01*
X037845Y018936D01*
X037899Y018941D01*
X037954Y018942D01*
X038008Y018939D01*
X038062Y018932D01*
X038115Y018921D01*
X038168Y018907D01*
X038219Y018888D01*
X038269Y018866D01*
X038317Y018841D01*
X038363Y018812D01*
X038407Y018780D01*
X038449Y018745D01*
X038487Y018707D01*
X038523Y018666D01*
X038556Y018622D01*
X038586Y018577D01*
X038612Y018529D01*
X038635Y018480D01*
X038655Y018429D01*
X038670Y018377D01*
X038682Y018323D01*
X038690Y018270D01*
X038694Y018215D01*
X038694Y018161D01*
X038690Y018106D01*
X038682Y018053D01*
X038670Y017999D01*
X038655Y017947D01*
X038635Y017896D01*
X038612Y017847D01*
X038586Y017799D01*
X038556Y017754D01*
X038523Y017710D01*
X038487Y017669D01*
X038449Y017631D01*
X038407Y017596D01*
X038363Y017564D01*
X038317Y017535D01*
X038269Y017510D01*
X038219Y017488D01*
X038168Y017469D01*
X038115Y017455D01*
X038062Y017444D01*
X038008Y017437D01*
X037954Y017434D01*
X037899Y017435D01*
X037845Y017440D01*
X037791Y017449D01*
X037738Y017461D01*
X037686Y017478D01*
X037636Y017498D01*
X037587Y017522D01*
X037540Y017549D01*
X037495Y017580D01*
X037452Y017613D01*
X037412Y017650D01*
X037374Y017690D01*
X037340Y017732D01*
X037308Y017776D01*
X037280Y017823D01*
X037256Y017871D01*
X037235Y017922D01*
X037217Y017973D01*
X037204Y018026D01*
X037194Y018079D01*
X037188Y018134D01*
X037186Y018188D01*
X037186Y020188D02*
X037188Y020242D01*
X037194Y020297D01*
X037204Y020350D01*
X037217Y020403D01*
X037235Y020454D01*
X037256Y020505D01*
X037280Y020553D01*
X037308Y020600D01*
X037340Y020644D01*
X037374Y020686D01*
X037412Y020726D01*
X037452Y020763D01*
X037495Y020796D01*
X037540Y020827D01*
X037587Y020854D01*
X037636Y020878D01*
X037686Y020898D01*
X037738Y020915D01*
X037791Y020927D01*
X037845Y020936D01*
X037899Y020941D01*
X037954Y020942D01*
X038008Y020939D01*
X038062Y020932D01*
X038115Y020921D01*
X038168Y020907D01*
X038219Y020888D01*
X038269Y020866D01*
X038317Y020841D01*
X038363Y020812D01*
X038407Y020780D01*
X038449Y020745D01*
X038487Y020707D01*
X038523Y020666D01*
X038556Y020622D01*
X038586Y020577D01*
X038612Y020529D01*
X038635Y020480D01*
X038655Y020429D01*
X038670Y020377D01*
X038682Y020323D01*
X038690Y020270D01*
X038694Y020215D01*
X038694Y020161D01*
X038690Y020106D01*
X038682Y020053D01*
X038670Y019999D01*
X038655Y019947D01*
X038635Y019896D01*
X038612Y019847D01*
X038586Y019799D01*
X038556Y019754D01*
X038523Y019710D01*
X038487Y019669D01*
X038449Y019631D01*
X038407Y019596D01*
X038363Y019564D01*
X038317Y019535D01*
X038269Y019510D01*
X038219Y019488D01*
X038168Y019469D01*
X038115Y019455D01*
X038062Y019444D01*
X038008Y019437D01*
X037954Y019434D01*
X037899Y019435D01*
X037845Y019440D01*
X037791Y019449D01*
X037738Y019461D01*
X037686Y019478D01*
X037636Y019498D01*
X037587Y019522D01*
X037540Y019549D01*
X037495Y019580D01*
X037452Y019613D01*
X037412Y019650D01*
X037374Y019690D01*
X037340Y019732D01*
X037308Y019776D01*
X037280Y019823D01*
X037256Y019871D01*
X037235Y019922D01*
X037217Y019973D01*
X037204Y020026D01*
X037194Y020079D01*
X037188Y020134D01*
X037186Y020188D01*
X036125Y036794D02*
X036127Y036845D01*
X036133Y036896D01*
X036143Y036946D01*
X036156Y036996D01*
X036174Y037044D01*
X036194Y037091D01*
X036219Y037136D01*
X036247Y037179D01*
X036278Y037220D01*
X036312Y037258D01*
X036349Y037293D01*
X036388Y037326D01*
X036430Y037356D01*
X036474Y037382D01*
X036520Y037404D01*
X036568Y037424D01*
X036617Y037439D01*
X036667Y037451D01*
X036717Y037459D01*
X036768Y037463D01*
X036820Y037463D01*
X036871Y037459D01*
X036921Y037451D01*
X036971Y037439D01*
X037020Y037424D01*
X037068Y037404D01*
X037114Y037382D01*
X037158Y037356D01*
X037200Y037326D01*
X037239Y037293D01*
X037276Y037258D01*
X037310Y037220D01*
X037341Y037179D01*
X037369Y037136D01*
X037394Y037091D01*
X037414Y037044D01*
X037432Y036996D01*
X037445Y036946D01*
X037455Y036896D01*
X037461Y036845D01*
X037463Y036794D01*
X037461Y036743D01*
X037455Y036692D01*
X037445Y036642D01*
X037432Y036592D01*
X037414Y036544D01*
X037394Y036497D01*
X037369Y036452D01*
X037341Y036409D01*
X037310Y036368D01*
X037276Y036330D01*
X037239Y036295D01*
X037200Y036262D01*
X037158Y036232D01*
X037114Y036206D01*
X037068Y036184D01*
X037020Y036164D01*
X036971Y036149D01*
X036921Y036137D01*
X036871Y036129D01*
X036820Y036125D01*
X036768Y036125D01*
X036717Y036129D01*
X036667Y036137D01*
X036617Y036149D01*
X036568Y036164D01*
X036520Y036184D01*
X036474Y036206D01*
X036430Y036232D01*
X036388Y036262D01*
X036349Y036295D01*
X036312Y036330D01*
X036278Y036368D01*
X036247Y036409D01*
X036219Y036452D01*
X036194Y036497D01*
X036174Y036544D01*
X036156Y036592D01*
X036143Y036642D01*
X036133Y036692D01*
X036127Y036743D01*
X036125Y036794D01*
D13*
X035444Y036794D02*
X035446Y036867D01*
X035452Y036940D01*
X035462Y037012D01*
X035476Y037084D01*
X035493Y037155D01*
X035515Y037225D01*
X035540Y037294D01*
X035569Y037361D01*
X035601Y037426D01*
X035637Y037490D01*
X035677Y037552D01*
X035719Y037611D01*
X035765Y037668D01*
X035814Y037722D01*
X035866Y037774D01*
X035920Y037823D01*
X035977Y037869D01*
X036036Y037911D01*
X036098Y037951D01*
X036162Y037987D01*
X036227Y038019D01*
X036294Y038048D01*
X036363Y038073D01*
X036433Y038095D01*
X036504Y038112D01*
X036576Y038126D01*
X036648Y038136D01*
X036721Y038142D01*
X036794Y038144D01*
X036867Y038142D01*
X036940Y038136D01*
X037012Y038126D01*
X037084Y038112D01*
X037155Y038095D01*
X037225Y038073D01*
X037294Y038048D01*
X037361Y038019D01*
X037426Y037987D01*
X037490Y037951D01*
X037552Y037911D01*
X037611Y037869D01*
X037668Y037823D01*
X037722Y037774D01*
X037774Y037722D01*
X037823Y037668D01*
X037869Y037611D01*
X037911Y037552D01*
X037951Y037490D01*
X037987Y037426D01*
X038019Y037361D01*
X038048Y037294D01*
X038073Y037225D01*
X038095Y037155D01*
X038112Y037084D01*
X038126Y037012D01*
X038136Y036940D01*
X038142Y036867D01*
X038144Y036794D01*
X038142Y036721D01*
X038136Y036648D01*
X038126Y036576D01*
X038112Y036504D01*
X038095Y036433D01*
X038073Y036363D01*
X038048Y036294D01*
X038019Y036227D01*
X037987Y036162D01*
X037951Y036098D01*
X037911Y036036D01*
X037869Y035977D01*
X037823Y035920D01*
X037774Y035866D01*
X037722Y035814D01*
X037668Y035765D01*
X037611Y035719D01*
X037552Y035677D01*
X037490Y035637D01*
X037426Y035601D01*
X037361Y035569D01*
X037294Y035540D01*
X037225Y035515D01*
X037155Y035493D01*
X037084Y035476D01*
X037012Y035462D01*
X036940Y035452D01*
X036867Y035446D01*
X036794Y035444D01*
X036721Y035446D01*
X036648Y035452D01*
X036576Y035462D01*
X036504Y035476D01*
X036433Y035493D01*
X036363Y035515D01*
X036294Y035540D01*
X036227Y035569D01*
X036162Y035601D01*
X036098Y035637D01*
X036036Y035677D01*
X035977Y035719D01*
X035920Y035765D01*
X035866Y035814D01*
X035814Y035866D01*
X035765Y035920D01*
X035719Y035977D01*
X035677Y036036D01*
X035637Y036098D01*
X035601Y036162D01*
X035569Y036227D01*
X035540Y036294D01*
X035515Y036363D01*
X035493Y036433D01*
X035476Y036504D01*
X035462Y036576D01*
X035452Y036648D01*
X035446Y036721D01*
X035444Y036794D01*
X034938Y037997D02*
X032922Y037997D01*
X032530Y037680D02*
X031830Y037680D01*
X031813Y037678D01*
X031796Y037674D01*
X031780Y037667D01*
X031766Y037657D01*
X031753Y037644D01*
X031743Y037630D01*
X031736Y037614D01*
X031732Y037597D01*
X031730Y037580D01*
X031730Y037430D01*
X031780Y037380D01*
X031780Y035480D01*
X031730Y035430D01*
X031730Y035280D01*
X031732Y035263D01*
X031736Y035246D01*
X031743Y035230D01*
X031753Y035216D01*
X031766Y035203D01*
X031780Y035193D01*
X031796Y035186D01*
X031813Y035182D01*
X031830Y035180D01*
X032530Y035180D01*
X032547Y035182D01*
X032564Y035186D01*
X032580Y035193D01*
X032594Y035203D01*
X032607Y035216D01*
X032617Y035230D01*
X032624Y035246D01*
X032628Y035263D01*
X032630Y035280D01*
X032630Y035430D01*
X032580Y035480D01*
X032580Y037380D01*
X032630Y037430D01*
X032630Y037580D01*
X032628Y037597D01*
X032624Y037614D01*
X032617Y037630D01*
X032607Y037644D01*
X032594Y037657D01*
X032580Y037667D01*
X032564Y037674D01*
X032547Y037678D01*
X032530Y037680D01*
X031630Y037580D02*
X031630Y037430D01*
X031580Y037380D01*
X031580Y035480D01*
X031630Y035430D01*
X031630Y035280D01*
X031628Y035263D01*
X031624Y035246D01*
X031617Y035230D01*
X031607Y035216D01*
X031594Y035203D01*
X031580Y035193D01*
X031564Y035186D01*
X031547Y035182D01*
X031530Y035180D01*
X030830Y035180D01*
X030813Y035182D01*
X030796Y035186D01*
X030780Y035193D01*
X030766Y035203D01*
X030753Y035216D01*
X030743Y035230D01*
X030736Y035246D01*
X030732Y035263D01*
X030730Y035280D01*
X030730Y035430D01*
X030780Y035480D01*
X030780Y037380D01*
X030730Y037430D01*
X030730Y037580D01*
X030732Y037597D01*
X030736Y037614D01*
X030743Y037630D01*
X030753Y037644D01*
X030766Y037657D01*
X030780Y037667D01*
X030796Y037674D01*
X030813Y037678D01*
X030830Y037680D01*
X031530Y037680D01*
X031547Y037678D01*
X031564Y037674D01*
X031580Y037667D01*
X031594Y037657D01*
X031607Y037644D01*
X031617Y037630D01*
X031624Y037614D01*
X031628Y037597D01*
X031630Y037580D01*
X030430Y037580D02*
X030430Y035280D01*
X028430Y035280D01*
X028430Y036030D01*
X028469Y036032D01*
X028508Y036038D01*
X028546Y036047D01*
X028583Y036060D01*
X028619Y036077D01*
X028652Y036097D01*
X028684Y036121D01*
X028713Y036147D01*
X028739Y036176D01*
X028763Y036208D01*
X028783Y036241D01*
X028800Y036277D01*
X028813Y036314D01*
X028822Y036352D01*
X028828Y036391D01*
X028830Y036430D01*
X028828Y036469D01*
X028822Y036508D01*
X028813Y036546D01*
X028800Y036583D01*
X028783Y036619D01*
X028763Y036652D01*
X028739Y036684D01*
X028713Y036713D01*
X028684Y036739D01*
X028652Y036763D01*
X028619Y036783D01*
X028583Y036800D01*
X028546Y036813D01*
X028508Y036822D01*
X028469Y036828D01*
X028430Y036830D01*
X028430Y037580D01*
X030430Y037580D01*
X034298Y035456D02*
X034333Y035486D01*
X034366Y035517D01*
X034396Y035552D01*
X034423Y035588D01*
X034447Y035626D01*
X034469Y035666D01*
X034487Y035708D01*
X034503Y035751D01*
X034515Y035795D01*
X034523Y035839D01*
X034528Y035885D01*
X034530Y035930D01*
X033570Y035450D02*
X033534Y035479D01*
X033500Y035511D01*
X033469Y035546D01*
X033441Y035582D01*
X033416Y035621D01*
X033393Y035662D01*
X033374Y035704D01*
X033358Y035747D01*
X033346Y035792D01*
X033337Y035838D01*
X033332Y035884D01*
X033330Y035930D01*
X034298Y036404D02*
X034333Y036374D01*
X034366Y036343D01*
X034396Y036308D01*
X034423Y036272D01*
X034447Y036234D01*
X034469Y036194D01*
X034487Y036152D01*
X034503Y036109D01*
X034515Y036065D01*
X034523Y036021D01*
X034528Y035975D01*
X034530Y035930D01*
X033581Y036418D02*
X033544Y036389D01*
X033509Y036357D01*
X033476Y036322D01*
X033446Y036285D01*
X033420Y036246D01*
X033397Y036205D01*
X033376Y036161D01*
X033360Y036117D01*
X033347Y036071D01*
X033338Y036025D01*
X033332Y035977D01*
X033330Y035930D01*
X033080Y033380D02*
X031780Y033380D01*
X031754Y033378D01*
X031728Y033373D01*
X031703Y033365D01*
X031680Y033353D01*
X031658Y033339D01*
X031639Y033321D01*
X031621Y033302D01*
X031607Y033280D01*
X031595Y033257D01*
X031587Y033232D01*
X031582Y033206D01*
X031580Y033180D01*
X031580Y032680D01*
X031582Y032654D01*
X031587Y032628D01*
X031595Y032603D01*
X031607Y032580D01*
X031621Y032558D01*
X031639Y032539D01*
X031658Y032521D01*
X031680Y032507D01*
X031703Y032495D01*
X031728Y032487D01*
X031754Y032482D01*
X031780Y032480D01*
X033080Y032480D01*
X033106Y032482D01*
X033132Y032487D01*
X033157Y032495D01*
X033180Y032507D01*
X033202Y032521D01*
X033221Y032539D01*
X033239Y032558D01*
X033253Y032580D01*
X033265Y032603D01*
X033273Y032628D01*
X033278Y032654D01*
X033280Y032680D01*
X033280Y033180D01*
X033278Y033206D01*
X033273Y033232D01*
X033265Y033257D01*
X033253Y033280D01*
X033239Y033302D01*
X033221Y033321D01*
X033202Y033339D01*
X033180Y033353D01*
X033157Y033365D01*
X033132Y033373D01*
X033106Y033378D01*
X033080Y033380D01*
X034180Y032180D02*
X030680Y032180D01*
X030680Y031680D01*
X030580Y031680D01*
X030580Y031180D01*
X030680Y031180D01*
X030680Y028430D01*
X030580Y028430D01*
X030580Y027930D01*
X030680Y027930D01*
X030680Y025180D01*
X030580Y025180D01*
X030580Y024680D01*
X030680Y024680D01*
X030680Y024180D01*
X034180Y024180D01*
X034180Y025930D01*
X034130Y025930D01*
X034130Y026430D01*
X034180Y026430D01*
X034180Y027380D01*
X033780Y027380D01*
X033680Y027380D01*
X033680Y024680D01*
X031180Y024680D01*
X031180Y031680D01*
X033680Y031680D01*
X033680Y029980D01*
X033680Y029380D01*
X033680Y028980D01*
X033780Y028980D01*
X034180Y028980D01*
X034180Y027380D01*
X033680Y027380D02*
X033380Y027380D01*
X033380Y028980D01*
X033680Y028980D01*
X033980Y029180D02*
X033980Y029380D01*
X033980Y029980D01*
X033780Y029980D01*
X033680Y029980D01*
X033980Y029980D02*
X033980Y030180D01*
X034180Y030330D01*
X034180Y032180D01*
X035247Y033188D02*
X035247Y023172D01*
X033280Y023180D02*
X033280Y023680D01*
X033278Y023706D01*
X033273Y023732D01*
X033265Y023757D01*
X033253Y023780D01*
X033239Y023802D01*
X033221Y023821D01*
X033202Y023839D01*
X033180Y023853D01*
X033157Y023865D01*
X033132Y023873D01*
X033106Y023878D01*
X033080Y023880D01*
X031780Y023880D01*
X031754Y023878D01*
X031728Y023873D01*
X031703Y023865D01*
X031680Y023853D01*
X031658Y023839D01*
X031639Y023821D01*
X031621Y023802D01*
X031607Y023780D01*
X031595Y023757D01*
X031587Y023732D01*
X031582Y023706D01*
X031580Y023680D01*
X031580Y023180D01*
X031582Y023154D01*
X031587Y023128D01*
X031595Y023103D01*
X031607Y023080D01*
X031621Y023058D01*
X031639Y023039D01*
X031658Y023021D01*
X031680Y023007D01*
X031703Y022995D01*
X031728Y022987D01*
X031754Y022982D01*
X031780Y022980D01*
X033080Y022980D01*
X033106Y022982D01*
X033132Y022987D01*
X033157Y022995D01*
X033180Y023007D01*
X033202Y023021D01*
X033221Y023039D01*
X033239Y023058D01*
X033253Y023080D01*
X033265Y023103D01*
X033273Y023128D01*
X033278Y023154D01*
X033280Y023180D01*
X034080Y020430D02*
X034780Y020430D01*
X034797Y020428D01*
X034814Y020424D01*
X034830Y020417D01*
X034844Y020407D01*
X034857Y020394D01*
X034867Y020380D01*
X034874Y020364D01*
X034878Y020347D01*
X034880Y020330D01*
X034880Y020180D01*
X034830Y020130D01*
X034830Y018230D01*
X034880Y018180D01*
X034880Y018030D01*
X034878Y018013D01*
X034874Y017996D01*
X034867Y017980D01*
X034857Y017966D01*
X034844Y017953D01*
X034830Y017943D01*
X034814Y017936D01*
X034797Y017932D01*
X034780Y017930D01*
X034080Y017930D01*
X034063Y017932D01*
X034046Y017936D01*
X034030Y017943D01*
X034016Y017953D01*
X034003Y017966D01*
X033993Y017980D01*
X033986Y017996D01*
X033982Y018013D01*
X033980Y018030D01*
X033980Y018180D01*
X034030Y018230D01*
X034030Y020130D01*
X033980Y020180D01*
X033980Y020330D01*
X033982Y020347D01*
X033986Y020364D01*
X033993Y020380D01*
X034003Y020394D01*
X034016Y020407D01*
X034030Y020417D01*
X034046Y020424D01*
X034063Y020428D01*
X034080Y020430D01*
X035030Y019980D02*
X035030Y018380D01*
X035032Y018363D01*
X035036Y018346D01*
X035043Y018330D01*
X035053Y018316D01*
X035066Y018303D01*
X035080Y018293D01*
X035096Y018286D01*
X035113Y018282D01*
X035130Y018280D01*
X035730Y018280D01*
X035747Y018282D01*
X035764Y018286D01*
X035780Y018293D01*
X035794Y018303D01*
X035807Y018316D01*
X035817Y018330D01*
X035824Y018346D01*
X035828Y018363D01*
X035830Y018380D01*
X035830Y019980D01*
X035828Y019997D01*
X035824Y020014D01*
X035817Y020030D01*
X035807Y020044D01*
X035794Y020057D01*
X035780Y020067D01*
X035764Y020074D01*
X035747Y020078D01*
X035730Y020080D01*
X035130Y020080D01*
X035113Y020078D01*
X035096Y020074D01*
X035080Y020067D01*
X035066Y020057D01*
X035053Y020044D01*
X035043Y020030D01*
X035036Y020014D01*
X035032Y019997D01*
X035030Y019980D01*
X035180Y019580D02*
X035430Y019180D01*
X035680Y019180D01*
X035430Y019180D02*
X035430Y018930D01*
X035430Y019180D02*
X035180Y019180D01*
X035430Y019180D02*
X035430Y019780D01*
X035680Y019580D02*
X035430Y019180D01*
X035180Y019580D02*
X035680Y019580D01*
X033530Y019180D02*
X033528Y019133D01*
X033522Y019085D01*
X033513Y019039D01*
X033500Y018993D01*
X033484Y018949D01*
X033463Y018905D01*
X033440Y018864D01*
X033414Y018825D01*
X033384Y018788D01*
X033351Y018753D01*
X033316Y018721D01*
X033279Y018692D01*
X032330Y019180D02*
X032332Y019225D01*
X032337Y019271D01*
X032345Y019315D01*
X032357Y019359D01*
X032373Y019402D01*
X032391Y019444D01*
X032413Y019484D01*
X032437Y019522D01*
X032464Y019558D01*
X032494Y019593D01*
X032527Y019624D01*
X032562Y019654D01*
X032330Y019180D02*
X032332Y019135D01*
X032337Y019089D01*
X032345Y019045D01*
X032357Y019001D01*
X032373Y018958D01*
X032391Y018916D01*
X032413Y018876D01*
X032437Y018838D01*
X032464Y018802D01*
X032494Y018767D01*
X032527Y018736D01*
X032562Y018706D01*
X033530Y019180D02*
X033528Y019226D01*
X033523Y019272D01*
X033514Y019318D01*
X033502Y019363D01*
X033486Y019406D01*
X033467Y019448D01*
X033444Y019489D01*
X033419Y019528D01*
X033391Y019564D01*
X033360Y019599D01*
X033326Y019631D01*
X033290Y019660D01*
X030580Y021180D02*
X030580Y017180D01*
X028280Y017180D01*
X028280Y021180D01*
X029030Y021180D01*
X029032Y021141D01*
X029038Y021102D01*
X029047Y021064D01*
X029060Y021027D01*
X029077Y020991D01*
X029097Y020958D01*
X029121Y020926D01*
X029147Y020897D01*
X029176Y020871D01*
X029208Y020847D01*
X029241Y020827D01*
X029277Y020810D01*
X029314Y020797D01*
X029352Y020788D01*
X029391Y020782D01*
X029430Y020780D01*
X029469Y020782D01*
X029508Y020788D01*
X029546Y020797D01*
X029583Y020810D01*
X029619Y020827D01*
X029652Y020847D01*
X029684Y020871D01*
X029713Y020897D01*
X029739Y020926D01*
X029763Y020958D01*
X029783Y020991D01*
X029800Y021027D01*
X029813Y021064D01*
X029822Y021102D01*
X029828Y021141D01*
X029830Y021180D01*
X030580Y021180D01*
X030030Y021680D02*
X030030Y022180D01*
X030028Y022206D01*
X030023Y022232D01*
X030015Y022257D01*
X030003Y022280D01*
X029989Y022302D01*
X029971Y022321D01*
X029952Y022339D01*
X029930Y022353D01*
X029907Y022365D01*
X029882Y022373D01*
X029856Y022378D01*
X029830Y022380D01*
X028530Y022380D01*
X028504Y022378D01*
X028478Y022373D01*
X028453Y022365D01*
X028430Y022353D01*
X028408Y022339D01*
X028389Y022321D01*
X028371Y022302D01*
X028357Y022280D01*
X028345Y022257D01*
X028337Y022232D01*
X028332Y022206D01*
X028330Y022180D01*
X028330Y021680D01*
X028332Y021654D01*
X028337Y021628D01*
X028345Y021603D01*
X028357Y021580D01*
X028371Y021558D01*
X028389Y021539D01*
X028408Y021521D01*
X028430Y021507D01*
X028453Y021495D01*
X028478Y021487D01*
X028504Y021482D01*
X028530Y021480D01*
X029830Y021480D01*
X029856Y021482D01*
X029882Y021487D01*
X029907Y021495D01*
X029930Y021507D01*
X029952Y021521D01*
X029971Y021539D01*
X029989Y021558D01*
X030003Y021580D01*
X030015Y021603D01*
X030023Y021628D01*
X030028Y021654D01*
X030030Y021680D01*
X028830Y022930D02*
X026530Y022930D01*
X026530Y032930D01*
X027280Y032930D01*
X027282Y032891D01*
X027288Y032852D01*
X027297Y032814D01*
X027310Y032777D01*
X027327Y032741D01*
X027347Y032708D01*
X027371Y032676D01*
X027397Y032647D01*
X027426Y032621D01*
X027458Y032597D01*
X027491Y032577D01*
X027527Y032560D01*
X027564Y032547D01*
X027602Y032538D01*
X027641Y032532D01*
X027680Y032530D01*
X027719Y032532D01*
X027758Y032538D01*
X027796Y032547D01*
X027833Y032560D01*
X027869Y032577D01*
X027902Y032597D01*
X027934Y032621D01*
X027963Y032647D01*
X027989Y032676D01*
X028013Y032708D01*
X028033Y032741D01*
X028050Y032777D01*
X028063Y032814D01*
X028072Y032852D01*
X028078Y032891D01*
X028080Y032930D01*
X028830Y032930D01*
X028830Y022930D01*
X025080Y021180D02*
X024330Y021180D01*
X024580Y021480D02*
X023280Y021480D01*
X023254Y021482D01*
X023228Y021487D01*
X023203Y021495D01*
X023180Y021507D01*
X023158Y021521D01*
X023139Y021539D01*
X023121Y021558D01*
X023107Y021580D01*
X023095Y021603D01*
X023087Y021628D01*
X023082Y021654D01*
X023080Y021680D01*
X023080Y022180D01*
X023082Y022206D01*
X023087Y022232D01*
X023095Y022257D01*
X023107Y022280D01*
X023121Y022302D01*
X023139Y022321D01*
X023158Y022339D01*
X023180Y022353D01*
X023203Y022365D01*
X023228Y022373D01*
X023254Y022378D01*
X023280Y022380D01*
X024580Y022380D01*
X024606Y022378D01*
X024632Y022373D01*
X024657Y022365D01*
X024680Y022353D01*
X024702Y022339D01*
X024721Y022321D01*
X024739Y022302D01*
X024753Y022280D01*
X024765Y022257D01*
X024773Y022232D01*
X024778Y022206D01*
X024780Y022180D01*
X024780Y021680D01*
X024778Y021654D01*
X024773Y021628D01*
X024765Y021603D01*
X024753Y021580D01*
X024739Y021558D01*
X024721Y021539D01*
X024702Y021521D01*
X024680Y021507D01*
X024657Y021495D01*
X024632Y021487D01*
X024606Y021482D01*
X024580Y021480D01*
X025080Y021180D02*
X025080Y017180D01*
X022780Y017180D01*
X022780Y021180D01*
X023530Y021180D01*
X023532Y021141D01*
X023538Y021102D01*
X023547Y021064D01*
X023560Y021027D01*
X023577Y020991D01*
X023597Y020958D01*
X023621Y020926D01*
X023647Y020897D01*
X023676Y020871D01*
X023708Y020847D01*
X023741Y020827D01*
X023777Y020810D01*
X023814Y020797D01*
X023852Y020788D01*
X023891Y020782D01*
X023930Y020780D01*
X023969Y020782D01*
X024008Y020788D01*
X024046Y020797D01*
X024083Y020810D01*
X024119Y020827D01*
X024152Y020847D01*
X024184Y020871D01*
X024213Y020897D01*
X024239Y020926D01*
X024263Y020958D01*
X024283Y020991D01*
X024300Y021027D01*
X024313Y021064D01*
X024322Y021102D01*
X024328Y021141D01*
X024330Y021180D01*
X024380Y023430D02*
X023980Y023430D01*
X023954Y023432D01*
X023928Y023437D01*
X023903Y023445D01*
X023880Y023457D01*
X023858Y023471D01*
X023839Y023489D01*
X023821Y023508D01*
X023807Y023530D01*
X023795Y023553D01*
X023787Y023578D01*
X023782Y023604D01*
X023780Y023630D01*
X023780Y032230D01*
X023830Y032280D02*
X024530Y032280D01*
X024530Y031580D01*
X023830Y031580D01*
X023830Y032280D01*
X023780Y032230D02*
X023782Y032256D01*
X023787Y032282D01*
X023795Y032307D01*
X023807Y032330D01*
X023821Y032352D01*
X023839Y032371D01*
X023858Y032389D01*
X023880Y032403D01*
X023903Y032415D01*
X023928Y032423D01*
X023954Y032428D01*
X023980Y032430D01*
X024380Y032430D01*
X024406Y032428D01*
X024432Y032423D01*
X024457Y032415D01*
X024480Y032403D01*
X024502Y032389D01*
X024521Y032371D01*
X024539Y032352D01*
X024553Y032330D01*
X024565Y032307D01*
X024573Y032282D01*
X024578Y032256D01*
X024580Y032230D01*
X024580Y023630D01*
X024578Y023604D01*
X024573Y023578D01*
X024565Y023553D01*
X024553Y023530D01*
X024539Y023508D01*
X024521Y023489D01*
X024502Y023471D01*
X024480Y023457D01*
X024457Y023445D01*
X024432Y023437D01*
X024406Y023432D01*
X024380Y023430D01*
X021580Y022930D02*
X019280Y022930D01*
X019280Y026930D01*
X020030Y026930D01*
X019780Y027230D02*
X021080Y027230D01*
X021106Y027232D01*
X021132Y027237D01*
X021157Y027245D01*
X021180Y027257D01*
X021202Y027271D01*
X021221Y027289D01*
X021239Y027308D01*
X021253Y027330D01*
X021265Y027353D01*
X021273Y027378D01*
X021278Y027404D01*
X021280Y027430D01*
X021280Y027930D01*
X021278Y027956D01*
X021273Y027982D01*
X021265Y028007D01*
X021253Y028030D01*
X021239Y028052D01*
X021221Y028071D01*
X021202Y028089D01*
X021180Y028103D01*
X021157Y028115D01*
X021132Y028123D01*
X021106Y028128D01*
X021080Y028130D01*
X019780Y028130D01*
X019754Y028128D01*
X019728Y028123D01*
X019703Y028115D01*
X019680Y028103D01*
X019658Y028089D01*
X019639Y028071D01*
X019621Y028052D01*
X019607Y028030D01*
X019595Y028007D01*
X019587Y027982D01*
X019582Y027956D01*
X019580Y027930D01*
X019580Y027430D01*
X019582Y027404D01*
X019587Y027378D01*
X019595Y027353D01*
X019607Y027330D01*
X019621Y027308D01*
X019639Y027289D01*
X019658Y027271D01*
X019680Y027257D01*
X019703Y027245D01*
X019728Y027237D01*
X019754Y027232D01*
X019780Y027230D01*
X020030Y026930D02*
X020032Y026891D01*
X020038Y026852D01*
X020047Y026814D01*
X020060Y026777D01*
X020077Y026741D01*
X020097Y026708D01*
X020121Y026676D01*
X020147Y026647D01*
X020176Y026621D01*
X020208Y026597D01*
X020241Y026577D01*
X020277Y026560D01*
X020314Y026547D01*
X020352Y026538D01*
X020391Y026532D01*
X020430Y026530D01*
X020469Y026532D01*
X020508Y026538D01*
X020546Y026547D01*
X020583Y026560D01*
X020619Y026577D01*
X020652Y026597D01*
X020684Y026621D01*
X020713Y026647D01*
X020739Y026676D01*
X020763Y026708D01*
X020783Y026741D01*
X020800Y026777D01*
X020813Y026814D01*
X020822Y026852D01*
X020828Y026891D01*
X020830Y026930D01*
X021580Y026930D01*
X021580Y022930D01*
X019280Y022180D02*
X019280Y021680D01*
X019278Y021654D01*
X019273Y021628D01*
X019265Y021603D01*
X019253Y021580D01*
X019239Y021558D01*
X019221Y021539D01*
X019202Y021521D01*
X019180Y021507D01*
X019157Y021495D01*
X019132Y021487D01*
X019106Y021482D01*
X019080Y021480D01*
X017780Y021480D01*
X017754Y021482D01*
X017728Y021487D01*
X017703Y021495D01*
X017680Y021507D01*
X017658Y021521D01*
X017639Y021539D01*
X017621Y021558D01*
X017607Y021580D01*
X017595Y021603D01*
X017587Y021628D01*
X017582Y021654D01*
X017580Y021680D01*
X017580Y022180D01*
X017582Y022206D01*
X017587Y022232D01*
X017595Y022257D01*
X017607Y022280D01*
X017621Y022302D01*
X017639Y022321D01*
X017658Y022339D01*
X017680Y022353D01*
X017703Y022365D01*
X017728Y022373D01*
X017754Y022378D01*
X017780Y022380D01*
X019080Y022380D01*
X019106Y022378D01*
X019132Y022373D01*
X019157Y022365D01*
X019180Y022353D01*
X019202Y022339D01*
X019221Y022321D01*
X019239Y022302D01*
X019253Y022280D01*
X019265Y022257D01*
X019273Y022232D01*
X019278Y022206D01*
X019280Y022180D01*
X019580Y021180D02*
X018830Y021180D01*
X018828Y021141D01*
X018822Y021102D01*
X018813Y021064D01*
X018800Y021027D01*
X018783Y020991D01*
X018763Y020958D01*
X018739Y020926D01*
X018713Y020897D01*
X018684Y020871D01*
X018652Y020847D01*
X018619Y020827D01*
X018583Y020810D01*
X018546Y020797D01*
X018508Y020788D01*
X018469Y020782D01*
X018430Y020780D01*
X018391Y020782D01*
X018352Y020788D01*
X018314Y020797D01*
X018277Y020810D01*
X018241Y020827D01*
X018208Y020847D01*
X018176Y020871D01*
X018147Y020897D01*
X018121Y020926D01*
X018097Y020958D01*
X018077Y020991D01*
X018060Y021027D01*
X018047Y021064D01*
X018038Y021102D01*
X018032Y021141D01*
X018030Y021180D01*
X017280Y021180D01*
X017280Y017180D01*
X019580Y017180D01*
X019580Y021180D01*
X017080Y023130D02*
X017080Y031730D01*
X017078Y031756D01*
X017073Y031782D01*
X017065Y031807D01*
X017053Y031830D01*
X017039Y031852D01*
X017021Y031871D01*
X017002Y031889D01*
X016980Y031903D01*
X016957Y031915D01*
X016932Y031923D01*
X016906Y031928D01*
X016880Y031930D01*
X016480Y031930D01*
X016454Y031928D01*
X016428Y031923D01*
X016403Y031915D01*
X016380Y031903D01*
X016358Y031889D01*
X016339Y031871D01*
X016321Y031852D01*
X016307Y031830D01*
X016295Y031807D01*
X016287Y031782D01*
X016282Y031756D01*
X016280Y031730D01*
X016280Y023130D01*
X016330Y023080D02*
X016330Y023780D01*
X017030Y023780D01*
X017030Y023080D01*
X016330Y023080D01*
X016280Y023130D02*
X016282Y023104D01*
X016287Y023078D01*
X016295Y023053D01*
X016307Y023030D01*
X016321Y023008D01*
X016339Y022989D01*
X016358Y022971D01*
X016380Y022957D01*
X016403Y022945D01*
X016428Y022937D01*
X016454Y022932D01*
X016480Y022930D01*
X016880Y022930D01*
X016906Y022932D01*
X016932Y022937D01*
X016957Y022945D01*
X016980Y022957D01*
X017002Y022971D01*
X017021Y022989D01*
X017039Y023008D01*
X017053Y023030D01*
X017065Y023053D01*
X017073Y023078D01*
X017078Y023104D01*
X017080Y023130D01*
X014330Y022930D02*
X012030Y022930D01*
X012030Y031930D01*
X012780Y031930D01*
X012530Y032230D02*
X013830Y032230D01*
X013856Y032232D01*
X013882Y032237D01*
X013907Y032245D01*
X013930Y032257D01*
X013952Y032271D01*
X013971Y032289D01*
X013989Y032308D01*
X014003Y032330D01*
X014015Y032353D01*
X014023Y032378D01*
X014028Y032404D01*
X014030Y032430D01*
X014030Y032930D01*
X014028Y032956D01*
X014023Y032982D01*
X014015Y033007D01*
X014003Y033030D01*
X013989Y033052D01*
X013971Y033071D01*
X013952Y033089D01*
X013930Y033103D01*
X013907Y033115D01*
X013882Y033123D01*
X013856Y033128D01*
X013830Y033130D01*
X012530Y033130D01*
X012504Y033128D01*
X012478Y033123D01*
X012453Y033115D01*
X012430Y033103D01*
X012408Y033089D01*
X012389Y033071D01*
X012371Y033052D01*
X012357Y033030D01*
X012345Y033007D01*
X012337Y032982D01*
X012332Y032956D01*
X012330Y032930D01*
X012330Y032430D01*
X012332Y032404D01*
X012337Y032378D01*
X012345Y032353D01*
X012357Y032330D01*
X012371Y032308D01*
X012389Y032289D01*
X012408Y032271D01*
X012430Y032257D01*
X012453Y032245D01*
X012478Y032237D01*
X012504Y032232D01*
X012530Y032230D01*
X012780Y031930D02*
X012782Y031891D01*
X012788Y031852D01*
X012797Y031814D01*
X012810Y031777D01*
X012827Y031741D01*
X012847Y031708D01*
X012871Y031676D01*
X012897Y031647D01*
X012926Y031621D01*
X012958Y031597D01*
X012991Y031577D01*
X013027Y031560D01*
X013064Y031547D01*
X013102Y031538D01*
X013141Y031532D01*
X013180Y031530D01*
X013219Y031532D01*
X013258Y031538D01*
X013296Y031547D01*
X013333Y031560D01*
X013369Y031577D01*
X013402Y031597D01*
X013434Y031621D01*
X013463Y031647D01*
X013489Y031676D01*
X013513Y031708D01*
X013533Y031741D01*
X013550Y031777D01*
X013563Y031814D01*
X013572Y031852D01*
X013578Y031891D01*
X013580Y031930D01*
X014330Y031930D01*
X014330Y022930D01*
X013830Y022630D02*
X012530Y022630D01*
X012504Y022628D01*
X012478Y022623D01*
X012453Y022615D01*
X012430Y022603D01*
X012408Y022589D01*
X012389Y022571D01*
X012371Y022552D01*
X012357Y022530D01*
X012345Y022507D01*
X012337Y022482D01*
X012332Y022456D01*
X012330Y022430D01*
X012330Y021930D01*
X012332Y021904D01*
X012337Y021878D01*
X012345Y021853D01*
X012357Y021830D01*
X012371Y021808D01*
X012389Y021789D01*
X012408Y021771D01*
X012430Y021757D01*
X012453Y021745D01*
X012478Y021737D01*
X012504Y021732D01*
X012530Y021730D01*
X013830Y021730D01*
X013856Y021732D01*
X013882Y021737D01*
X013907Y021745D01*
X013930Y021757D01*
X013952Y021771D01*
X013971Y021789D01*
X013989Y021808D01*
X014003Y021830D01*
X014015Y021853D01*
X014023Y021878D01*
X014028Y021904D01*
X014030Y021930D01*
X014030Y022430D01*
X014028Y022456D01*
X014023Y022482D01*
X014015Y022507D01*
X014003Y022530D01*
X013989Y022552D01*
X013971Y022571D01*
X013952Y022589D01*
X013930Y022603D01*
X013907Y022615D01*
X013882Y022623D01*
X013856Y022628D01*
X013830Y022630D01*
X014330Y020430D02*
X012030Y020430D01*
X012030Y018430D01*
X012780Y018430D01*
X012782Y018469D01*
X012788Y018508D01*
X012797Y018546D01*
X012810Y018583D01*
X012827Y018619D01*
X012847Y018652D01*
X012871Y018684D01*
X012897Y018713D01*
X012926Y018739D01*
X012958Y018763D01*
X012991Y018783D01*
X013027Y018800D01*
X013064Y018813D01*
X013102Y018822D01*
X013141Y018828D01*
X013180Y018830D01*
X013219Y018828D01*
X013258Y018822D01*
X013296Y018813D01*
X013333Y018800D01*
X013369Y018783D01*
X013402Y018763D01*
X013434Y018739D01*
X013463Y018713D01*
X013489Y018684D01*
X013513Y018652D01*
X013533Y018619D01*
X013550Y018583D01*
X013563Y018546D01*
X013572Y018508D01*
X013578Y018469D01*
X013580Y018430D01*
X014330Y018430D01*
X014330Y020430D01*
X014330Y018430D02*
X012030Y018430D01*
X012030Y016430D01*
X012780Y016430D01*
X012782Y016469D01*
X012788Y016508D01*
X012797Y016546D01*
X012810Y016583D01*
X012827Y016619D01*
X012847Y016652D01*
X012871Y016684D01*
X012897Y016713D01*
X012926Y016739D01*
X012958Y016763D01*
X012991Y016783D01*
X013027Y016800D01*
X013064Y016813D01*
X013102Y016822D01*
X013141Y016828D01*
X013180Y016830D01*
X013219Y016828D01*
X013258Y016822D01*
X013296Y016813D01*
X013333Y016800D01*
X013369Y016783D01*
X013402Y016763D01*
X013434Y016739D01*
X013463Y016713D01*
X013489Y016684D01*
X013513Y016652D01*
X013533Y016619D01*
X013550Y016583D01*
X013563Y016546D01*
X013572Y016508D01*
X013578Y016469D01*
X013580Y016430D01*
X014330Y016430D01*
X014330Y018430D01*
X014330Y016430D02*
X012030Y016430D01*
X012030Y014430D01*
X012780Y014430D01*
X012782Y014469D01*
X012788Y014508D01*
X012797Y014546D01*
X012810Y014583D01*
X012827Y014619D01*
X012847Y014652D01*
X012871Y014684D01*
X012897Y014713D01*
X012926Y014739D01*
X012958Y014763D01*
X012991Y014783D01*
X013027Y014800D01*
X013064Y014813D01*
X013102Y014822D01*
X013141Y014828D01*
X013180Y014830D01*
X013219Y014828D01*
X013258Y014822D01*
X013296Y014813D01*
X013333Y014800D01*
X013369Y014783D01*
X013402Y014763D01*
X013434Y014739D01*
X013463Y014713D01*
X013489Y014684D01*
X013513Y014652D01*
X013533Y014619D01*
X013550Y014583D01*
X013563Y014546D01*
X013572Y014508D01*
X013578Y014469D01*
X013580Y014430D01*
X014330Y014430D01*
X014330Y016430D01*
X014330Y014430D02*
X012030Y014430D01*
X012030Y012430D01*
X012780Y012430D01*
X012782Y012469D01*
X012788Y012508D01*
X012797Y012546D01*
X012810Y012583D01*
X012827Y012619D01*
X012847Y012652D01*
X012871Y012684D01*
X012897Y012713D01*
X012926Y012739D01*
X012958Y012763D01*
X012991Y012783D01*
X013027Y012800D01*
X013064Y012813D01*
X013102Y012822D01*
X013141Y012828D01*
X013180Y012830D01*
X013219Y012828D01*
X013258Y012822D01*
X013296Y012813D01*
X013333Y012800D01*
X013369Y012783D01*
X013402Y012763D01*
X013434Y012739D01*
X013463Y012713D01*
X013489Y012684D01*
X013513Y012652D01*
X013533Y012619D01*
X013550Y012583D01*
X013563Y012546D01*
X013572Y012508D01*
X013578Y012469D01*
X013580Y012430D01*
X014330Y012430D01*
X014330Y014430D01*
X014330Y012430D02*
X012030Y012430D01*
X012030Y010430D01*
X012780Y010430D01*
X012782Y010469D01*
X012788Y010508D01*
X012797Y010546D01*
X012810Y010583D01*
X012827Y010619D01*
X012847Y010652D01*
X012871Y010684D01*
X012897Y010713D01*
X012926Y010739D01*
X012958Y010763D01*
X012991Y010783D01*
X013027Y010800D01*
X013064Y010813D01*
X013102Y010822D01*
X013141Y010828D01*
X013180Y010830D01*
X013219Y010828D01*
X013258Y010822D01*
X013296Y010813D01*
X013333Y010800D01*
X013369Y010783D01*
X013402Y010763D01*
X013434Y010739D01*
X013463Y010713D01*
X013489Y010684D01*
X013513Y010652D01*
X013533Y010619D01*
X013550Y010583D01*
X013563Y010546D01*
X013572Y010508D01*
X013578Y010469D01*
X013580Y010430D01*
X014330Y010430D01*
X014330Y012430D01*
X014330Y010430D02*
X012030Y010430D01*
X012030Y008430D01*
X012780Y008430D01*
X012782Y008469D01*
X012788Y008508D01*
X012797Y008546D01*
X012810Y008583D01*
X012827Y008619D01*
X012847Y008652D01*
X012871Y008684D01*
X012897Y008713D01*
X012926Y008739D01*
X012958Y008763D01*
X012991Y008783D01*
X013027Y008800D01*
X013064Y008813D01*
X013102Y008822D01*
X013141Y008828D01*
X013180Y008830D01*
X013219Y008828D01*
X013258Y008822D01*
X013296Y008813D01*
X013333Y008800D01*
X013369Y008783D01*
X013402Y008763D01*
X013434Y008739D01*
X013463Y008713D01*
X013489Y008684D01*
X013513Y008652D01*
X013533Y008619D01*
X013550Y008583D01*
X013563Y008546D01*
X013572Y008508D01*
X013578Y008469D01*
X013580Y008430D01*
X014330Y008430D01*
X014330Y010430D01*
X014330Y008430D02*
X012030Y008430D01*
X012030Y006430D01*
X012780Y006430D01*
X012782Y006469D01*
X012788Y006508D01*
X012797Y006546D01*
X012810Y006583D01*
X012827Y006619D01*
X012847Y006652D01*
X012871Y006684D01*
X012897Y006713D01*
X012926Y006739D01*
X012958Y006763D01*
X012991Y006783D01*
X013027Y006800D01*
X013064Y006813D01*
X013102Y006822D01*
X013141Y006828D01*
X013180Y006830D01*
X013219Y006828D01*
X013258Y006822D01*
X013296Y006813D01*
X013333Y006800D01*
X013369Y006783D01*
X013402Y006763D01*
X013434Y006739D01*
X013463Y006713D01*
X013489Y006684D01*
X013513Y006652D01*
X013533Y006619D01*
X013550Y006583D01*
X013563Y006546D01*
X013572Y006508D01*
X013578Y006469D01*
X013580Y006430D01*
X014330Y006430D01*
X014330Y008430D01*
X014330Y006430D02*
X012030Y006430D01*
X012030Y004430D01*
X012780Y004430D01*
X012782Y004469D01*
X012788Y004508D01*
X012797Y004546D01*
X012810Y004583D01*
X012827Y004619D01*
X012847Y004652D01*
X012871Y004684D01*
X012897Y004713D01*
X012926Y004739D01*
X012958Y004763D01*
X012991Y004783D01*
X013027Y004800D01*
X013064Y004813D01*
X013102Y004822D01*
X013141Y004828D01*
X013180Y004830D01*
X013219Y004828D01*
X013258Y004822D01*
X013296Y004813D01*
X013333Y004800D01*
X013369Y004783D01*
X013402Y004763D01*
X013434Y004739D01*
X013463Y004713D01*
X013489Y004684D01*
X013513Y004652D01*
X013533Y004619D01*
X013550Y004583D01*
X013563Y004546D01*
X013572Y004508D01*
X013578Y004469D01*
X013580Y004430D01*
X014330Y004430D01*
X014330Y006430D01*
X017080Y006280D02*
X017080Y005580D01*
X017780Y005580D01*
X017780Y006280D01*
X017080Y006280D01*
X017030Y005630D02*
X017030Y014230D01*
X017032Y014256D01*
X017037Y014282D01*
X017045Y014307D01*
X017057Y014330D01*
X017071Y014352D01*
X017089Y014371D01*
X017108Y014389D01*
X017130Y014403D01*
X017153Y014415D01*
X017178Y014423D01*
X017204Y014428D01*
X017230Y014430D01*
X017630Y014430D01*
X017656Y014428D01*
X017682Y014423D01*
X017707Y014415D01*
X017730Y014403D01*
X017752Y014389D01*
X017771Y014371D01*
X017789Y014352D01*
X017803Y014330D01*
X017815Y014307D01*
X017823Y014282D01*
X017828Y014256D01*
X017830Y014230D01*
X017830Y005630D01*
X017828Y005604D01*
X017823Y005578D01*
X017815Y005553D01*
X017803Y005530D01*
X017789Y005508D01*
X017771Y005489D01*
X017752Y005471D01*
X017730Y005457D01*
X017707Y005445D01*
X017682Y005437D01*
X017656Y005432D01*
X017630Y005430D01*
X017230Y005430D01*
X017204Y005432D01*
X017178Y005437D01*
X017153Y005445D01*
X017130Y005457D01*
X017108Y005471D01*
X017089Y005489D01*
X017071Y005508D01*
X017057Y005530D01*
X017045Y005553D01*
X017037Y005578D01*
X017032Y005604D01*
X017030Y005630D01*
X019480Y006030D02*
X019480Y007330D01*
X019482Y007356D01*
X019487Y007382D01*
X019495Y007407D01*
X019507Y007430D01*
X019521Y007452D01*
X019539Y007471D01*
X019558Y007489D01*
X019580Y007503D01*
X019603Y007515D01*
X019628Y007523D01*
X019654Y007528D01*
X019680Y007530D01*
X020180Y007530D01*
X020206Y007528D01*
X020232Y007523D01*
X020257Y007515D01*
X020280Y007503D01*
X020302Y007489D01*
X020321Y007471D01*
X020339Y007452D01*
X020353Y007430D01*
X020365Y007407D01*
X020373Y007382D01*
X020378Y007356D01*
X020380Y007330D01*
X020380Y006030D01*
X020378Y006004D01*
X020373Y005978D01*
X020365Y005953D01*
X020353Y005930D01*
X020339Y005908D01*
X020321Y005889D01*
X020302Y005871D01*
X020280Y005857D01*
X020257Y005845D01*
X020232Y005837D01*
X020206Y005832D01*
X020180Y005830D01*
X019680Y005830D01*
X019654Y005832D01*
X019628Y005837D01*
X019603Y005845D01*
X019580Y005857D01*
X019558Y005871D01*
X019539Y005889D01*
X019521Y005908D01*
X019507Y005930D01*
X019495Y005953D01*
X019487Y005978D01*
X019482Y006004D01*
X019480Y006030D01*
X020680Y006280D02*
X020680Y005530D01*
X027680Y005530D01*
X027680Y007830D01*
X020680Y007830D01*
X020680Y007080D01*
X020719Y007078D01*
X020758Y007072D01*
X020796Y007063D01*
X020833Y007050D01*
X020869Y007033D01*
X020902Y007013D01*
X020934Y006989D01*
X020963Y006963D01*
X020989Y006934D01*
X021013Y006902D01*
X021033Y006869D01*
X021050Y006833D01*
X021063Y006796D01*
X021072Y006758D01*
X021078Y006719D01*
X021080Y006680D01*
X021078Y006641D01*
X021072Y006602D01*
X021063Y006564D01*
X021050Y006527D01*
X021033Y006491D01*
X021013Y006458D01*
X020989Y006426D01*
X020963Y006397D01*
X020934Y006371D01*
X020902Y006347D01*
X020869Y006327D01*
X020833Y006310D01*
X020796Y006297D01*
X020758Y006288D01*
X020719Y006282D01*
X020680Y006280D01*
X020530Y003180D02*
X022830Y003180D01*
X022830Y001180D01*
X022080Y001180D01*
X022078Y001219D01*
X022072Y001258D01*
X022063Y001296D01*
X022050Y001333D01*
X022033Y001369D01*
X022013Y001402D01*
X021989Y001434D01*
X021963Y001463D01*
X021934Y001489D01*
X021902Y001513D01*
X021869Y001533D01*
X021833Y001550D01*
X021796Y001563D01*
X021758Y001572D01*
X021719Y001578D01*
X021680Y001580D01*
X021641Y001578D01*
X021602Y001572D01*
X021564Y001563D01*
X021527Y001550D01*
X021491Y001533D01*
X021458Y001513D01*
X021426Y001489D01*
X021397Y001463D01*
X021371Y001434D01*
X021347Y001402D01*
X021327Y001369D01*
X021310Y001333D01*
X021297Y001296D01*
X021288Y001258D01*
X021282Y001219D01*
X021280Y001180D01*
X020530Y001180D01*
X020530Y003180D01*
X017080Y002180D02*
X017082Y002246D01*
X017088Y002311D01*
X017098Y002376D01*
X017111Y002441D01*
X017129Y002504D01*
X017150Y002567D01*
X017175Y002627D01*
X017204Y002687D01*
X017236Y002744D01*
X017271Y002800D01*
X017310Y002853D01*
X017352Y002904D01*
X017396Y002952D01*
X017444Y002997D01*
X017494Y003040D01*
X017547Y003079D01*
X017602Y003116D01*
X017659Y003149D01*
X017718Y003178D01*
X017778Y003204D01*
X017840Y003226D01*
X017903Y003245D01*
X017967Y003259D01*
X018032Y003270D01*
X018098Y003277D01*
X018164Y003280D01*
X018229Y003279D01*
X018295Y003274D01*
X018360Y003265D01*
X018425Y003252D01*
X018488Y003236D01*
X018551Y003216D01*
X018612Y003191D01*
X018672Y003164D01*
X018730Y003133D01*
X018786Y003098D01*
X018840Y003060D01*
X018891Y003019D01*
X018940Y002975D01*
X018986Y002928D01*
X019030Y002879D01*
X019070Y002827D01*
X019107Y002772D01*
X019141Y002716D01*
X019171Y002657D01*
X019198Y002597D01*
X019221Y002536D01*
X019240Y002473D01*
X019256Y002409D01*
X019268Y002344D01*
X019276Y002279D01*
X019280Y002213D01*
X019280Y002147D01*
X019276Y002081D01*
X019268Y002016D01*
X019256Y001951D01*
X019240Y001887D01*
X019221Y001824D01*
X019198Y001763D01*
X019171Y001703D01*
X019141Y001644D01*
X019107Y001588D01*
X019070Y001533D01*
X019030Y001481D01*
X018986Y001432D01*
X018940Y001385D01*
X018891Y001341D01*
X018840Y001300D01*
X018786Y001262D01*
X018730Y001227D01*
X018672Y001196D01*
X018612Y001169D01*
X018551Y001144D01*
X018488Y001124D01*
X018425Y001108D01*
X018360Y001095D01*
X018295Y001086D01*
X018229Y001081D01*
X018164Y001080D01*
X018098Y001083D01*
X018032Y001090D01*
X017967Y001101D01*
X017903Y001115D01*
X017840Y001134D01*
X017778Y001156D01*
X017718Y001182D01*
X017659Y001211D01*
X017602Y001244D01*
X017547Y001281D01*
X017494Y001320D01*
X017444Y001363D01*
X017396Y001408D01*
X017352Y001456D01*
X017310Y001507D01*
X017271Y001560D01*
X017236Y001616D01*
X017204Y001673D01*
X017175Y001733D01*
X017150Y001793D01*
X017129Y001856D01*
X017111Y001919D01*
X017098Y001984D01*
X017088Y002049D01*
X017082Y002114D01*
X017080Y002180D01*
X017680Y001680D02*
X017680Y001530D01*
X017530Y001530D01*
X017680Y001530D02*
X017830Y001530D01*
X017680Y001530D02*
X017680Y001380D01*
X013430Y001580D02*
X013430Y002280D01*
X013428Y002297D01*
X013424Y002314D01*
X013417Y002330D01*
X013407Y002344D01*
X013394Y002357D01*
X013380Y002367D01*
X013364Y002374D01*
X013347Y002378D01*
X013330Y002380D01*
X013180Y002380D01*
X013130Y002330D01*
X011230Y002330D01*
X011180Y002380D01*
X011030Y002380D01*
X011013Y002378D01*
X010996Y002374D01*
X010980Y002367D01*
X010966Y002357D01*
X010953Y002344D01*
X010943Y002330D01*
X010936Y002314D01*
X010932Y002297D01*
X010930Y002280D01*
X010930Y001580D01*
X010932Y001563D01*
X010936Y001546D01*
X010943Y001530D01*
X010953Y001516D01*
X010966Y001503D01*
X010980Y001493D01*
X010996Y001486D01*
X011013Y001482D01*
X011030Y001480D01*
X011180Y001480D01*
X011230Y001530D01*
X013130Y001530D01*
X013180Y001480D01*
X013330Y001480D01*
X013347Y001482D01*
X013364Y001486D01*
X013380Y001493D01*
X013394Y001503D01*
X013407Y001516D01*
X013417Y001530D01*
X013424Y001546D01*
X013428Y001563D01*
X013430Y001580D01*
X013330Y002480D02*
X013180Y002480D01*
X013130Y002530D01*
X011230Y002530D01*
X011180Y002480D01*
X011030Y002480D01*
X011013Y002482D01*
X010996Y002486D01*
X010980Y002493D01*
X010966Y002503D01*
X010953Y002516D01*
X010943Y002530D01*
X010936Y002546D01*
X010932Y002563D01*
X010930Y002580D01*
X010930Y003280D01*
X010932Y003297D01*
X010936Y003314D01*
X010943Y003330D01*
X010953Y003344D01*
X010966Y003357D01*
X010980Y003367D01*
X010996Y003374D01*
X011013Y003378D01*
X011030Y003380D01*
X011180Y003380D01*
X011230Y003330D01*
X013130Y003330D01*
X013180Y003380D01*
X013330Y003380D01*
X013347Y003378D01*
X013364Y003374D01*
X013380Y003367D01*
X013394Y003357D01*
X013407Y003344D01*
X013417Y003330D01*
X013424Y003314D01*
X013428Y003297D01*
X013430Y003280D01*
X013430Y002580D01*
X013428Y002563D01*
X013424Y002546D01*
X013417Y002530D01*
X013407Y002516D01*
X013394Y002503D01*
X013380Y002493D01*
X013364Y002486D01*
X013347Y002482D01*
X013330Y002480D01*
X009830Y005880D02*
X009830Y014480D01*
X009828Y014506D01*
X009823Y014532D01*
X009815Y014557D01*
X009803Y014580D01*
X009789Y014602D01*
X009771Y014621D01*
X009752Y014639D01*
X009730Y014653D01*
X009707Y014665D01*
X009682Y014673D01*
X009656Y014678D01*
X009630Y014680D01*
X009230Y014680D01*
X009204Y014678D01*
X009178Y014673D01*
X009153Y014665D01*
X009130Y014653D01*
X009108Y014639D01*
X009089Y014621D01*
X009071Y014602D01*
X009057Y014580D01*
X009045Y014557D01*
X009037Y014532D01*
X009032Y014506D01*
X009030Y014480D01*
X009030Y005880D01*
X009080Y005830D02*
X009080Y006530D01*
X009780Y006530D01*
X009780Y005830D01*
X009080Y005830D01*
X009030Y005880D02*
X009032Y005854D01*
X009037Y005828D01*
X009045Y005803D01*
X009057Y005780D01*
X009071Y005758D01*
X009089Y005739D01*
X009108Y005721D01*
X009130Y005707D01*
X009153Y005695D01*
X009178Y005687D01*
X009204Y005682D01*
X009230Y005680D01*
X009630Y005680D01*
X009656Y005682D01*
X009682Y005687D01*
X009707Y005695D01*
X009730Y005707D01*
X009752Y005721D01*
X009771Y005739D01*
X009789Y005758D01*
X009803Y005780D01*
X009815Y005803D01*
X009823Y005828D01*
X009828Y005854D01*
X009830Y005880D01*
X008680Y005030D02*
X008680Y004330D01*
X008678Y004313D01*
X008674Y004296D01*
X008667Y004280D01*
X008657Y004266D01*
X008644Y004253D01*
X008630Y004243D01*
X008614Y004236D01*
X008597Y004232D01*
X008580Y004230D01*
X008430Y004230D01*
X008380Y004280D01*
X006480Y004280D01*
X006430Y004230D01*
X006280Y004230D01*
X006263Y004232D01*
X006246Y004236D01*
X006230Y004243D01*
X006216Y004253D01*
X006203Y004266D01*
X006193Y004280D01*
X006186Y004296D01*
X006182Y004313D01*
X006180Y004330D01*
X006180Y005030D01*
X006182Y005047D01*
X006186Y005064D01*
X006193Y005080D01*
X006203Y005094D01*
X006216Y005107D01*
X006230Y005117D01*
X006246Y005124D01*
X006263Y005128D01*
X006280Y005130D01*
X006430Y005130D01*
X006480Y005080D01*
X008380Y005080D01*
X008430Y005130D01*
X008580Y005130D01*
X008597Y005128D01*
X008614Y005124D01*
X008630Y005117D01*
X008644Y005107D01*
X008657Y005094D01*
X008667Y005080D01*
X008674Y005064D01*
X008678Y005047D01*
X008680Y005030D01*
X005780Y006180D02*
X005580Y006180D01*
X005680Y006280D02*
X005680Y006080D01*
X005480Y006030D02*
X005480Y006430D01*
X005480Y006830D01*
X005280Y006830D01*
X005280Y006030D01*
X005480Y006030D01*
X005480Y006430D02*
X005730Y006430D01*
X006310Y006964D02*
X006279Y007026D01*
X006244Y007085D01*
X006207Y007143D01*
X006166Y007198D01*
X006122Y007252D01*
X006075Y007302D01*
X006026Y007350D01*
X005974Y007395D01*
X005920Y007438D01*
X005863Y007477D01*
X005805Y007513D01*
X005744Y007546D01*
X005682Y007575D01*
X005618Y007601D01*
X005553Y007623D01*
X005487Y007642D01*
X005419Y007657D01*
X005352Y007668D01*
X005283Y007676D01*
X005214Y007680D01*
X005146Y007680D01*
X005077Y007676D01*
X005008Y007668D01*
X004941Y007657D01*
X004873Y007642D01*
X004807Y007623D01*
X004742Y007601D01*
X004678Y007575D01*
X004616Y007546D01*
X004555Y007513D01*
X004497Y007477D01*
X004440Y007438D01*
X004386Y007395D01*
X004334Y007350D01*
X004285Y007302D01*
X004238Y007252D01*
X004194Y007198D01*
X004153Y007143D01*
X004116Y007085D01*
X004081Y007026D01*
X004050Y006964D01*
X004630Y006430D02*
X004930Y006430D01*
X004050Y005896D02*
X004081Y005834D01*
X004116Y005775D01*
X004153Y005717D01*
X004194Y005662D01*
X004238Y005608D01*
X004285Y005558D01*
X004334Y005510D01*
X004386Y005465D01*
X004440Y005422D01*
X004497Y005383D01*
X004555Y005347D01*
X004616Y005314D01*
X004678Y005285D01*
X004742Y005259D01*
X004807Y005237D01*
X004873Y005218D01*
X004941Y005203D01*
X005008Y005192D01*
X005077Y005184D01*
X005146Y005180D01*
X005214Y005180D01*
X005283Y005184D01*
X005352Y005192D01*
X005419Y005203D01*
X005487Y005218D01*
X005553Y005237D01*
X005618Y005259D01*
X005682Y005285D01*
X005744Y005314D01*
X005805Y005347D01*
X005863Y005383D01*
X005920Y005422D01*
X005974Y005465D01*
X006026Y005510D01*
X006075Y005558D01*
X006122Y005608D01*
X006166Y005662D01*
X006207Y005717D01*
X006244Y005775D01*
X006279Y005834D01*
X006310Y005896D01*
X005330Y008230D02*
X005180Y008230D01*
X005130Y008280D01*
X003230Y008280D01*
X003180Y008230D01*
X003030Y008230D01*
X003013Y008232D01*
X002996Y008236D01*
X002980Y008243D01*
X002966Y008253D01*
X002953Y008266D01*
X002943Y008280D01*
X002936Y008296D01*
X002932Y008313D01*
X002930Y008330D01*
X002930Y009030D01*
X002932Y009047D01*
X002936Y009064D01*
X002943Y009080D01*
X002953Y009094D01*
X002966Y009107D01*
X002980Y009117D01*
X002996Y009124D01*
X003013Y009128D01*
X003030Y009130D01*
X003180Y009130D01*
X003230Y009080D01*
X005130Y009080D01*
X005180Y009130D01*
X005330Y009130D01*
X005347Y009128D01*
X005364Y009124D01*
X005380Y009117D01*
X005394Y009107D01*
X005407Y009094D01*
X005417Y009080D01*
X005424Y009064D01*
X005428Y009047D01*
X005430Y009030D01*
X005430Y008330D01*
X005428Y008313D01*
X005424Y008296D01*
X005417Y008280D01*
X005407Y008266D01*
X005394Y008253D01*
X005380Y008243D01*
X005364Y008236D01*
X005347Y008232D01*
X005330Y008230D01*
X004180Y009480D02*
X000230Y009480D01*
X000230Y010430D01*
X000230Y011480D01*
X000180Y011830D02*
X004230Y011830D01*
X004430Y011630D01*
X004430Y009730D01*
X004180Y009480D01*
X002530Y010670D02*
X002532Y010720D01*
X002538Y010770D01*
X002548Y010820D01*
X002561Y010868D01*
X002578Y010916D01*
X002599Y010962D01*
X002623Y011006D01*
X002651Y011048D01*
X002682Y011088D01*
X002716Y011125D01*
X002753Y011160D01*
X002792Y011191D01*
X002833Y011220D01*
X002877Y011245D01*
X002923Y011267D01*
X002970Y011285D01*
X003018Y011299D01*
X003067Y011310D01*
X003117Y011317D01*
X003167Y011320D01*
X003218Y011319D01*
X003268Y011314D01*
X003318Y011305D01*
X003366Y011293D01*
X003414Y011276D01*
X003460Y011256D01*
X003505Y011233D01*
X003548Y011206D01*
X003588Y011176D01*
X003626Y011143D01*
X003661Y011107D01*
X003694Y011068D01*
X003723Y011027D01*
X003749Y010984D01*
X003772Y010939D01*
X003791Y010892D01*
X003806Y010844D01*
X003818Y010795D01*
X003826Y010745D01*
X003830Y010695D01*
X003830Y010645D01*
X003826Y010595D01*
X003818Y010545D01*
X003806Y010496D01*
X003791Y010448D01*
X003772Y010401D01*
X003749Y010356D01*
X003723Y010313D01*
X003694Y010272D01*
X003661Y010233D01*
X003626Y010197D01*
X003588Y010164D01*
X003548Y010134D01*
X003505Y010107D01*
X003460Y010084D01*
X003414Y010064D01*
X003366Y010047D01*
X003318Y010035D01*
X003268Y010026D01*
X003218Y010021D01*
X003167Y010020D01*
X003117Y010023D01*
X003067Y010030D01*
X003018Y010041D01*
X002970Y010055D01*
X002923Y010073D01*
X002877Y010095D01*
X002833Y010120D01*
X002792Y010149D01*
X002753Y010180D01*
X002716Y010215D01*
X002682Y010252D01*
X002651Y010292D01*
X002623Y010334D01*
X002599Y010378D01*
X002578Y010424D01*
X002561Y010472D01*
X002548Y010520D01*
X002538Y010570D01*
X002532Y010620D01*
X002530Y010670D01*
X000480Y011930D02*
X000480Y027930D01*
X000180Y027930D01*
X000180Y028030D01*
X004230Y028030D01*
X004430Y028230D01*
X004430Y030180D01*
X004230Y030380D01*
X000230Y030380D01*
X000230Y028380D01*
X000180Y028380D01*
X000180Y030380D01*
X000230Y030380D01*
X000180Y028380D02*
X000180Y028030D01*
X000180Y027930D02*
X000180Y011930D01*
X000480Y011930D01*
X000180Y011930D02*
X000180Y011830D01*
X000230Y010430D02*
X000230Y009480D01*
X002280Y006930D02*
X002278Y006885D01*
X002273Y006839D01*
X002265Y006795D01*
X002253Y006751D01*
X002237Y006708D01*
X002219Y006666D01*
X002197Y006626D01*
X002173Y006588D01*
X002146Y006552D01*
X002116Y006517D01*
X002083Y006486D01*
X002048Y006456D01*
X001080Y006930D02*
X001082Y006977D01*
X001088Y007025D01*
X001097Y007071D01*
X001110Y007117D01*
X001126Y007161D01*
X001147Y007205D01*
X001170Y007246D01*
X001196Y007285D01*
X001226Y007322D01*
X001259Y007357D01*
X001294Y007389D01*
X001331Y007418D01*
X001080Y006930D02*
X001082Y006884D01*
X001087Y006838D01*
X001096Y006792D01*
X001108Y006747D01*
X001124Y006704D01*
X001143Y006662D01*
X001166Y006621D01*
X001191Y006582D01*
X001219Y006546D01*
X001250Y006511D01*
X001284Y006479D01*
X001320Y006450D01*
X002280Y006930D02*
X002278Y006975D01*
X002273Y007021D01*
X002265Y007065D01*
X002253Y007109D01*
X002237Y007152D01*
X002219Y007194D01*
X002197Y007234D01*
X002173Y007272D01*
X002146Y007308D01*
X002116Y007343D01*
X002083Y007374D01*
X002048Y007404D01*
X001586Y002936D02*
X001588Y003009D01*
X001594Y003082D01*
X001604Y003154D01*
X001618Y003226D01*
X001635Y003297D01*
X001657Y003367D01*
X001682Y003436D01*
X001711Y003503D01*
X001743Y003568D01*
X001779Y003632D01*
X001819Y003694D01*
X001861Y003753D01*
X001907Y003810D01*
X001956Y003864D01*
X002008Y003916D01*
X002062Y003965D01*
X002119Y004011D01*
X002178Y004053D01*
X002240Y004093D01*
X002304Y004129D01*
X002369Y004161D01*
X002436Y004190D01*
X002505Y004215D01*
X002575Y004237D01*
X002646Y004254D01*
X002718Y004268D01*
X002790Y004278D01*
X002863Y004284D01*
X002936Y004286D01*
X003009Y004284D01*
X003082Y004278D01*
X003154Y004268D01*
X003226Y004254D01*
X003297Y004237D01*
X003367Y004215D01*
X003436Y004190D01*
X003503Y004161D01*
X003568Y004129D01*
X003632Y004093D01*
X003694Y004053D01*
X003753Y004011D01*
X003810Y003965D01*
X003864Y003916D01*
X003916Y003864D01*
X003965Y003810D01*
X004011Y003753D01*
X004053Y003694D01*
X004093Y003632D01*
X004129Y003568D01*
X004161Y003503D01*
X004190Y003436D01*
X004215Y003367D01*
X004237Y003297D01*
X004254Y003226D01*
X004268Y003154D01*
X004278Y003082D01*
X004284Y003009D01*
X004286Y002936D01*
X004284Y002863D01*
X004278Y002790D01*
X004268Y002718D01*
X004254Y002646D01*
X004237Y002575D01*
X004215Y002505D01*
X004190Y002436D01*
X004161Y002369D01*
X004129Y002304D01*
X004093Y002240D01*
X004053Y002178D01*
X004011Y002119D01*
X003965Y002062D01*
X003916Y002008D01*
X003864Y001956D01*
X003810Y001907D01*
X003753Y001861D01*
X003694Y001819D01*
X003632Y001779D01*
X003568Y001743D01*
X003503Y001711D01*
X003436Y001682D01*
X003367Y001657D01*
X003297Y001635D01*
X003226Y001618D01*
X003154Y001604D01*
X003082Y001594D01*
X003009Y001588D01*
X002936Y001586D01*
X002863Y001588D01*
X002790Y001594D01*
X002718Y001604D01*
X002646Y001618D01*
X002575Y001635D01*
X002505Y001657D01*
X002436Y001682D01*
X002369Y001711D01*
X002304Y001743D01*
X002240Y001779D01*
X002178Y001819D01*
X002119Y001861D01*
X002062Y001907D01*
X002008Y001956D01*
X001956Y002008D01*
X001907Y002062D01*
X001861Y002119D01*
X001819Y002178D01*
X001779Y002240D01*
X001743Y002304D01*
X001711Y002369D01*
X001682Y002436D01*
X001657Y002505D01*
X001635Y002575D01*
X001618Y002646D01*
X001604Y002718D01*
X001594Y002790D01*
X001588Y002863D01*
X001586Y002936D01*
X006298Y002456D02*
X006333Y002486D01*
X006366Y002517D01*
X006396Y002552D01*
X006423Y002588D01*
X006447Y002626D01*
X006469Y002666D01*
X006487Y002708D01*
X006503Y002751D01*
X006515Y002795D01*
X006523Y002839D01*
X006528Y002885D01*
X006530Y002930D01*
X005570Y002450D02*
X005534Y002479D01*
X005500Y002511D01*
X005469Y002546D01*
X005441Y002582D01*
X005416Y002621D01*
X005393Y002662D01*
X005374Y002704D01*
X005358Y002747D01*
X005346Y002792D01*
X005337Y002838D01*
X005332Y002884D01*
X005330Y002930D01*
X006298Y003404D02*
X006333Y003374D01*
X006366Y003343D01*
X006396Y003308D01*
X006423Y003272D01*
X006447Y003234D01*
X006469Y003194D01*
X006487Y003152D01*
X006503Y003109D01*
X006515Y003065D01*
X006523Y003021D01*
X006528Y002975D01*
X006530Y002930D01*
X005581Y003418D02*
X005544Y003389D01*
X005509Y003357D01*
X005476Y003322D01*
X005446Y003285D01*
X005420Y003246D01*
X005397Y003205D01*
X005376Y003161D01*
X005360Y003117D01*
X005347Y003071D01*
X005338Y003025D01*
X005332Y002977D01*
X005330Y002930D01*
X004680Y011930D02*
X008180Y011930D01*
X008180Y012430D01*
X008280Y012430D01*
X008280Y012930D01*
X008180Y012930D01*
X008180Y019680D01*
X008280Y019680D01*
X008280Y020180D01*
X008180Y020180D01*
X008180Y026930D01*
X008280Y026930D01*
X008280Y027430D01*
X008180Y027430D01*
X008180Y027930D01*
X004680Y027930D01*
X004680Y026230D01*
X004730Y026230D01*
X004730Y025630D01*
X004680Y025630D01*
X004680Y025080D01*
X004880Y024930D01*
X004880Y024730D01*
X004880Y024130D01*
X004880Y023930D01*
X004680Y023780D01*
X004680Y020730D01*
X005080Y020730D01*
X005180Y020730D01*
X005180Y024130D01*
X005180Y024730D01*
X005180Y027430D01*
X007680Y027430D01*
X007680Y012430D01*
X005180Y012430D01*
X005180Y014130D01*
X005180Y014730D01*
X005180Y019130D01*
X005080Y019130D01*
X004680Y019130D01*
X004680Y020730D01*
X005180Y020730D02*
X005480Y020730D01*
X005480Y019130D01*
X005180Y019130D01*
X004680Y019130D02*
X004680Y015080D01*
X004880Y014930D01*
X004880Y014730D01*
X004880Y014130D01*
X005080Y014130D01*
X005180Y014130D01*
X004880Y014130D02*
X004880Y013930D01*
X004680Y013780D01*
X004680Y011930D01*
X004880Y014730D02*
X005080Y014730D01*
X005180Y014730D01*
X008980Y016030D02*
X008980Y017330D01*
X008982Y017356D01*
X008987Y017382D01*
X008995Y017407D01*
X009007Y017430D01*
X009021Y017452D01*
X009039Y017471D01*
X009058Y017489D01*
X009080Y017503D01*
X009103Y017515D01*
X009128Y017523D01*
X009154Y017528D01*
X009180Y017530D01*
X009680Y017530D01*
X009706Y017528D01*
X009732Y017523D01*
X009757Y017515D01*
X009780Y017503D01*
X009802Y017489D01*
X009821Y017471D01*
X009839Y017452D01*
X009853Y017430D01*
X009865Y017407D01*
X009873Y017382D01*
X009878Y017356D01*
X009880Y017330D01*
X009880Y016030D01*
X009878Y016004D01*
X009873Y015978D01*
X009865Y015953D01*
X009853Y015930D01*
X009839Y015908D01*
X009821Y015889D01*
X009802Y015871D01*
X009780Y015857D01*
X009757Y015845D01*
X009732Y015837D01*
X009706Y015832D01*
X009680Y015830D01*
X009180Y015830D01*
X009154Y015832D01*
X009128Y015837D01*
X009103Y015845D01*
X009080Y015857D01*
X009058Y015871D01*
X009039Y015889D01*
X009021Y015908D01*
X009007Y015930D01*
X008995Y015953D01*
X008987Y015978D01*
X008982Y016004D01*
X008980Y016030D01*
X009180Y018580D02*
X009680Y018580D01*
X009706Y018582D01*
X009732Y018587D01*
X009757Y018595D01*
X009780Y018607D01*
X009802Y018621D01*
X009821Y018639D01*
X009839Y018658D01*
X009853Y018680D01*
X009865Y018703D01*
X009873Y018728D01*
X009878Y018754D01*
X009880Y018780D01*
X009880Y020080D01*
X009878Y020106D01*
X009873Y020132D01*
X009865Y020157D01*
X009853Y020180D01*
X009839Y020202D01*
X009821Y020221D01*
X009802Y020239D01*
X009780Y020253D01*
X009757Y020265D01*
X009732Y020273D01*
X009706Y020278D01*
X009680Y020280D01*
X009180Y020280D01*
X009154Y020278D01*
X009128Y020273D01*
X009103Y020265D01*
X009080Y020253D01*
X009058Y020239D01*
X009039Y020221D01*
X009021Y020202D01*
X009007Y020180D01*
X008995Y020157D01*
X008987Y020132D01*
X008982Y020106D01*
X008980Y020080D01*
X008980Y018780D01*
X008982Y018754D01*
X008987Y018728D01*
X008995Y018703D01*
X009007Y018680D01*
X009021Y018658D01*
X009039Y018639D01*
X009058Y018621D01*
X009080Y018607D01*
X009103Y018595D01*
X009128Y018587D01*
X009154Y018582D01*
X009180Y018580D01*
X009480Y022930D02*
X009880Y022930D01*
X009906Y022932D01*
X009932Y022937D01*
X009957Y022945D01*
X009980Y022957D01*
X010002Y022971D01*
X010021Y022989D01*
X010039Y023008D01*
X010053Y023030D01*
X010065Y023053D01*
X010073Y023078D01*
X010078Y023104D01*
X010080Y023130D01*
X010080Y031730D01*
X010030Y031780D02*
X010030Y031080D01*
X009330Y031080D01*
X009330Y031780D01*
X010030Y031780D01*
X010080Y031730D02*
X010078Y031756D01*
X010073Y031782D01*
X010065Y031807D01*
X010053Y031830D01*
X010039Y031852D01*
X010021Y031871D01*
X010002Y031889D01*
X009980Y031903D01*
X009957Y031915D01*
X009932Y031923D01*
X009906Y031928D01*
X009880Y031930D01*
X009480Y031930D01*
X009454Y031928D01*
X009428Y031923D01*
X009403Y031915D01*
X009380Y031903D01*
X009358Y031889D01*
X009339Y031871D01*
X009321Y031852D01*
X009307Y031830D01*
X009295Y031807D01*
X009287Y031782D01*
X009282Y031756D01*
X009280Y031730D01*
X009280Y023130D01*
X009282Y023104D01*
X009287Y023078D01*
X009295Y023053D01*
X009307Y023030D01*
X009321Y023008D01*
X009339Y022989D01*
X009358Y022971D01*
X009380Y022957D01*
X009403Y022945D01*
X009428Y022937D01*
X009454Y022932D01*
X009480Y022930D01*
X005180Y024130D02*
X005080Y024130D01*
X004880Y024130D01*
X004880Y024730D02*
X005080Y024730D01*
X005180Y024730D01*
X005180Y028830D02*
X005680Y028830D01*
X005706Y028832D01*
X005732Y028837D01*
X005757Y028845D01*
X005780Y028857D01*
X005802Y028871D01*
X005821Y028889D01*
X005839Y028908D01*
X005853Y028930D01*
X005865Y028953D01*
X005873Y028978D01*
X005878Y029004D01*
X005880Y029030D01*
X005880Y030330D01*
X005878Y030356D01*
X005873Y030382D01*
X005865Y030407D01*
X005853Y030430D01*
X005839Y030452D01*
X005821Y030471D01*
X005802Y030489D01*
X005780Y030503D01*
X005757Y030515D01*
X005732Y030523D01*
X005706Y030528D01*
X005680Y030530D01*
X005180Y030530D01*
X005154Y030528D01*
X005128Y030523D01*
X005103Y030515D01*
X005080Y030503D01*
X005058Y030489D01*
X005039Y030471D01*
X005021Y030452D01*
X005007Y030430D01*
X004995Y030407D01*
X004987Y030382D01*
X004982Y030356D01*
X004980Y030330D01*
X004980Y029030D01*
X004982Y029004D01*
X004987Y028978D01*
X004995Y028953D01*
X005007Y028930D01*
X005021Y028908D01*
X005039Y028889D01*
X005058Y028871D01*
X005080Y028857D01*
X005103Y028845D01*
X005128Y028837D01*
X005154Y028832D01*
X005180Y028830D01*
X005180Y030830D02*
X005680Y030830D01*
X005706Y030832D01*
X005732Y030837D01*
X005757Y030845D01*
X005780Y030857D01*
X005802Y030871D01*
X005821Y030889D01*
X005839Y030908D01*
X005853Y030930D01*
X005865Y030953D01*
X005873Y030978D01*
X005878Y031004D01*
X005880Y031030D01*
X005880Y032330D01*
X005878Y032356D01*
X005873Y032382D01*
X005865Y032407D01*
X005853Y032430D01*
X005839Y032452D01*
X005821Y032471D01*
X005802Y032489D01*
X005780Y032503D01*
X005757Y032515D01*
X005732Y032523D01*
X005706Y032528D01*
X005680Y032530D01*
X005180Y032530D01*
X005154Y032528D01*
X005128Y032523D01*
X005103Y032515D01*
X005080Y032503D01*
X005058Y032489D01*
X005039Y032471D01*
X005021Y032452D01*
X005007Y032430D01*
X004995Y032407D01*
X004987Y032382D01*
X004982Y032356D01*
X004980Y032330D01*
X004980Y031030D01*
X004982Y031004D01*
X004987Y030978D01*
X004995Y030953D01*
X005007Y030930D01*
X005021Y030908D01*
X005039Y030889D01*
X005058Y030871D01*
X005080Y030857D01*
X005103Y030845D01*
X005128Y030837D01*
X005154Y030832D01*
X005180Y030830D01*
X002530Y029190D02*
X002532Y029240D01*
X002538Y029290D01*
X002548Y029340D01*
X002561Y029388D01*
X002578Y029436D01*
X002599Y029482D01*
X002623Y029526D01*
X002651Y029568D01*
X002682Y029608D01*
X002716Y029645D01*
X002753Y029680D01*
X002792Y029711D01*
X002833Y029740D01*
X002877Y029765D01*
X002923Y029787D01*
X002970Y029805D01*
X003018Y029819D01*
X003067Y029830D01*
X003117Y029837D01*
X003167Y029840D01*
X003218Y029839D01*
X003268Y029834D01*
X003318Y029825D01*
X003366Y029813D01*
X003414Y029796D01*
X003460Y029776D01*
X003505Y029753D01*
X003548Y029726D01*
X003588Y029696D01*
X003626Y029663D01*
X003661Y029627D01*
X003694Y029588D01*
X003723Y029547D01*
X003749Y029504D01*
X003772Y029459D01*
X003791Y029412D01*
X003806Y029364D01*
X003818Y029315D01*
X003826Y029265D01*
X003830Y029215D01*
X003830Y029165D01*
X003826Y029115D01*
X003818Y029065D01*
X003806Y029016D01*
X003791Y028968D01*
X003772Y028921D01*
X003749Y028876D01*
X003723Y028833D01*
X003694Y028792D01*
X003661Y028753D01*
X003626Y028717D01*
X003588Y028684D01*
X003548Y028654D01*
X003505Y028627D01*
X003460Y028604D01*
X003414Y028584D01*
X003366Y028567D01*
X003318Y028555D01*
X003268Y028546D01*
X003218Y028541D01*
X003167Y028540D01*
X003117Y028543D01*
X003067Y028550D01*
X003018Y028561D01*
X002970Y028575D01*
X002923Y028593D01*
X002877Y028615D01*
X002833Y028640D01*
X002792Y028669D01*
X002753Y028700D01*
X002716Y028735D01*
X002682Y028772D01*
X002651Y028812D01*
X002623Y028854D01*
X002599Y028898D01*
X002578Y028944D01*
X002561Y028992D01*
X002548Y029040D01*
X002538Y029090D01*
X002532Y029140D01*
X002530Y029190D01*
X002230Y031330D02*
X002230Y031630D01*
X002380Y031480D02*
X002080Y031480D01*
X001080Y032680D02*
X001082Y032760D01*
X001088Y032839D01*
X001098Y032918D01*
X001112Y032997D01*
X001129Y033075D01*
X001151Y033152D01*
X001176Y033227D01*
X001206Y033301D01*
X001238Y033374D01*
X001275Y033445D01*
X001315Y033514D01*
X001358Y033581D01*
X001405Y033646D01*
X001454Y033708D01*
X001507Y033768D01*
X001563Y033825D01*
X001621Y033880D01*
X001682Y033931D01*
X001746Y033979D01*
X001812Y034024D01*
X001880Y034066D01*
X001950Y034104D01*
X002022Y034138D01*
X002095Y034169D01*
X002170Y034197D01*
X002247Y034220D01*
X002324Y034240D01*
X002402Y034256D01*
X002481Y034268D01*
X002560Y034276D01*
X002640Y034280D01*
X002720Y034280D01*
X002800Y034276D01*
X002879Y034268D01*
X002958Y034256D01*
X003036Y034240D01*
X003113Y034220D01*
X003190Y034197D01*
X003265Y034169D01*
X003338Y034138D01*
X003410Y034104D01*
X003480Y034066D01*
X003548Y034024D01*
X003614Y033979D01*
X003678Y033931D01*
X003739Y033880D01*
X003797Y033825D01*
X003853Y033768D01*
X003906Y033708D01*
X003955Y033646D01*
X004002Y033581D01*
X004045Y033514D01*
X004085Y033445D01*
X004122Y033374D01*
X004154Y033301D01*
X004184Y033227D01*
X004209Y033152D01*
X004231Y033075D01*
X004248Y032997D01*
X004262Y032918D01*
X004272Y032839D01*
X004278Y032760D01*
X004280Y032680D01*
X004278Y032600D01*
X004272Y032521D01*
X004262Y032442D01*
X004248Y032363D01*
X004231Y032285D01*
X004209Y032208D01*
X004184Y032133D01*
X004154Y032059D01*
X004122Y031986D01*
X004085Y031915D01*
X004045Y031846D01*
X004002Y031779D01*
X003955Y031714D01*
X003906Y031652D01*
X003853Y031592D01*
X003797Y031535D01*
X003739Y031480D01*
X003678Y031429D01*
X003614Y031381D01*
X003548Y031336D01*
X003480Y031294D01*
X003410Y031256D01*
X003338Y031222D01*
X003265Y031191D01*
X003190Y031163D01*
X003113Y031140D01*
X003036Y031120D01*
X002958Y031104D01*
X002879Y031092D01*
X002800Y031084D01*
X002720Y031080D01*
X002640Y031080D01*
X002560Y031084D01*
X002481Y031092D01*
X002402Y031104D01*
X002324Y031120D01*
X002247Y031140D01*
X002170Y031163D01*
X002095Y031191D01*
X002022Y031222D01*
X001950Y031256D01*
X001880Y031294D01*
X001812Y031336D01*
X001746Y031381D01*
X001682Y031429D01*
X001621Y031480D01*
X001563Y031535D01*
X001507Y031592D01*
X001454Y031652D01*
X001405Y031714D01*
X001358Y031779D01*
X001315Y031846D01*
X001275Y031915D01*
X001238Y031986D01*
X001206Y032059D01*
X001176Y032133D01*
X001151Y032208D01*
X001129Y032285D01*
X001112Y032363D01*
X001098Y032442D01*
X001088Y032521D01*
X001082Y032600D01*
X001080Y032680D01*
X001586Y036794D02*
X001588Y036867D01*
X001594Y036940D01*
X001604Y037012D01*
X001618Y037084D01*
X001635Y037155D01*
X001657Y037225D01*
X001682Y037294D01*
X001711Y037361D01*
X001743Y037426D01*
X001779Y037490D01*
X001819Y037552D01*
X001861Y037611D01*
X001907Y037668D01*
X001956Y037722D01*
X002008Y037774D01*
X002062Y037823D01*
X002119Y037869D01*
X002178Y037911D01*
X002240Y037951D01*
X002304Y037987D01*
X002369Y038019D01*
X002436Y038048D01*
X002505Y038073D01*
X002575Y038095D01*
X002646Y038112D01*
X002718Y038126D01*
X002790Y038136D01*
X002863Y038142D01*
X002936Y038144D01*
X003009Y038142D01*
X003082Y038136D01*
X003154Y038126D01*
X003226Y038112D01*
X003297Y038095D01*
X003367Y038073D01*
X003436Y038048D01*
X003503Y038019D01*
X003568Y037987D01*
X003632Y037951D01*
X003694Y037911D01*
X003753Y037869D01*
X003810Y037823D01*
X003864Y037774D01*
X003916Y037722D01*
X003965Y037668D01*
X004011Y037611D01*
X004053Y037552D01*
X004093Y037490D01*
X004129Y037426D01*
X004161Y037361D01*
X004190Y037294D01*
X004215Y037225D01*
X004237Y037155D01*
X004254Y037084D01*
X004268Y037012D01*
X004278Y036940D01*
X004284Y036867D01*
X004286Y036794D01*
X004284Y036721D01*
X004278Y036648D01*
X004268Y036576D01*
X004254Y036504D01*
X004237Y036433D01*
X004215Y036363D01*
X004190Y036294D01*
X004161Y036227D01*
X004129Y036162D01*
X004093Y036098D01*
X004053Y036036D01*
X004011Y035977D01*
X003965Y035920D01*
X003916Y035866D01*
X003864Y035814D01*
X003810Y035765D01*
X003753Y035719D01*
X003694Y035677D01*
X003632Y035637D01*
X003568Y035601D01*
X003503Y035569D01*
X003436Y035540D01*
X003367Y035515D01*
X003297Y035493D01*
X003226Y035476D01*
X003154Y035462D01*
X003082Y035452D01*
X003009Y035446D01*
X002936Y035444D01*
X002863Y035446D01*
X002790Y035452D01*
X002718Y035462D01*
X002646Y035476D01*
X002575Y035493D01*
X002505Y035515D01*
X002436Y035540D01*
X002369Y035569D01*
X002304Y035601D01*
X002240Y035637D01*
X002178Y035677D01*
X002119Y035719D01*
X002062Y035765D01*
X002008Y035814D01*
X001956Y035866D01*
X001907Y035920D01*
X001861Y035977D01*
X001819Y036036D01*
X001779Y036098D01*
X001743Y036162D01*
X001711Y036227D01*
X001682Y036294D01*
X001657Y036363D01*
X001635Y036433D01*
X001618Y036504D01*
X001604Y036576D01*
X001594Y036648D01*
X001588Y036721D01*
X001586Y036794D01*
X006930Y036560D02*
X007430Y038863D01*
X007930Y038863D01*
X008430Y036560D01*
X009430Y036560D02*
X009930Y038863D01*
X010430Y038863D01*
X010930Y036560D01*
X013780Y037430D02*
X014530Y037430D01*
X014280Y037730D02*
X015580Y037730D01*
X015606Y037732D01*
X015632Y037737D01*
X015657Y037745D01*
X015680Y037757D01*
X015702Y037771D01*
X015721Y037789D01*
X015739Y037808D01*
X015753Y037830D01*
X015765Y037853D01*
X015773Y037878D01*
X015778Y037904D01*
X015780Y037930D01*
X015780Y038430D01*
X015778Y038456D01*
X015773Y038482D01*
X015765Y038507D01*
X015753Y038530D01*
X015739Y038552D01*
X015721Y038571D01*
X015702Y038589D01*
X015680Y038603D01*
X015657Y038615D01*
X015632Y038623D01*
X015606Y038628D01*
X015580Y038630D01*
X014280Y038630D01*
X014254Y038628D01*
X014228Y038623D01*
X014203Y038615D01*
X014180Y038603D01*
X014158Y038589D01*
X014139Y038571D01*
X014121Y038552D01*
X014107Y038530D01*
X014095Y038507D01*
X014087Y038482D01*
X014082Y038456D01*
X014080Y038430D01*
X014080Y037930D01*
X014082Y037904D01*
X014087Y037878D01*
X014095Y037853D01*
X014107Y037830D01*
X014121Y037808D01*
X014139Y037789D01*
X014158Y037771D01*
X014180Y037757D01*
X014203Y037745D01*
X014228Y037737D01*
X014254Y037732D01*
X014280Y037730D01*
X013780Y037430D02*
X013780Y033430D01*
X016080Y033430D01*
X016080Y037430D01*
X015330Y037430D01*
X015328Y037391D01*
X015322Y037352D01*
X015313Y037314D01*
X015300Y037277D01*
X015283Y037241D01*
X015263Y037208D01*
X015239Y037176D01*
X015213Y037147D01*
X015184Y037121D01*
X015152Y037097D01*
X015119Y037077D01*
X015083Y037060D01*
X015046Y037047D01*
X015008Y037038D01*
X014969Y037032D01*
X014930Y037030D01*
X014891Y037032D01*
X014852Y037038D01*
X014814Y037047D01*
X014777Y037060D01*
X014741Y037077D01*
X014708Y037097D01*
X014676Y037121D01*
X014647Y037147D01*
X014621Y037176D01*
X014597Y037208D01*
X014577Y037241D01*
X014560Y037277D01*
X014547Y037314D01*
X014538Y037352D01*
X014532Y037391D01*
X014530Y037430D01*
X019280Y037430D02*
X019280Y033430D01*
X021580Y033430D01*
X021580Y037430D01*
X020830Y037430D01*
X021080Y037730D02*
X019780Y037730D01*
X019754Y037732D01*
X019728Y037737D01*
X019703Y037745D01*
X019680Y037757D01*
X019658Y037771D01*
X019639Y037789D01*
X019621Y037808D01*
X019607Y037830D01*
X019595Y037853D01*
X019587Y037878D01*
X019582Y037904D01*
X019580Y037930D01*
X019580Y038430D01*
X019582Y038456D01*
X019587Y038482D01*
X019595Y038507D01*
X019607Y038530D01*
X019621Y038552D01*
X019639Y038571D01*
X019658Y038589D01*
X019680Y038603D01*
X019703Y038615D01*
X019728Y038623D01*
X019754Y038628D01*
X019780Y038630D01*
X021080Y038630D01*
X021106Y038628D01*
X021132Y038623D01*
X021157Y038615D01*
X021180Y038603D01*
X021202Y038589D01*
X021221Y038571D01*
X021239Y038552D01*
X021253Y038530D01*
X021265Y038507D01*
X021273Y038482D01*
X021278Y038456D01*
X021280Y038430D01*
X021280Y037930D01*
X021278Y037904D01*
X021273Y037878D01*
X021265Y037853D01*
X021253Y037830D01*
X021239Y037808D01*
X021221Y037789D01*
X021202Y037771D01*
X021180Y037757D01*
X021157Y037745D01*
X021132Y037737D01*
X021106Y037732D01*
X021080Y037730D01*
X020830Y037430D02*
X020828Y037391D01*
X020822Y037352D01*
X020813Y037314D01*
X020800Y037277D01*
X020783Y037241D01*
X020763Y037208D01*
X020739Y037176D01*
X020713Y037147D01*
X020684Y037121D01*
X020652Y037097D01*
X020619Y037077D01*
X020583Y037060D01*
X020546Y037047D01*
X020508Y037038D01*
X020469Y037032D01*
X020430Y037030D01*
X020391Y037032D01*
X020352Y037038D01*
X020314Y037047D01*
X020277Y037060D01*
X020241Y037077D01*
X020208Y037097D01*
X020176Y037121D01*
X020147Y037147D01*
X020121Y037176D01*
X020097Y037208D01*
X020077Y037241D01*
X020060Y037277D01*
X020047Y037314D01*
X020038Y037352D01*
X020032Y037391D01*
X020030Y037430D01*
X019280Y037430D01*
X019280Y032430D02*
X020030Y032430D01*
X020032Y032391D01*
X020038Y032352D01*
X020047Y032314D01*
X020060Y032277D01*
X020077Y032241D01*
X020097Y032208D01*
X020121Y032176D01*
X020147Y032147D01*
X020176Y032121D01*
X020208Y032097D01*
X020241Y032077D01*
X020277Y032060D01*
X020314Y032047D01*
X020352Y032038D01*
X020391Y032032D01*
X020430Y032030D01*
X020469Y032032D01*
X020508Y032038D01*
X020546Y032047D01*
X020583Y032060D01*
X020619Y032077D01*
X020652Y032097D01*
X020684Y032121D01*
X020713Y032147D01*
X020739Y032176D01*
X020763Y032208D01*
X020783Y032241D01*
X020800Y032277D01*
X020813Y032314D01*
X020822Y032352D01*
X020828Y032391D01*
X020830Y032430D01*
X021580Y032430D01*
X021580Y028430D01*
X019280Y028430D01*
X019280Y032430D01*
X024780Y033430D02*
X024780Y037430D01*
X025530Y037430D01*
X025280Y037730D02*
X026580Y037730D01*
X026606Y037732D01*
X026632Y037737D01*
X026657Y037745D01*
X026680Y037757D01*
X026702Y037771D01*
X026721Y037789D01*
X026739Y037808D01*
X026753Y037830D01*
X026765Y037853D01*
X026773Y037878D01*
X026778Y037904D01*
X026780Y037930D01*
X026780Y038430D01*
X026778Y038456D01*
X026773Y038482D01*
X026765Y038507D01*
X026753Y038530D01*
X026739Y038552D01*
X026721Y038571D01*
X026702Y038589D01*
X026680Y038603D01*
X026657Y038615D01*
X026632Y038623D01*
X026606Y038628D01*
X026580Y038630D01*
X025280Y038630D01*
X025254Y038628D01*
X025228Y038623D01*
X025203Y038615D01*
X025180Y038603D01*
X025158Y038589D01*
X025139Y038571D01*
X025121Y038552D01*
X025107Y038530D01*
X025095Y038507D01*
X025087Y038482D01*
X025082Y038456D01*
X025080Y038430D01*
X025080Y037930D01*
X025082Y037904D01*
X025087Y037878D01*
X025095Y037853D01*
X025107Y037830D01*
X025121Y037808D01*
X025139Y037789D01*
X025158Y037771D01*
X025180Y037757D01*
X025203Y037745D01*
X025228Y037737D01*
X025254Y037732D01*
X025280Y037730D01*
X025530Y037430D02*
X025532Y037391D01*
X025538Y037352D01*
X025547Y037314D01*
X025560Y037277D01*
X025577Y037241D01*
X025597Y037208D01*
X025621Y037176D01*
X025647Y037147D01*
X025676Y037121D01*
X025708Y037097D01*
X025741Y037077D01*
X025777Y037060D01*
X025814Y037047D01*
X025852Y037038D01*
X025891Y037032D01*
X025930Y037030D01*
X025969Y037032D01*
X026008Y037038D01*
X026046Y037047D01*
X026083Y037060D01*
X026119Y037077D01*
X026152Y037097D01*
X026184Y037121D01*
X026213Y037147D01*
X026239Y037176D01*
X026263Y037208D01*
X026283Y037241D01*
X026300Y037277D01*
X026313Y037314D01*
X026322Y037352D01*
X026328Y037391D01*
X026330Y037430D01*
X027080Y037430D01*
X027080Y033430D01*
X024780Y033430D01*
X033680Y029380D02*
X033780Y029380D01*
X033980Y029380D01*
X033980Y029180D02*
X034180Y029030D01*
X034180Y028980D01*
X029830Y016880D02*
X028530Y016880D01*
X028504Y016878D01*
X028478Y016873D01*
X028453Y016865D01*
X028430Y016853D01*
X028408Y016839D01*
X028389Y016821D01*
X028371Y016802D01*
X028357Y016780D01*
X028345Y016757D01*
X028337Y016732D01*
X028332Y016706D01*
X028330Y016680D01*
X028330Y016180D01*
X028332Y016154D01*
X028337Y016128D01*
X028345Y016103D01*
X028357Y016080D01*
X028371Y016058D01*
X028389Y016039D01*
X028408Y016021D01*
X028430Y016007D01*
X028453Y015995D01*
X028478Y015987D01*
X028504Y015982D01*
X028530Y015980D01*
X029830Y015980D01*
X029856Y015982D01*
X029882Y015987D01*
X029907Y015995D01*
X029930Y016007D01*
X029952Y016021D01*
X029971Y016039D01*
X029989Y016058D01*
X030003Y016080D01*
X030015Y016103D01*
X030023Y016128D01*
X030028Y016154D01*
X030030Y016180D01*
X030030Y016680D01*
X030028Y016706D01*
X030023Y016732D01*
X030015Y016757D01*
X030003Y016780D01*
X029989Y016802D01*
X029971Y016821D01*
X029952Y016839D01*
X029930Y016853D01*
X029907Y016865D01*
X029882Y016873D01*
X029856Y016878D01*
X029830Y016880D01*
X031580Y015180D02*
X031580Y014680D01*
X031582Y014654D01*
X031587Y014628D01*
X031595Y014603D01*
X031607Y014580D01*
X031621Y014558D01*
X031639Y014539D01*
X031658Y014521D01*
X031680Y014507D01*
X031703Y014495D01*
X031728Y014487D01*
X031754Y014482D01*
X031780Y014480D01*
X033080Y014480D01*
X033106Y014482D01*
X033132Y014487D01*
X033157Y014495D01*
X033180Y014507D01*
X033202Y014521D01*
X033221Y014539D01*
X033239Y014558D01*
X033253Y014580D01*
X033265Y014603D01*
X033273Y014628D01*
X033278Y014654D01*
X033280Y014680D01*
X033280Y015180D01*
X033278Y015206D01*
X033273Y015232D01*
X033265Y015257D01*
X033253Y015280D01*
X033239Y015302D01*
X033221Y015321D01*
X033202Y015339D01*
X033180Y015353D01*
X033157Y015365D01*
X033132Y015373D01*
X033106Y015378D01*
X033080Y015380D01*
X031780Y015380D01*
X031754Y015378D01*
X031728Y015373D01*
X031703Y015365D01*
X031680Y015353D01*
X031658Y015339D01*
X031639Y015321D01*
X031621Y015302D01*
X031607Y015280D01*
X031595Y015257D01*
X031587Y015232D01*
X031582Y015206D01*
X031580Y015180D01*
X030680Y014180D02*
X030680Y013680D01*
X030580Y013680D01*
X030580Y013180D01*
X030680Y013180D01*
X030680Y010430D01*
X030580Y010430D01*
X030580Y009930D01*
X030680Y009930D01*
X030680Y007180D01*
X030580Y007180D01*
X030580Y006680D01*
X030680Y006680D01*
X030680Y006180D01*
X034180Y006180D01*
X034180Y007930D01*
X034130Y007930D01*
X034130Y008430D01*
X034180Y008430D01*
X034180Y009380D01*
X033780Y009380D01*
X033680Y009380D01*
X033680Y006680D01*
X031180Y006680D01*
X031180Y013680D01*
X033680Y013680D01*
X033680Y011980D01*
X033680Y011380D01*
X033680Y010980D01*
X033780Y010980D01*
X034180Y010980D01*
X034180Y009380D01*
X033680Y009380D02*
X033380Y009380D01*
X033380Y010980D01*
X033680Y010980D01*
X033980Y011180D02*
X033980Y011380D01*
X033980Y011980D01*
X033780Y011980D01*
X033680Y011980D01*
X033980Y011980D02*
X033980Y012180D01*
X034180Y012330D01*
X034180Y014180D01*
X030680Y014180D01*
X028880Y014080D02*
X028880Y012780D01*
X028878Y012754D01*
X028873Y012728D01*
X028865Y012703D01*
X028853Y012680D01*
X028839Y012658D01*
X028821Y012639D01*
X028802Y012621D01*
X028780Y012607D01*
X028757Y012595D01*
X028732Y012587D01*
X028706Y012582D01*
X028680Y012580D01*
X028180Y012580D01*
X028154Y012582D01*
X028128Y012587D01*
X028103Y012595D01*
X028080Y012607D01*
X028058Y012621D01*
X028039Y012639D01*
X028021Y012658D01*
X028007Y012680D01*
X027995Y012703D01*
X027987Y012728D01*
X027982Y012754D01*
X027980Y012780D01*
X027980Y014080D01*
X027982Y014106D01*
X027987Y014132D01*
X027995Y014157D01*
X028007Y014180D01*
X028021Y014202D01*
X028039Y014221D01*
X028058Y014239D01*
X028080Y014253D01*
X028103Y014265D01*
X028128Y014273D01*
X028154Y014278D01*
X028180Y014280D01*
X028680Y014280D01*
X028706Y014278D01*
X028732Y014273D01*
X028757Y014265D01*
X028780Y014253D01*
X028802Y014239D01*
X028821Y014221D01*
X028839Y014202D01*
X028853Y014180D01*
X028865Y014157D01*
X028873Y014132D01*
X028878Y014106D01*
X028880Y014080D01*
X027680Y014580D02*
X027680Y012280D01*
X020680Y012280D01*
X020680Y013030D01*
X020380Y012780D02*
X020380Y014080D01*
X020378Y014106D01*
X020373Y014132D01*
X020365Y014157D01*
X020353Y014180D01*
X020339Y014202D01*
X020321Y014221D01*
X020302Y014239D01*
X020280Y014253D01*
X020257Y014265D01*
X020232Y014273D01*
X020206Y014278D01*
X020180Y014280D01*
X019680Y014280D01*
X019654Y014278D01*
X019628Y014273D01*
X019603Y014265D01*
X019580Y014253D01*
X019558Y014239D01*
X019539Y014221D01*
X019521Y014202D01*
X019507Y014180D01*
X019495Y014157D01*
X019487Y014132D01*
X019482Y014106D01*
X019480Y014080D01*
X019480Y012780D01*
X019482Y012754D01*
X019487Y012728D01*
X019495Y012703D01*
X019507Y012680D01*
X019521Y012658D01*
X019539Y012639D01*
X019558Y012621D01*
X019580Y012607D01*
X019603Y012595D01*
X019628Y012587D01*
X019654Y012582D01*
X019680Y012580D01*
X020180Y012580D01*
X020206Y012582D01*
X020232Y012587D01*
X020257Y012595D01*
X020280Y012607D01*
X020302Y012621D01*
X020321Y012639D01*
X020339Y012658D01*
X020353Y012680D01*
X020365Y012703D01*
X020373Y012728D01*
X020378Y012754D01*
X020380Y012780D01*
X020680Y013030D02*
X020719Y013032D01*
X020758Y013038D01*
X020796Y013047D01*
X020833Y013060D01*
X020869Y013077D01*
X020902Y013097D01*
X020934Y013121D01*
X020963Y013147D01*
X020989Y013176D01*
X021013Y013208D01*
X021033Y013241D01*
X021050Y013277D01*
X021063Y013314D01*
X021072Y013352D01*
X021078Y013391D01*
X021080Y013430D01*
X021078Y013469D01*
X021072Y013508D01*
X021063Y013546D01*
X021050Y013583D01*
X021033Y013619D01*
X021013Y013652D01*
X020989Y013684D01*
X020963Y013713D01*
X020934Y013739D01*
X020902Y013763D01*
X020869Y013783D01*
X020833Y013800D01*
X020796Y013813D01*
X020758Y013822D01*
X020719Y013828D01*
X020680Y013830D01*
X020680Y014580D01*
X027680Y014580D01*
X024780Y016180D02*
X024780Y016680D01*
X024778Y016706D01*
X024773Y016732D01*
X024765Y016757D01*
X024753Y016780D01*
X024739Y016802D01*
X024721Y016821D01*
X024702Y016839D01*
X024680Y016853D01*
X024657Y016865D01*
X024632Y016873D01*
X024606Y016878D01*
X024580Y016880D01*
X023280Y016880D01*
X023254Y016878D01*
X023228Y016873D01*
X023203Y016865D01*
X023180Y016853D01*
X023158Y016839D01*
X023139Y016821D01*
X023121Y016802D01*
X023107Y016780D01*
X023095Y016757D01*
X023087Y016732D01*
X023082Y016706D01*
X023080Y016680D01*
X023080Y016180D01*
X023082Y016154D01*
X023087Y016128D01*
X023095Y016103D01*
X023107Y016080D01*
X023121Y016058D01*
X023139Y016039D01*
X023158Y016021D01*
X023180Y016007D01*
X023203Y015995D01*
X023228Y015987D01*
X023254Y015982D01*
X023280Y015980D01*
X024580Y015980D01*
X024606Y015982D01*
X024632Y015987D01*
X024657Y015995D01*
X024680Y016007D01*
X024702Y016021D01*
X024721Y016039D01*
X024739Y016058D01*
X024753Y016080D01*
X024765Y016103D01*
X024773Y016128D01*
X024778Y016154D01*
X024780Y016180D01*
X024930Y011030D02*
X025430Y011030D01*
X025456Y011028D01*
X025482Y011023D01*
X025507Y011015D01*
X025530Y011003D01*
X025552Y010989D01*
X025571Y010971D01*
X025589Y010952D01*
X025603Y010930D01*
X025615Y010907D01*
X025623Y010882D01*
X025628Y010856D01*
X025630Y010830D01*
X025630Y009530D01*
X025730Y009530D02*
X025730Y010830D01*
X025732Y010856D01*
X025737Y010882D01*
X025745Y010907D01*
X025757Y010930D01*
X025771Y010952D01*
X025789Y010971D01*
X025808Y010989D01*
X025830Y011003D01*
X025853Y011015D01*
X025878Y011023D01*
X025904Y011028D01*
X025930Y011030D01*
X026430Y011030D01*
X026456Y011028D01*
X026482Y011023D01*
X026507Y011015D01*
X026530Y011003D01*
X026552Y010989D01*
X026571Y010971D01*
X026589Y010952D01*
X026603Y010930D01*
X026615Y010907D01*
X026623Y010882D01*
X026628Y010856D01*
X026630Y010830D01*
X026630Y009530D01*
X026730Y009530D02*
X026730Y010830D01*
X026732Y010856D01*
X026737Y010882D01*
X026745Y010907D01*
X026757Y010930D01*
X026771Y010952D01*
X026789Y010971D01*
X026808Y010989D01*
X026830Y011003D01*
X026853Y011015D01*
X026878Y011023D01*
X026904Y011028D01*
X026930Y011030D01*
X027430Y011030D01*
X027456Y011028D01*
X027482Y011023D01*
X027507Y011015D01*
X027530Y011003D01*
X027552Y010989D01*
X027571Y010971D01*
X027589Y010952D01*
X027603Y010930D01*
X027615Y010907D01*
X027623Y010882D01*
X027628Y010856D01*
X027630Y010830D01*
X027630Y009530D01*
X027628Y009504D01*
X027623Y009478D01*
X027615Y009453D01*
X027603Y009430D01*
X027589Y009408D01*
X027571Y009389D01*
X027552Y009371D01*
X027530Y009357D01*
X027507Y009345D01*
X027482Y009337D01*
X027456Y009332D01*
X027430Y009330D01*
X026930Y009330D01*
X026904Y009332D01*
X026878Y009337D01*
X026853Y009345D01*
X026830Y009357D01*
X026808Y009371D01*
X026789Y009389D01*
X026771Y009408D01*
X026757Y009430D01*
X026745Y009453D01*
X026737Y009478D01*
X026732Y009504D01*
X026730Y009530D01*
X026630Y009530D02*
X026628Y009504D01*
X026623Y009478D01*
X026615Y009453D01*
X026603Y009430D01*
X026589Y009408D01*
X026571Y009389D01*
X026552Y009371D01*
X026530Y009357D01*
X026507Y009345D01*
X026482Y009337D01*
X026456Y009332D01*
X026430Y009330D01*
X025930Y009330D01*
X025904Y009332D01*
X025878Y009337D01*
X025853Y009345D01*
X025830Y009357D01*
X025808Y009371D01*
X025789Y009389D01*
X025771Y009408D01*
X025757Y009430D01*
X025745Y009453D01*
X025737Y009478D01*
X025732Y009504D01*
X025730Y009530D01*
X025630Y009530D02*
X025628Y009504D01*
X025623Y009478D01*
X025615Y009453D01*
X025603Y009430D01*
X025589Y009408D01*
X025571Y009389D01*
X025552Y009371D01*
X025530Y009357D01*
X025507Y009345D01*
X025482Y009337D01*
X025456Y009332D01*
X025430Y009330D01*
X024930Y009330D01*
X024904Y009332D01*
X024878Y009337D01*
X024853Y009345D01*
X024830Y009357D01*
X024808Y009371D01*
X024789Y009389D01*
X024771Y009408D01*
X024757Y009430D01*
X024745Y009453D01*
X024737Y009478D01*
X024732Y009504D01*
X024730Y009530D01*
X024730Y010830D01*
X024732Y010856D01*
X024737Y010882D01*
X024745Y010907D01*
X024757Y010930D01*
X024771Y010952D01*
X024789Y010971D01*
X024808Y010989D01*
X024830Y011003D01*
X024853Y011015D01*
X024878Y011023D01*
X024904Y011028D01*
X024930Y011030D01*
X023630Y010830D02*
X023630Y009530D01*
X023628Y009504D01*
X023623Y009478D01*
X023615Y009453D01*
X023603Y009430D01*
X023589Y009408D01*
X023571Y009389D01*
X023552Y009371D01*
X023530Y009357D01*
X023507Y009345D01*
X023482Y009337D01*
X023456Y009332D01*
X023430Y009330D01*
X022930Y009330D01*
X022904Y009332D01*
X022878Y009337D01*
X022853Y009345D01*
X022830Y009357D01*
X022808Y009371D01*
X022789Y009389D01*
X022771Y009408D01*
X022757Y009430D01*
X022745Y009453D01*
X022737Y009478D01*
X022732Y009504D01*
X022730Y009530D01*
X022730Y010830D01*
X022630Y010830D02*
X022630Y009530D01*
X022628Y009504D01*
X022623Y009478D01*
X022615Y009453D01*
X022603Y009430D01*
X022589Y009408D01*
X022571Y009389D01*
X022552Y009371D01*
X022530Y009357D01*
X022507Y009345D01*
X022482Y009337D01*
X022456Y009332D01*
X022430Y009330D01*
X021930Y009330D01*
X021904Y009332D01*
X021878Y009337D01*
X021853Y009345D01*
X021830Y009357D01*
X021808Y009371D01*
X021789Y009389D01*
X021771Y009408D01*
X021757Y009430D01*
X021745Y009453D01*
X021737Y009478D01*
X021732Y009504D01*
X021730Y009530D01*
X021730Y010830D01*
X021630Y010830D02*
X021630Y009530D01*
X021628Y009504D01*
X021623Y009478D01*
X021615Y009453D01*
X021603Y009430D01*
X021589Y009408D01*
X021571Y009389D01*
X021552Y009371D01*
X021530Y009357D01*
X021507Y009345D01*
X021482Y009337D01*
X021456Y009332D01*
X021430Y009330D01*
X020930Y009330D01*
X020904Y009332D01*
X020878Y009337D01*
X020853Y009345D01*
X020830Y009357D01*
X020808Y009371D01*
X020789Y009389D01*
X020771Y009408D01*
X020757Y009430D01*
X020745Y009453D01*
X020737Y009478D01*
X020732Y009504D01*
X020730Y009530D01*
X020730Y010830D01*
X020732Y010856D01*
X020737Y010882D01*
X020745Y010907D01*
X020757Y010930D01*
X020771Y010952D01*
X020789Y010971D01*
X020808Y010989D01*
X020830Y011003D01*
X020853Y011015D01*
X020878Y011023D01*
X020904Y011028D01*
X020930Y011030D01*
X021430Y011030D01*
X021456Y011028D01*
X021482Y011023D01*
X021507Y011015D01*
X021530Y011003D01*
X021552Y010989D01*
X021571Y010971D01*
X021589Y010952D01*
X021603Y010930D01*
X021615Y010907D01*
X021623Y010882D01*
X021628Y010856D01*
X021630Y010830D01*
X021730Y010830D02*
X021732Y010856D01*
X021737Y010882D01*
X021745Y010907D01*
X021757Y010930D01*
X021771Y010952D01*
X021789Y010971D01*
X021808Y010989D01*
X021830Y011003D01*
X021853Y011015D01*
X021878Y011023D01*
X021904Y011028D01*
X021930Y011030D01*
X022430Y011030D01*
X022456Y011028D01*
X022482Y011023D01*
X022507Y011015D01*
X022530Y011003D01*
X022552Y010989D01*
X022571Y010971D01*
X022589Y010952D01*
X022603Y010930D01*
X022615Y010907D01*
X022623Y010882D01*
X022628Y010856D01*
X022630Y010830D01*
X022730Y010830D02*
X022732Y010856D01*
X022737Y010882D01*
X022745Y010907D01*
X022757Y010930D01*
X022771Y010952D01*
X022789Y010971D01*
X022808Y010989D01*
X022830Y011003D01*
X022853Y011015D01*
X022878Y011023D01*
X022904Y011028D01*
X022930Y011030D01*
X023430Y011030D01*
X023456Y011028D01*
X023482Y011023D01*
X023507Y011015D01*
X023530Y011003D01*
X023552Y010989D01*
X023571Y010971D01*
X023589Y010952D01*
X023603Y010930D01*
X023615Y010907D01*
X023623Y010882D01*
X023628Y010856D01*
X023630Y010830D01*
X027980Y007330D02*
X027980Y006030D01*
X027982Y006004D01*
X027987Y005978D01*
X027995Y005953D01*
X028007Y005930D01*
X028021Y005908D01*
X028039Y005889D01*
X028058Y005871D01*
X028080Y005857D01*
X028103Y005845D01*
X028128Y005837D01*
X028154Y005832D01*
X028180Y005830D01*
X028680Y005830D01*
X028706Y005832D01*
X028732Y005837D01*
X028757Y005845D01*
X028780Y005857D01*
X028802Y005871D01*
X028821Y005889D01*
X028839Y005908D01*
X028853Y005930D01*
X028865Y005953D01*
X028873Y005978D01*
X028878Y006004D01*
X028880Y006030D01*
X028880Y007330D01*
X028878Y007356D01*
X028873Y007382D01*
X028865Y007407D01*
X028853Y007430D01*
X028839Y007452D01*
X028821Y007471D01*
X028802Y007489D01*
X028780Y007503D01*
X028757Y007515D01*
X028732Y007523D01*
X028706Y007528D01*
X028680Y007530D01*
X028180Y007530D01*
X028154Y007528D01*
X028128Y007523D01*
X028103Y007515D01*
X028080Y007503D01*
X028058Y007489D01*
X028039Y007471D01*
X028021Y007452D01*
X028007Y007430D01*
X027995Y007407D01*
X027987Y007382D01*
X027982Y007356D01*
X027980Y007330D01*
X031580Y005680D02*
X031580Y005180D01*
X031582Y005154D01*
X031587Y005128D01*
X031595Y005103D01*
X031607Y005080D01*
X031621Y005058D01*
X031639Y005039D01*
X031658Y005021D01*
X031680Y005007D01*
X031703Y004995D01*
X031728Y004987D01*
X031754Y004982D01*
X031780Y004980D01*
X033080Y004980D01*
X033106Y004982D01*
X033132Y004987D01*
X033157Y004995D01*
X033180Y005007D01*
X033202Y005021D01*
X033221Y005039D01*
X033239Y005058D01*
X033253Y005080D01*
X033265Y005103D01*
X033273Y005128D01*
X033278Y005154D01*
X033280Y005180D01*
X033280Y005680D01*
X033278Y005706D01*
X033273Y005732D01*
X033265Y005757D01*
X033253Y005780D01*
X033239Y005802D01*
X033221Y005821D01*
X033202Y005839D01*
X033180Y005853D01*
X033157Y005865D01*
X033132Y005873D01*
X033106Y005878D01*
X033080Y005880D01*
X031780Y005880D01*
X031754Y005878D01*
X031728Y005873D01*
X031703Y005865D01*
X031680Y005853D01*
X031658Y005839D01*
X031639Y005821D01*
X031621Y005802D01*
X031607Y005780D01*
X031595Y005757D01*
X031587Y005732D01*
X031582Y005706D01*
X031580Y005680D01*
X028280Y003530D02*
X028030Y003530D01*
X027980Y003480D01*
X025380Y003480D01*
X025330Y003530D01*
X025080Y003530D01*
X025063Y003528D01*
X025046Y003524D01*
X025030Y003517D01*
X025016Y003507D01*
X025003Y003494D01*
X024993Y003480D01*
X024986Y003464D01*
X024982Y003447D01*
X024980Y003430D01*
X024980Y002430D02*
X024982Y002413D01*
X024986Y002396D01*
X024993Y002380D01*
X025003Y002366D01*
X025016Y002353D01*
X025030Y002343D01*
X025046Y002336D01*
X025063Y002332D01*
X025080Y002330D01*
X025330Y002330D01*
X025380Y002380D01*
X027980Y002380D01*
X028030Y002330D01*
X028280Y002330D01*
X028297Y002332D01*
X028314Y002336D01*
X028330Y002343D01*
X028344Y002353D01*
X028357Y002366D01*
X028367Y002380D01*
X028374Y002396D01*
X028378Y002413D01*
X028380Y002430D01*
X028280Y002030D02*
X028030Y002030D01*
X027980Y001980D01*
X025380Y001980D01*
X025330Y002030D01*
X025080Y002030D01*
X025063Y002028D01*
X025046Y002024D01*
X025030Y002017D01*
X025016Y002007D01*
X025003Y001994D01*
X024993Y001980D01*
X024986Y001964D01*
X024982Y001947D01*
X024980Y001930D01*
X024980Y000930D02*
X024982Y000913D01*
X024986Y000896D01*
X024993Y000880D01*
X025003Y000866D01*
X025016Y000853D01*
X025030Y000843D01*
X025046Y000836D01*
X025063Y000832D01*
X025080Y000830D01*
X025330Y000830D01*
X025380Y000880D01*
X027980Y000880D01*
X028030Y000830D01*
X028280Y000830D01*
X028297Y000832D01*
X028314Y000836D01*
X028330Y000843D01*
X028344Y000853D01*
X028357Y000866D01*
X028367Y000880D01*
X028374Y000896D01*
X028378Y000913D01*
X028380Y000930D01*
X028380Y001930D02*
X028378Y001947D01*
X028374Y001964D01*
X028367Y001980D01*
X028357Y001994D01*
X028344Y002007D01*
X028330Y002017D01*
X028314Y002024D01*
X028297Y002028D01*
X028280Y002030D01*
X028380Y003430D02*
X028378Y003447D01*
X028374Y003464D01*
X028367Y003480D01*
X028357Y003494D01*
X028344Y003507D01*
X028330Y003517D01*
X028314Y003524D01*
X028297Y003528D01*
X028280Y003530D01*
X035247Y005172D02*
X035247Y015188D01*
X033980Y011380D02*
X033780Y011380D01*
X033680Y011380D01*
X033980Y011180D02*
X034180Y011030D01*
X034180Y010980D01*
X035444Y002936D02*
X035446Y003009D01*
X035452Y003082D01*
X035462Y003154D01*
X035476Y003226D01*
X035493Y003297D01*
X035515Y003367D01*
X035540Y003436D01*
X035569Y003503D01*
X035601Y003568D01*
X035637Y003632D01*
X035677Y003694D01*
X035719Y003753D01*
X035765Y003810D01*
X035814Y003864D01*
X035866Y003916D01*
X035920Y003965D01*
X035977Y004011D01*
X036036Y004053D01*
X036098Y004093D01*
X036162Y004129D01*
X036227Y004161D01*
X036294Y004190D01*
X036363Y004215D01*
X036433Y004237D01*
X036504Y004254D01*
X036576Y004268D01*
X036648Y004278D01*
X036721Y004284D01*
X036794Y004286D01*
X036867Y004284D01*
X036940Y004278D01*
X037012Y004268D01*
X037084Y004254D01*
X037155Y004237D01*
X037225Y004215D01*
X037294Y004190D01*
X037361Y004161D01*
X037426Y004129D01*
X037490Y004093D01*
X037552Y004053D01*
X037611Y004011D01*
X037668Y003965D01*
X037722Y003916D01*
X037774Y003864D01*
X037823Y003810D01*
X037869Y003753D01*
X037911Y003694D01*
X037951Y003632D01*
X037987Y003568D01*
X038019Y003503D01*
X038048Y003436D01*
X038073Y003367D01*
X038095Y003297D01*
X038112Y003226D01*
X038126Y003154D01*
X038136Y003082D01*
X038142Y003009D01*
X038144Y002936D01*
X038142Y002863D01*
X038136Y002790D01*
X038126Y002718D01*
X038112Y002646D01*
X038095Y002575D01*
X038073Y002505D01*
X038048Y002436D01*
X038019Y002369D01*
X037987Y002304D01*
X037951Y002240D01*
X037911Y002178D01*
X037869Y002119D01*
X037823Y002062D01*
X037774Y002008D01*
X037722Y001956D01*
X037668Y001907D01*
X037611Y001861D01*
X037552Y001819D01*
X037490Y001779D01*
X037426Y001743D01*
X037361Y001711D01*
X037294Y001682D01*
X037225Y001657D01*
X037155Y001635D01*
X037084Y001618D01*
X037012Y001604D01*
X036940Y001594D01*
X036867Y001588D01*
X036794Y001586D01*
X036721Y001588D01*
X036648Y001594D01*
X036576Y001604D01*
X036504Y001618D01*
X036433Y001635D01*
X036363Y001657D01*
X036294Y001682D01*
X036227Y001711D01*
X036162Y001743D01*
X036098Y001779D01*
X036036Y001819D01*
X035977Y001861D01*
X035920Y001907D01*
X035866Y001956D01*
X035814Y002008D01*
X035765Y002062D01*
X035719Y002119D01*
X035677Y002178D01*
X035637Y002240D01*
X035601Y002304D01*
X035569Y002369D01*
X035540Y002436D01*
X035515Y002505D01*
X035493Y002575D01*
X035476Y002646D01*
X035462Y002718D01*
X035452Y002790D01*
X035446Y002863D01*
X035444Y002936D01*
X019280Y016180D02*
X019280Y016680D01*
X019278Y016706D01*
X019273Y016732D01*
X019265Y016757D01*
X019253Y016780D01*
X019239Y016802D01*
X019221Y016821D01*
X019202Y016839D01*
X019180Y016853D01*
X019157Y016865D01*
X019132Y016873D01*
X019106Y016878D01*
X019080Y016880D01*
X017780Y016880D01*
X017754Y016878D01*
X017728Y016873D01*
X017703Y016865D01*
X017680Y016853D01*
X017658Y016839D01*
X017639Y016821D01*
X017621Y016802D01*
X017607Y016780D01*
X017595Y016757D01*
X017587Y016732D01*
X017582Y016706D01*
X017580Y016680D01*
X017580Y016180D01*
X017582Y016154D01*
X017587Y016128D01*
X017595Y016103D01*
X017607Y016080D01*
X017621Y016058D01*
X017639Y016039D01*
X017658Y016021D01*
X017680Y016007D01*
X017703Y015995D01*
X017728Y015987D01*
X017754Y015982D01*
X017780Y015980D01*
X019080Y015980D01*
X019106Y015982D01*
X019132Y015987D01*
X019157Y015995D01*
X019180Y016007D01*
X019202Y016021D01*
X019221Y016039D01*
X019239Y016058D01*
X019253Y016080D01*
X019265Y016103D01*
X019273Y016128D01*
X019278Y016154D01*
X019280Y016180D01*
D14*
X031080Y013780D02*
X031080Y006580D01*
X033780Y006580D01*
X033780Y009380D01*
X033780Y010980D02*
X033780Y011380D01*
X033780Y011980D02*
X033780Y013780D01*
X031080Y013780D01*
X031080Y024580D02*
X033780Y024580D01*
X033780Y027380D01*
X033780Y028980D02*
X033780Y029380D01*
X033780Y029980D02*
X033780Y031780D01*
X031080Y031780D01*
X031080Y024580D01*
X010440Y035076D02*
X010194Y035076D01*
X009899Y035076D01*
X009872Y035078D01*
X009846Y035083D01*
X009821Y035092D01*
X009797Y035105D01*
X009775Y035120D01*
X009755Y035139D01*
X009738Y035159D01*
X009724Y035182D01*
X009713Y035207D01*
X009706Y035233D01*
X009702Y035260D01*
X009702Y035286D01*
X009706Y035313D01*
X009713Y035339D01*
X009724Y035364D01*
X009738Y035387D01*
X009755Y035407D01*
X009775Y035426D01*
X009797Y035441D01*
X009821Y035454D01*
X009846Y035463D01*
X009872Y035468D01*
X009899Y035470D01*
X009899Y035469D02*
X009872Y035471D01*
X009846Y035476D01*
X009821Y035485D01*
X009797Y035498D01*
X009775Y035513D01*
X009755Y035532D01*
X009738Y035552D01*
X009724Y035575D01*
X009713Y035600D01*
X009706Y035626D01*
X009702Y035653D01*
X009702Y035679D01*
X009706Y035706D01*
X009713Y035732D01*
X009724Y035757D01*
X009738Y035780D01*
X009755Y035800D01*
X009775Y035819D01*
X009797Y035834D01*
X009821Y035847D01*
X009846Y035856D01*
X009872Y035861D01*
X009899Y035863D01*
X010194Y035863D01*
X009899Y035666D01*
X010194Y035469D01*
X009899Y035273D01*
X010194Y035076D01*
X010194Y035469D01*
X010194Y035863D01*
X010440Y035863D01*
X010440Y035076D01*
X009603Y035076D02*
X009603Y035863D01*
X008914Y035863D01*
X008914Y035666D01*
X009357Y035666D01*
X009357Y035568D01*
X008914Y035568D01*
X008914Y035371D01*
X009357Y035371D01*
X009357Y035273D01*
X008914Y035273D01*
X008914Y035076D01*
X009603Y035076D01*
X008816Y035076D02*
X008816Y035863D01*
X008570Y035863D01*
X008570Y035568D01*
X008373Y035863D01*
X008078Y035863D01*
X008274Y035568D01*
X008422Y035420D02*
X008570Y035420D01*
X008570Y035273D01*
X008422Y035273D01*
X008422Y035272D02*
X008407Y035274D01*
X008392Y035278D01*
X008379Y035286D01*
X008367Y035296D01*
X008358Y035309D01*
X008352Y035323D01*
X008348Y035338D01*
X008348Y035354D01*
X008352Y035369D01*
X008358Y035383D01*
X008367Y035396D01*
X008379Y035406D01*
X008392Y035414D01*
X008407Y035418D01*
X008422Y035420D01*
X008274Y035568D02*
X008244Y035566D01*
X008215Y035561D01*
X008187Y035552D01*
X008160Y035540D01*
X008134Y035524D01*
X008111Y035506D01*
X008090Y035485D01*
X008072Y035462D01*
X008056Y035436D01*
X008044Y035409D01*
X008035Y035381D01*
X008030Y035352D01*
X008028Y035322D01*
X008030Y035292D01*
X008035Y035263D01*
X008044Y035235D01*
X008056Y035208D01*
X008072Y035182D01*
X008090Y035159D01*
X008111Y035138D01*
X008134Y035120D01*
X008160Y035104D01*
X008187Y035092D01*
X008215Y035083D01*
X008244Y035078D01*
X008274Y035076D01*
X008816Y035076D01*
X007586Y035863D02*
X007526Y035861D01*
X007466Y035855D01*
X007407Y035845D01*
X007348Y035831D01*
X007291Y035814D01*
X007290Y035814D02*
X007290Y035469D01*
X007487Y035469D01*
X007487Y035272D02*
X007514Y035274D01*
X007540Y035279D01*
X007565Y035288D01*
X007589Y035301D01*
X007611Y035316D01*
X007631Y035335D01*
X007648Y035355D01*
X007662Y035378D01*
X007673Y035403D01*
X007680Y035429D01*
X007684Y035456D01*
X007684Y035482D01*
X007680Y035509D01*
X007673Y035535D01*
X007662Y035560D01*
X007648Y035583D01*
X007631Y035603D01*
X007611Y035622D01*
X007589Y035637D01*
X007565Y035650D01*
X007540Y035659D01*
X007514Y035664D01*
X007487Y035666D01*
X007487Y035469D01*
X007586Y035075D02*
X007625Y035077D01*
X007663Y035083D01*
X007700Y035092D01*
X007737Y035105D01*
X007772Y035122D01*
X007805Y035141D01*
X007836Y035164D01*
X007865Y035190D01*
X007891Y035219D01*
X007914Y035250D01*
X007933Y035283D01*
X007950Y035318D01*
X007963Y035355D01*
X007972Y035392D01*
X007978Y035430D01*
X007980Y035469D01*
X007978Y035508D01*
X007972Y035546D01*
X007963Y035583D01*
X007950Y035620D01*
X007933Y035655D01*
X007914Y035688D01*
X007891Y035719D01*
X007865Y035748D01*
X007836Y035774D01*
X007805Y035797D01*
X007772Y035816D01*
X007737Y035833D01*
X007700Y035846D01*
X007663Y035855D01*
X007625Y035861D01*
X007586Y035863D01*
X007487Y035273D02*
X007438Y035268D01*
X007389Y035266D01*
X007340Y035268D01*
X007291Y035273D01*
X007292Y035273D02*
X007292Y035097D01*
X007286Y035097D02*
X007360Y035086D01*
X007435Y035079D01*
X007510Y035075D01*
X007585Y035076D01*
X007780Y027530D02*
X005080Y027530D01*
X005080Y024730D01*
X005080Y024130D02*
X005080Y020730D01*
X005080Y019130D02*
X005080Y014730D01*
X005080Y014130D02*
X005080Y012330D01*
X007780Y012330D01*
X007780Y027530D01*
D15*
X007155Y026795D02*
X007155Y026495D01*
X006855Y026795D01*
X006780Y026795D01*
X006705Y026720D01*
X006705Y026570D01*
X006780Y026495D01*
X006155Y026495D02*
X006155Y026795D01*
X006155Y026645D02*
X005705Y026645D01*
X005855Y026495D01*
X003905Y026845D02*
X003905Y027145D01*
X003905Y026995D02*
X003455Y026995D01*
X003605Y026845D01*
X002855Y026834D02*
X002855Y027134D01*
X002855Y026984D02*
X002405Y026984D01*
X002555Y026834D01*
X002630Y027295D02*
X002630Y027595D01*
X002855Y027520D02*
X002405Y027520D01*
X002630Y027295D01*
X001958Y029655D02*
X001958Y030105D01*
X001733Y029880D01*
X002033Y029880D01*
X001573Y029880D02*
X001573Y029730D01*
X001498Y029655D01*
X001347Y029655D01*
X001272Y029730D01*
X001272Y029880D02*
X001422Y029955D01*
X001498Y029955D01*
X001573Y029880D01*
X001573Y030105D02*
X001272Y030105D01*
X001272Y029880D01*
X001116Y029730D02*
X001040Y029730D01*
X001040Y029655D01*
X001116Y029655D01*
X001116Y029730D01*
X001116Y029655D02*
X000965Y029505D01*
X000805Y029655D02*
X000505Y029655D01*
X000805Y029955D01*
X000805Y030030D01*
X000730Y030105D01*
X000580Y030105D01*
X000505Y030030D01*
X003405Y031955D02*
X003855Y031955D01*
X003855Y031805D02*
X003855Y032105D01*
X003780Y032265D02*
X003480Y032566D01*
X003780Y032566D01*
X003855Y032491D01*
X003855Y032340D01*
X003780Y032265D01*
X003480Y032265D01*
X003405Y032340D01*
X003405Y032491D01*
X003480Y032566D01*
X003480Y032726D02*
X003405Y032801D01*
X003405Y032951D01*
X003480Y033026D01*
X003780Y032726D01*
X003855Y032801D01*
X003855Y032951D01*
X003780Y033026D01*
X003480Y033026D01*
X003555Y033186D02*
X003780Y033186D01*
X003855Y033261D01*
X003855Y033486D01*
X003555Y033486D01*
X003630Y033647D02*
X003630Y033797D01*
X003405Y033647D02*
X003405Y033947D01*
X003405Y033647D02*
X003855Y033647D01*
X003780Y032726D02*
X003480Y032726D01*
X003405Y031955D02*
X003555Y031805D01*
X009505Y032109D02*
X009845Y032109D01*
X009845Y031996D02*
X009845Y032223D01*
X009618Y031996D02*
X009505Y032109D01*
X010205Y028795D02*
X010205Y028495D01*
X010430Y028495D01*
X010355Y028645D01*
X010355Y028720D01*
X010430Y028795D01*
X010580Y028795D01*
X010655Y028720D01*
X010655Y028570D01*
X010580Y028495D01*
X010655Y028334D02*
X010430Y028109D01*
X010505Y028034D02*
X010205Y028334D01*
X010205Y028034D02*
X010655Y028034D01*
X010655Y027874D02*
X010655Y027574D01*
X010655Y027724D02*
X010205Y027724D01*
X010355Y027574D01*
X012955Y027522D02*
X013330Y027522D01*
X013405Y027597D01*
X013405Y027747D01*
X013330Y027822D01*
X012955Y027822D01*
X012955Y027982D02*
X013405Y027982D01*
X013405Y028283D01*
X013405Y028443D02*
X012955Y028443D01*
X013405Y028743D01*
X012955Y028743D01*
X013030Y028903D02*
X012955Y028978D01*
X012955Y029128D01*
X013030Y029203D01*
X013105Y029203D01*
X013405Y028903D01*
X013405Y029203D01*
X013330Y029363D02*
X013255Y029363D01*
X013180Y029438D01*
X013180Y029589D01*
X013255Y029664D01*
X013330Y029664D01*
X013405Y029589D01*
X013405Y029438D01*
X013330Y029363D01*
X013180Y029438D02*
X013105Y029363D01*
X013030Y029363D01*
X012955Y029438D01*
X012955Y029589D01*
X013030Y029664D01*
X013105Y029664D01*
X013180Y029589D01*
X013330Y029824D02*
X013030Y030124D01*
X013330Y030124D01*
X013405Y030049D01*
X013405Y029899D01*
X013330Y029824D01*
X013030Y029824D01*
X012955Y029899D01*
X012955Y030049D01*
X013030Y030124D01*
X013030Y030284D02*
X012955Y030359D01*
X012955Y030509D01*
X013030Y030584D01*
X013105Y030584D01*
X013180Y030509D01*
X013255Y030584D01*
X013330Y030584D01*
X013405Y030509D01*
X013405Y030359D01*
X013330Y030284D01*
X013180Y030434D02*
X013180Y030509D01*
X013180Y030745D02*
X013180Y031045D01*
X013105Y031045D02*
X013405Y031045D01*
X013105Y031045D02*
X012955Y030895D01*
X013105Y030745D01*
X013405Y030745D01*
X014930Y034553D02*
X014930Y034778D01*
X015005Y034853D01*
X015080Y034853D01*
X015155Y034778D01*
X015155Y034628D01*
X015080Y034553D01*
X014930Y034553D01*
X014780Y034703D01*
X014705Y034853D01*
X014705Y035013D02*
X015155Y035314D01*
X014705Y035314D01*
X014855Y035474D02*
X014705Y035624D01*
X015155Y035624D01*
X015155Y035474D02*
X015155Y035774D01*
X015080Y035934D02*
X015155Y036009D01*
X015155Y036159D01*
X015080Y036234D01*
X015005Y036234D01*
X014930Y036159D01*
X014930Y036084D01*
X014930Y036159D02*
X014855Y036234D01*
X014780Y036234D01*
X014705Y036159D01*
X014705Y036009D01*
X014780Y035934D01*
X014705Y036395D02*
X014705Y036695D01*
X014780Y036695D01*
X015080Y036395D01*
X015155Y036395D01*
X015155Y035013D02*
X014705Y035013D01*
X020205Y035013D02*
X020655Y035314D01*
X020205Y035314D01*
X020355Y035474D02*
X020205Y035624D01*
X020655Y035624D01*
X020655Y035474D02*
X020655Y035774D01*
X020580Y035934D02*
X020655Y036009D01*
X020655Y036159D01*
X020580Y036234D01*
X020505Y036234D01*
X020430Y036159D01*
X020430Y036084D01*
X020430Y036159D02*
X020355Y036234D01*
X020280Y036234D01*
X020205Y036159D01*
X020205Y036009D01*
X020280Y035934D01*
X020205Y036395D02*
X020205Y036695D01*
X020280Y036695D01*
X020580Y036395D01*
X020655Y036395D01*
X020655Y035013D02*
X020205Y035013D01*
X020205Y034853D02*
X020280Y034703D01*
X020430Y034553D01*
X020430Y034778D01*
X020505Y034853D01*
X020580Y034853D01*
X020655Y034778D01*
X020655Y034628D01*
X020580Y034553D01*
X020430Y034553D01*
X020280Y031695D02*
X020580Y031395D01*
X020655Y031395D01*
X020580Y031234D02*
X020655Y031159D01*
X020655Y031009D01*
X020580Y030934D01*
X020655Y030774D02*
X020655Y030474D01*
X020655Y030624D02*
X020205Y030624D01*
X020355Y030474D01*
X020205Y030314D02*
X020655Y030314D01*
X020205Y030013D01*
X020655Y030013D01*
X020580Y029853D02*
X020505Y029853D01*
X020430Y029778D01*
X020430Y029553D01*
X020580Y029553D01*
X020655Y029628D01*
X020655Y029778D01*
X020580Y029853D01*
X020280Y029703D02*
X020430Y029553D01*
X020280Y029703D02*
X020205Y029853D01*
X020280Y030934D02*
X020205Y031009D01*
X020205Y031159D01*
X020280Y031234D01*
X020355Y031234D01*
X020430Y031159D01*
X020505Y031234D01*
X020580Y031234D01*
X020430Y031159D02*
X020430Y031084D01*
X020205Y031395D02*
X020205Y031695D01*
X020280Y031695D01*
X024005Y032609D02*
X024118Y032496D01*
X024005Y032609D02*
X024345Y032609D01*
X024345Y032496D02*
X024345Y032723D01*
X025930Y034553D02*
X025930Y034778D01*
X026005Y034853D01*
X026080Y034853D01*
X026155Y034778D01*
X026155Y034628D01*
X026080Y034553D01*
X025930Y034553D01*
X025780Y034703D01*
X025705Y034853D01*
X025705Y035013D02*
X026155Y035314D01*
X025705Y035314D01*
X025855Y035474D02*
X025705Y035624D01*
X026155Y035624D01*
X026155Y035474D02*
X026155Y035774D01*
X026080Y035934D02*
X026155Y036009D01*
X026155Y036159D01*
X026080Y036234D01*
X026005Y036234D01*
X025930Y036159D01*
X025930Y036084D01*
X025930Y036159D02*
X025855Y036234D01*
X025780Y036234D01*
X025705Y036159D01*
X025705Y036009D01*
X025780Y035934D01*
X025705Y036395D02*
X025705Y036695D01*
X025780Y036695D01*
X026080Y036395D01*
X026155Y036395D01*
X026155Y035013D02*
X025705Y035013D01*
X030955Y036040D02*
X031180Y035815D01*
X031180Y036115D01*
X031330Y036275D02*
X031405Y036275D01*
X031330Y036275D02*
X031030Y036576D01*
X030955Y036576D01*
X030955Y036275D01*
X030955Y036040D02*
X031405Y036040D01*
X031955Y035939D02*
X032030Y036014D01*
X032105Y036014D01*
X032180Y035939D01*
X032180Y035789D01*
X032105Y035714D01*
X032030Y035714D01*
X031955Y035789D01*
X031955Y035939D01*
X032180Y035939D02*
X032255Y036014D01*
X032330Y036014D01*
X032405Y035939D01*
X032405Y035789D01*
X032330Y035714D01*
X032255Y035714D01*
X032180Y035789D01*
X032030Y036174D02*
X031955Y036249D01*
X031955Y036399D01*
X032030Y036474D01*
X032105Y036474D01*
X032405Y036174D01*
X032405Y036474D01*
X032330Y036635D02*
X032030Y036935D01*
X032330Y036935D01*
X032405Y036860D01*
X032405Y036710D01*
X032330Y036635D01*
X032030Y036635D01*
X031955Y036710D01*
X031955Y036860D01*
X032030Y036935D01*
X031405Y036961D02*
X031405Y036811D01*
X031330Y036736D01*
X031030Y037036D01*
X031330Y037036D01*
X031405Y036961D01*
X031330Y036736D02*
X031030Y036736D01*
X030955Y036811D01*
X030955Y036961D01*
X031030Y037036D01*
X025080Y029295D02*
X025155Y029220D01*
X025155Y029070D01*
X025080Y028995D01*
X024930Y028995D02*
X024855Y029145D01*
X024855Y029220D01*
X024930Y029295D01*
X025080Y029295D01*
X024930Y028995D02*
X024705Y028995D01*
X024705Y029295D01*
X024705Y028834D02*
X025005Y028534D01*
X024930Y028609D02*
X025155Y028834D01*
X025155Y028534D02*
X024705Y028534D01*
X024705Y028224D02*
X025155Y028224D01*
X025155Y028074D02*
X025155Y028374D01*
X024855Y028074D02*
X024705Y028224D01*
X020655Y025895D02*
X020580Y025895D01*
X020280Y026195D01*
X020205Y026195D01*
X020205Y025895D01*
X020280Y025734D02*
X020355Y025734D01*
X020430Y025659D01*
X020505Y025734D01*
X020580Y025734D01*
X020655Y025659D01*
X020655Y025509D01*
X020580Y025434D01*
X020655Y025274D02*
X020655Y024974D01*
X020655Y025124D02*
X020205Y025124D01*
X020355Y024974D01*
X020205Y024814D02*
X020655Y024814D01*
X020205Y024513D01*
X020655Y024513D01*
X020580Y024353D02*
X020505Y024353D01*
X020430Y024278D01*
X020430Y024053D01*
X020580Y024053D01*
X020655Y024128D01*
X020655Y024278D01*
X020580Y024353D01*
X020280Y024203D02*
X020430Y024053D01*
X020280Y024203D02*
X020205Y024353D01*
X020280Y025434D02*
X020205Y025509D01*
X020205Y025659D01*
X020280Y025734D01*
X020430Y025659D02*
X020430Y025584D01*
X016855Y022782D02*
X016855Y022555D01*
X016855Y022668D02*
X016515Y022668D01*
X016628Y022555D01*
X018205Y020445D02*
X018280Y020445D01*
X018580Y020145D01*
X018655Y020145D01*
X018580Y019984D02*
X018655Y019909D01*
X018655Y019759D01*
X018580Y019684D01*
X018655Y019524D02*
X018655Y019224D01*
X018655Y019374D02*
X018205Y019374D01*
X018355Y019224D01*
X018205Y019064D02*
X018655Y019064D01*
X018205Y018763D01*
X018655Y018763D01*
X018580Y018603D02*
X018505Y018603D01*
X018430Y018528D01*
X018430Y018303D01*
X018580Y018303D01*
X018655Y018378D01*
X018655Y018528D01*
X018580Y018603D01*
X018280Y018453D02*
X018430Y018303D01*
X018280Y018453D02*
X018205Y018603D01*
X018280Y019684D02*
X018205Y019759D01*
X018205Y019909D01*
X018280Y019984D01*
X018355Y019984D01*
X018430Y019909D01*
X018505Y019984D01*
X018580Y019984D01*
X018430Y019909D02*
X018430Y019834D01*
X018205Y020145D02*
X018205Y020445D01*
X014195Y020055D02*
X014195Y019980D01*
X013895Y019680D01*
X013895Y019605D01*
X013734Y019605D02*
X013434Y019605D01*
X013584Y019605D02*
X013584Y020055D01*
X013434Y019905D01*
X013274Y019905D02*
X013199Y019830D01*
X013049Y019830D01*
X012974Y019905D01*
X012974Y019980D01*
X013049Y020055D01*
X013199Y020055D01*
X013274Y019980D01*
X013274Y019905D01*
X013199Y019830D02*
X013274Y019755D01*
X013274Y019680D01*
X013199Y019605D01*
X013049Y019605D01*
X012974Y019680D01*
X012974Y019755D01*
X013049Y019830D01*
X012814Y019680D02*
X012739Y019605D01*
X012588Y019605D01*
X012513Y019680D01*
X012513Y019980D01*
X012588Y020055D01*
X012739Y020055D01*
X012814Y019980D01*
X012353Y019980D02*
X012353Y019830D01*
X012278Y019755D01*
X012053Y019755D01*
X012053Y019605D02*
X012053Y020055D01*
X012278Y020055D01*
X012353Y019980D01*
X013895Y020055D02*
X014195Y020055D01*
X014195Y018055D02*
X013895Y018055D01*
X014195Y018055D02*
X014195Y017980D01*
X013895Y017680D01*
X013895Y017605D01*
X013734Y017605D02*
X013434Y017605D01*
X013584Y017605D02*
X013584Y018055D01*
X013434Y017905D01*
X013274Y017905D02*
X013199Y017830D01*
X013049Y017830D01*
X012974Y017905D01*
X012974Y017980D01*
X013049Y018055D01*
X013199Y018055D01*
X013274Y017980D01*
X013274Y017905D01*
X013199Y017830D02*
X013274Y017755D01*
X013274Y017680D01*
X013199Y017605D01*
X013049Y017605D01*
X012974Y017680D01*
X012974Y017755D01*
X013049Y017830D01*
X012814Y017680D02*
X012739Y017605D01*
X012588Y017605D01*
X012513Y017680D01*
X012513Y017980D01*
X012588Y018055D01*
X012739Y018055D01*
X012814Y017980D01*
X012353Y017980D02*
X012353Y017830D01*
X012278Y017755D01*
X012053Y017755D01*
X012053Y017605D02*
X012053Y018055D01*
X012278Y018055D01*
X012353Y017980D01*
X012278Y016055D02*
X012353Y015980D01*
X012353Y015830D01*
X012278Y015755D01*
X012053Y015755D01*
X012053Y015605D02*
X012053Y016055D01*
X012278Y016055D01*
X012513Y015980D02*
X012513Y015680D01*
X012588Y015605D01*
X012739Y015605D01*
X012814Y015680D01*
X012974Y015680D02*
X012974Y015755D01*
X013049Y015830D01*
X013199Y015830D01*
X013274Y015755D01*
X013274Y015680D01*
X013199Y015605D01*
X013049Y015605D01*
X012974Y015680D01*
X013049Y015830D02*
X012974Y015905D01*
X012974Y015980D01*
X013049Y016055D01*
X013199Y016055D01*
X013274Y015980D01*
X013274Y015905D01*
X013199Y015830D01*
X013434Y015905D02*
X013584Y016055D01*
X013584Y015605D01*
X013434Y015605D02*
X013734Y015605D01*
X013895Y015605D02*
X013895Y015680D01*
X014195Y015980D01*
X014195Y016055D01*
X013895Y016055D01*
X012814Y015980D02*
X012739Y016055D01*
X012588Y016055D01*
X012513Y015980D01*
X012588Y014055D02*
X012513Y013980D01*
X012513Y013680D01*
X012588Y013605D01*
X012739Y013605D01*
X012814Y013680D01*
X012974Y013680D02*
X012974Y013755D01*
X013049Y013830D01*
X013199Y013830D01*
X013274Y013755D01*
X013274Y013680D01*
X013199Y013605D01*
X013049Y013605D01*
X012974Y013680D01*
X013049Y013830D02*
X012974Y013905D01*
X012974Y013980D01*
X013049Y014055D01*
X013199Y014055D01*
X013274Y013980D01*
X013274Y013905D01*
X013199Y013830D01*
X013434Y013905D02*
X013584Y014055D01*
X013584Y013605D01*
X013434Y013605D02*
X013734Y013605D01*
X013895Y013605D02*
X013895Y013680D01*
X014195Y013980D01*
X014195Y014055D01*
X013895Y014055D01*
X012814Y013980D02*
X012739Y014055D01*
X012588Y014055D01*
X012353Y013980D02*
X012353Y013830D01*
X012278Y013755D01*
X012053Y013755D01*
X012053Y013605D02*
X012053Y014055D01*
X012278Y014055D01*
X012353Y013980D01*
X012278Y012055D02*
X012353Y011980D01*
X012353Y011830D01*
X012278Y011755D01*
X012053Y011755D01*
X012053Y011605D02*
X012053Y012055D01*
X012278Y012055D01*
X012513Y011980D02*
X012513Y011680D01*
X012588Y011605D01*
X012739Y011605D01*
X012814Y011680D01*
X012974Y011680D02*
X012974Y011755D01*
X013049Y011830D01*
X013199Y011830D01*
X013274Y011755D01*
X013274Y011680D01*
X013199Y011605D01*
X013049Y011605D01*
X012974Y011680D01*
X013049Y011830D02*
X012974Y011905D01*
X012974Y011980D01*
X013049Y012055D01*
X013199Y012055D01*
X013274Y011980D01*
X013274Y011905D01*
X013199Y011830D01*
X013434Y011905D02*
X013584Y012055D01*
X013584Y011605D01*
X013434Y011605D02*
X013734Y011605D01*
X013895Y011605D02*
X013895Y011680D01*
X014195Y011980D01*
X014195Y012055D01*
X013895Y012055D01*
X012814Y011980D02*
X012739Y012055D01*
X012588Y012055D01*
X012513Y011980D01*
X012588Y010055D02*
X012513Y009980D01*
X012513Y009680D01*
X012588Y009605D01*
X012739Y009605D01*
X012814Y009680D01*
X012974Y009680D02*
X012974Y009755D01*
X013049Y009830D01*
X013199Y009830D01*
X013274Y009755D01*
X013274Y009680D01*
X013199Y009605D01*
X013049Y009605D01*
X012974Y009680D01*
X013049Y009830D02*
X012974Y009905D01*
X012974Y009980D01*
X013049Y010055D01*
X013199Y010055D01*
X013274Y009980D01*
X013274Y009905D01*
X013199Y009830D01*
X013434Y009905D02*
X013584Y010055D01*
X013584Y009605D01*
X013434Y009605D02*
X013734Y009605D01*
X013895Y009605D02*
X013895Y009680D01*
X014195Y009980D01*
X014195Y010055D01*
X013895Y010055D01*
X012814Y009980D02*
X012739Y010055D01*
X012588Y010055D01*
X012353Y009980D02*
X012353Y009830D01*
X012278Y009755D01*
X012053Y009755D01*
X012053Y009605D02*
X012053Y010055D01*
X012278Y010055D01*
X012353Y009980D01*
X012278Y008055D02*
X012353Y007980D01*
X012353Y007830D01*
X012278Y007755D01*
X012053Y007755D01*
X012053Y007605D02*
X012053Y008055D01*
X012278Y008055D01*
X012513Y007980D02*
X012513Y007680D01*
X012588Y007605D01*
X012739Y007605D01*
X012814Y007680D01*
X012974Y007680D02*
X012974Y007755D01*
X013049Y007830D01*
X013199Y007830D01*
X013274Y007755D01*
X013274Y007680D01*
X013199Y007605D01*
X013049Y007605D01*
X012974Y007680D01*
X013049Y007830D02*
X012974Y007905D01*
X012974Y007980D01*
X013049Y008055D01*
X013199Y008055D01*
X013274Y007980D01*
X013274Y007905D01*
X013199Y007830D01*
X013434Y007905D02*
X013584Y008055D01*
X013584Y007605D01*
X013434Y007605D02*
X013734Y007605D01*
X013895Y007605D02*
X013895Y007680D01*
X014195Y007980D01*
X014195Y008055D01*
X013895Y008055D01*
X012814Y007980D02*
X012739Y008055D01*
X012588Y008055D01*
X012513Y007980D01*
X012588Y006055D02*
X012513Y005980D01*
X012513Y005680D01*
X012588Y005605D01*
X012739Y005605D01*
X012814Y005680D01*
X012974Y005680D02*
X012974Y005755D01*
X013049Y005830D01*
X013199Y005830D01*
X013274Y005755D01*
X013274Y005680D01*
X013199Y005605D01*
X013049Y005605D01*
X012974Y005680D01*
X013049Y005830D02*
X012974Y005905D01*
X012974Y005980D01*
X013049Y006055D01*
X013199Y006055D01*
X013274Y005980D01*
X013274Y005905D01*
X013199Y005830D01*
X013434Y005905D02*
X013584Y006055D01*
X013584Y005605D01*
X013434Y005605D02*
X013734Y005605D01*
X013895Y005605D02*
X013895Y005680D01*
X014195Y005980D01*
X014195Y006055D01*
X013895Y006055D01*
X012814Y005980D02*
X012739Y006055D01*
X012588Y006055D01*
X012353Y005980D02*
X012353Y005830D01*
X012278Y005755D01*
X012053Y005755D01*
X012053Y005605D02*
X012053Y006055D01*
X012278Y006055D01*
X012353Y005980D01*
X009605Y005532D02*
X009605Y005305D01*
X009605Y005418D02*
X009265Y005418D01*
X009378Y005305D01*
X007709Y004905D02*
X007709Y004830D01*
X007409Y004530D01*
X007409Y004455D01*
X007251Y004455D02*
X007025Y004605D01*
X007251Y004755D01*
X007409Y004905D02*
X007709Y004905D01*
X007025Y004905D02*
X007025Y004455D01*
X006790Y004455D02*
X006790Y004905D01*
X006565Y004680D01*
X006865Y004680D01*
X007605Y003330D02*
X009255Y003330D01*
X009317Y002780D02*
X009475Y002780D01*
X008543Y002780D02*
X008317Y002780D01*
X009255Y003330D02*
X009290Y003282D01*
X009323Y003232D01*
X009354Y003180D01*
X009381Y003126D01*
X009405Y003071D01*
X009425Y003014D01*
X009443Y002957D01*
X009457Y002899D01*
X009468Y002840D01*
X009475Y002780D01*
X009479Y002718D01*
X009480Y002655D01*
X009476Y002593D01*
X009469Y002531D01*
X009459Y002470D01*
X009444Y002409D01*
X009426Y002349D01*
X009405Y002290D01*
X009380Y002233D01*
X009352Y002178D01*
X009321Y002124D01*
X009286Y002072D01*
X009248Y002022D01*
X009208Y001975D01*
X009164Y001930D01*
X009119Y001887D01*
X009070Y001848D01*
X009020Y001811D01*
X008967Y001778D01*
X008913Y001747D01*
X008856Y001720D01*
X008799Y001697D01*
X008740Y001677D01*
X008759Y001405D02*
X008534Y001180D01*
X008834Y001180D01*
X008995Y001030D02*
X008995Y000955D01*
X008995Y001030D02*
X009295Y001330D01*
X009295Y001405D01*
X008995Y001405D01*
X008759Y001405D02*
X008759Y000955D01*
X008374Y001030D02*
X008299Y000955D01*
X008149Y000955D01*
X008074Y001030D01*
X008074Y001180D02*
X008224Y001255D01*
X008299Y001255D01*
X008374Y001180D01*
X008374Y001030D01*
X008074Y001180D02*
X008074Y001405D01*
X008374Y001405D01*
X007914Y001330D02*
X007839Y001405D01*
X007688Y001405D01*
X007613Y001330D01*
X007613Y001030D01*
X007688Y000955D01*
X007839Y000955D01*
X007914Y001030D01*
X007453Y001030D02*
X007378Y000955D01*
X007153Y000955D01*
X007153Y001405D01*
X007378Y001405D01*
X007453Y001330D01*
X007453Y001255D01*
X007378Y001180D01*
X007153Y001180D01*
X007378Y001180D02*
X007453Y001105D01*
X007453Y001030D01*
X007385Y002780D02*
X007543Y002780D01*
X007605Y003330D02*
X007568Y003279D01*
X007533Y003226D01*
X007501Y003170D01*
X007473Y003113D01*
X007449Y003054D01*
X007428Y002994D01*
X007411Y002933D01*
X007397Y002871D01*
X007388Y002808D01*
X007382Y002745D01*
X007380Y002681D01*
X007382Y002617D01*
X007388Y002554D01*
X007397Y002491D01*
X007410Y002429D01*
X007428Y002368D01*
X007448Y002308D01*
X007473Y002249D01*
X007500Y002192D01*
X007532Y002136D01*
X007566Y002083D01*
X007604Y002032D01*
X007645Y001983D01*
X007689Y001937D01*
X007735Y001893D01*
X007784Y001852D01*
X007835Y001815D01*
X007889Y001780D01*
X007944Y001749D01*
X008001Y001721D01*
X008060Y001697D01*
X008120Y001677D01*
X011464Y001780D02*
X011464Y001855D01*
X011539Y001930D01*
X011689Y001930D01*
X011764Y001855D01*
X011764Y001780D01*
X011689Y001705D01*
X011539Y001705D01*
X011464Y001780D01*
X011539Y001930D02*
X011464Y002005D01*
X011464Y002080D01*
X011539Y002155D01*
X011689Y002155D01*
X011764Y002080D01*
X011764Y002005D01*
X011689Y001930D01*
X011924Y002080D02*
X011999Y002155D01*
X012149Y002155D01*
X012224Y002080D01*
X012224Y002005D01*
X011924Y001705D01*
X012224Y001705D01*
X012385Y001705D02*
X012385Y002155D01*
X012460Y001930D02*
X012685Y001705D01*
X012385Y001855D02*
X012685Y002155D01*
X012610Y002705D02*
X012460Y002705D01*
X012385Y002780D01*
X012685Y003080D01*
X012685Y002780D01*
X012610Y002705D01*
X012385Y002780D02*
X012385Y003080D01*
X012460Y003155D01*
X012610Y003155D01*
X012685Y003080D01*
X012224Y003155D02*
X012074Y003080D01*
X011924Y002930D01*
X012149Y002930D01*
X012224Y002855D01*
X012224Y002780D01*
X012149Y002705D01*
X011999Y002705D01*
X011924Y002780D01*
X011924Y002930D01*
X011764Y002930D02*
X011764Y002780D01*
X011689Y002705D01*
X011539Y002705D01*
X011464Y002780D01*
X011464Y002930D02*
X011614Y003005D01*
X011689Y003005D01*
X011764Y002930D01*
X011764Y003155D02*
X011464Y003155D01*
X011464Y002930D01*
X014955Y000905D02*
X014955Y000455D01*
X015180Y000455D01*
X015255Y000530D01*
X015255Y000605D01*
X015180Y000680D01*
X014955Y000680D01*
X015180Y000680D02*
X015255Y000755D01*
X015255Y000830D01*
X015180Y000905D01*
X014955Y000905D01*
X015415Y000830D02*
X015415Y000530D01*
X015490Y000455D01*
X015641Y000455D01*
X015716Y000530D01*
X015876Y000530D02*
X015951Y000455D01*
X016101Y000455D01*
X016176Y000530D01*
X016176Y000680D01*
X016101Y000755D01*
X016026Y000755D01*
X015876Y000680D01*
X015876Y000905D01*
X016176Y000905D01*
X016030Y001135D02*
X016030Y001293D01*
X015641Y000905D02*
X015490Y000905D01*
X015415Y000830D01*
X015641Y000905D02*
X015716Y000830D01*
X016336Y000680D02*
X016636Y000680D01*
X016797Y000530D02*
X017097Y000830D01*
X017097Y000905D01*
X016797Y000905D01*
X016561Y000905D02*
X016561Y000455D01*
X016797Y000455D02*
X016797Y000530D01*
X016561Y000905D02*
X016336Y000680D01*
X016580Y001355D02*
X016580Y003005D01*
X016030Y003067D02*
X016030Y003225D01*
X016030Y002293D02*
X016030Y002067D01*
X016580Y001355D02*
X016532Y001320D01*
X016482Y001287D01*
X016430Y001256D01*
X016376Y001229D01*
X016321Y001205D01*
X016264Y001185D01*
X016207Y001167D01*
X016149Y001153D01*
X016090Y001142D01*
X016030Y001135D01*
X015968Y001131D01*
X015905Y001130D01*
X015843Y001134D01*
X015781Y001141D01*
X015720Y001151D01*
X015659Y001166D01*
X015599Y001184D01*
X015540Y001205D01*
X015483Y001230D01*
X015428Y001258D01*
X015374Y001289D01*
X015322Y001324D01*
X015272Y001362D01*
X015225Y001402D01*
X015180Y001446D01*
X015137Y001491D01*
X015098Y001540D01*
X015061Y001590D01*
X015028Y001643D01*
X014997Y001697D01*
X014970Y001754D01*
X014947Y001811D01*
X014927Y001870D01*
X014927Y002490D02*
X014947Y002550D01*
X014971Y002609D01*
X014999Y002666D01*
X015030Y002721D01*
X015065Y002775D01*
X015102Y002826D01*
X015143Y002875D01*
X015187Y002921D01*
X015233Y002965D01*
X015282Y003006D01*
X015333Y003044D01*
X015386Y003078D01*
X015442Y003110D01*
X015499Y003137D01*
X015558Y003162D01*
X015618Y003182D01*
X015679Y003200D01*
X015741Y003213D01*
X015804Y003222D01*
X015867Y003228D01*
X015931Y003230D01*
X015995Y003228D01*
X016058Y003222D01*
X016121Y003213D01*
X016183Y003199D01*
X016244Y003182D01*
X016304Y003161D01*
X016363Y003137D01*
X016420Y003109D01*
X016476Y003077D01*
X016529Y003042D01*
X016580Y003005D01*
X017313Y003505D02*
X017614Y003505D01*
X017464Y003505D02*
X017464Y003955D01*
X017313Y003805D01*
X018234Y003805D02*
X018234Y003580D01*
X018309Y003505D01*
X018534Y003505D01*
X018534Y003805D01*
X018695Y003730D02*
X018845Y003730D01*
X018695Y003505D02*
X018695Y003955D01*
X018995Y003955D01*
X017605Y005055D02*
X017605Y005282D01*
X017605Y005168D02*
X017265Y005168D01*
X017378Y005055D01*
X020553Y002305D02*
X020553Y001855D01*
X020553Y002005D02*
X020778Y002005D01*
X020853Y002080D01*
X020853Y002230D01*
X020778Y002305D01*
X020553Y002305D01*
X021013Y002230D02*
X021013Y001930D01*
X021088Y001855D01*
X021239Y001855D01*
X021314Y001930D01*
X021474Y001930D02*
X021474Y002005D01*
X021549Y002080D01*
X021699Y002080D01*
X021774Y002005D01*
X021774Y001930D01*
X021699Y001855D01*
X021549Y001855D01*
X021474Y001930D01*
X021549Y002080D02*
X021474Y002155D01*
X021474Y002230D01*
X021549Y002305D01*
X021699Y002305D01*
X021774Y002230D01*
X021774Y002155D01*
X021699Y002080D01*
X021934Y002155D02*
X022084Y002305D01*
X022084Y001855D01*
X021934Y001855D02*
X022234Y001855D01*
X022395Y002080D02*
X022695Y002080D01*
X022620Y001855D02*
X022620Y002305D01*
X022395Y002080D01*
X021314Y002230D02*
X021239Y002305D01*
X021088Y002305D01*
X021013Y002230D01*
X021555Y006455D02*
X021555Y006905D01*
X021705Y006755D01*
X021855Y006905D01*
X021855Y006455D01*
X022015Y006530D02*
X022015Y006830D01*
X022090Y006905D01*
X022241Y006905D01*
X022316Y006830D01*
X022476Y006755D02*
X022626Y006905D01*
X022626Y006455D01*
X022476Y006455D02*
X022776Y006455D01*
X022936Y006680D02*
X023161Y006905D01*
X023161Y006455D01*
X023236Y006680D02*
X022936Y006680D01*
X023397Y006605D02*
X023472Y006680D01*
X023622Y006680D01*
X023697Y006605D01*
X023697Y006530D01*
X023622Y006455D01*
X023472Y006455D01*
X023397Y006530D01*
X023397Y006605D01*
X023472Y006680D02*
X023397Y006755D01*
X023397Y006830D01*
X023472Y006905D01*
X023622Y006905D01*
X023697Y006830D01*
X023697Y006755D01*
X023622Y006680D01*
X023857Y006755D02*
X023932Y006680D01*
X024157Y006680D01*
X024157Y006530D02*
X024157Y006830D01*
X024082Y006905D01*
X023932Y006905D01*
X023857Y006830D01*
X023857Y006755D01*
X023857Y006530D02*
X023932Y006455D01*
X024082Y006455D01*
X024157Y006530D01*
X024317Y006455D02*
X024543Y006455D01*
X024618Y006530D01*
X024618Y006830D01*
X024543Y006905D01*
X024317Y006905D01*
X024317Y006455D01*
X024778Y006455D02*
X024928Y006455D01*
X024853Y006455D02*
X024853Y006905D01*
X024778Y006905D02*
X024928Y006905D01*
X025085Y006905D02*
X025310Y006905D01*
X025385Y006830D01*
X025385Y006680D01*
X025310Y006605D01*
X025085Y006605D01*
X025085Y006455D02*
X025085Y006905D01*
X022316Y006530D02*
X022241Y006455D01*
X022090Y006455D01*
X022015Y006530D01*
X016905Y008530D02*
X016905Y008680D01*
X016830Y008755D01*
X016755Y008755D01*
X016680Y008680D01*
X016680Y008455D01*
X016830Y008455D01*
X016905Y008530D01*
X016680Y008455D02*
X016530Y008605D01*
X016455Y008755D01*
X016530Y008915D02*
X016605Y008915D01*
X016680Y008990D01*
X016680Y009141D01*
X016755Y009216D01*
X016830Y009216D01*
X016905Y009141D01*
X016905Y008990D01*
X016830Y008915D01*
X016755Y008915D01*
X016680Y008990D01*
X016680Y009141D02*
X016605Y009216D01*
X016530Y009216D01*
X016455Y009141D01*
X016455Y008990D01*
X016530Y008915D01*
X016530Y009376D02*
X016455Y009451D01*
X016455Y009601D01*
X016530Y009676D01*
X016830Y009376D01*
X016905Y009451D01*
X016905Y009601D01*
X016830Y009676D01*
X016530Y009676D01*
X016530Y009376D02*
X016830Y009376D01*
X021555Y013205D02*
X021555Y013655D01*
X021705Y013505D01*
X021855Y013655D01*
X021855Y013205D01*
X022015Y013280D02*
X022015Y013580D01*
X022090Y013655D01*
X022241Y013655D01*
X022316Y013580D01*
X022476Y013505D02*
X022626Y013655D01*
X022626Y013205D01*
X022476Y013205D02*
X022776Y013205D01*
X022936Y013430D02*
X023161Y013655D01*
X023161Y013205D01*
X023236Y013430D02*
X022936Y013430D01*
X023397Y013355D02*
X023472Y013430D01*
X023622Y013430D01*
X023697Y013355D01*
X023697Y013280D01*
X023622Y013205D01*
X023472Y013205D01*
X023397Y013280D01*
X023397Y013355D01*
X023472Y013430D02*
X023397Y013505D01*
X023397Y013580D01*
X023472Y013655D01*
X023622Y013655D01*
X023697Y013580D01*
X023697Y013505D01*
X023622Y013430D01*
X023857Y013505D02*
X023932Y013430D01*
X024157Y013430D01*
X024157Y013280D02*
X024157Y013580D01*
X024082Y013655D01*
X023932Y013655D01*
X023857Y013580D01*
X023857Y013505D01*
X023857Y013280D02*
X023932Y013205D01*
X024082Y013205D01*
X024157Y013280D01*
X024317Y013205D02*
X024543Y013205D01*
X024618Y013280D01*
X024618Y013580D01*
X024543Y013655D01*
X024317Y013655D01*
X024317Y013205D01*
X024778Y013205D02*
X024928Y013205D01*
X024853Y013205D02*
X024853Y013655D01*
X024778Y013655D02*
X024928Y013655D01*
X025085Y013655D02*
X025310Y013655D01*
X025385Y013580D01*
X025385Y013430D01*
X025310Y013355D01*
X025085Y013355D01*
X025085Y013205D02*
X025085Y013655D01*
X022316Y013280D02*
X022241Y013205D01*
X022090Y013205D01*
X022015Y013280D01*
X023930Y018303D02*
X023930Y018528D01*
X024005Y018603D01*
X024080Y018603D01*
X024155Y018528D01*
X024155Y018378D01*
X024080Y018303D01*
X023930Y018303D01*
X023780Y018453D01*
X023705Y018603D01*
X023705Y018763D02*
X024155Y019064D01*
X023705Y019064D01*
X023855Y019224D02*
X023705Y019374D01*
X024155Y019374D01*
X024155Y019224D02*
X024155Y019524D01*
X024080Y019684D02*
X024155Y019759D01*
X024155Y019909D01*
X024080Y019984D01*
X024005Y019984D01*
X023930Y019909D01*
X023930Y019834D01*
X023930Y019909D02*
X023855Y019984D01*
X023780Y019984D01*
X023705Y019909D01*
X023705Y019759D01*
X023780Y019684D01*
X023705Y020145D02*
X023705Y020445D01*
X023780Y020445D01*
X024080Y020145D01*
X024155Y020145D01*
X024155Y018763D02*
X023705Y018763D01*
X029205Y018763D02*
X029655Y019064D01*
X029205Y019064D01*
X029355Y019224D02*
X029205Y019374D01*
X029655Y019374D01*
X029655Y019224D02*
X029655Y019524D01*
X029580Y019684D02*
X029655Y019759D01*
X029655Y019909D01*
X029580Y019984D01*
X029505Y019984D01*
X029430Y019909D01*
X029430Y019834D01*
X029430Y019909D02*
X029355Y019984D01*
X029280Y019984D01*
X029205Y019909D01*
X029205Y019759D01*
X029280Y019684D01*
X029205Y020145D02*
X029205Y020445D01*
X029280Y020445D01*
X029580Y020145D01*
X029655Y020145D01*
X029655Y018763D02*
X029205Y018763D01*
X029205Y018603D02*
X029280Y018453D01*
X029430Y018303D01*
X029430Y018528D01*
X029505Y018603D01*
X029580Y018603D01*
X029655Y018528D01*
X029655Y018378D01*
X029580Y018303D01*
X029430Y018303D01*
X034205Y018615D02*
X034280Y018465D01*
X034430Y018315D01*
X034430Y018540D01*
X034505Y018615D01*
X034580Y018615D01*
X034655Y018540D01*
X034655Y018390D01*
X034580Y018315D01*
X034430Y018315D01*
X034505Y018775D02*
X034430Y018850D01*
X034430Y019001D01*
X034505Y019076D01*
X034580Y019076D01*
X034655Y019001D01*
X034655Y018850D01*
X034580Y018775D01*
X034505Y018775D01*
X034430Y018850D02*
X034355Y018775D01*
X034280Y018775D01*
X034205Y018850D01*
X034205Y019001D01*
X034280Y019076D01*
X034355Y019076D01*
X034430Y019001D01*
X034580Y019236D02*
X034280Y019236D01*
X034205Y019311D01*
X034205Y019461D01*
X034280Y019536D01*
X034580Y019236D01*
X034655Y019311D01*
X034655Y019461D01*
X034580Y019536D01*
X034280Y019536D01*
X033155Y025205D02*
X033155Y025505D01*
X033155Y025355D02*
X032705Y025355D01*
X032855Y025205D01*
X032155Y025205D02*
X031855Y025505D01*
X031780Y025505D01*
X031705Y025430D01*
X031705Y025280D01*
X031780Y025205D01*
X032155Y025205D02*
X032155Y025505D01*
X033705Y027805D02*
X033555Y027955D01*
X034005Y027955D01*
X034005Y027805D02*
X034005Y028105D01*
X033930Y028265D02*
X033630Y028566D01*
X033930Y028566D01*
X034005Y028491D01*
X034005Y028340D01*
X033930Y028265D01*
X033630Y028265D01*
X033555Y028340D01*
X033555Y028491D01*
X033630Y028566D01*
X016155Y027101D02*
X016155Y026951D01*
X016080Y026876D01*
X015780Y027176D01*
X016080Y027176D01*
X016155Y027101D01*
X016080Y026876D02*
X015780Y026876D01*
X015705Y026951D01*
X015705Y027101D01*
X015780Y027176D01*
X015780Y026716D02*
X015705Y026641D01*
X015705Y026490D01*
X015780Y026415D01*
X015780Y026255D02*
X015855Y026255D01*
X015930Y026180D01*
X015930Y026030D01*
X015855Y025955D01*
X015780Y025955D01*
X015705Y026030D01*
X015705Y026180D01*
X015780Y026255D01*
X015930Y026180D02*
X016005Y026255D01*
X016080Y026255D01*
X016155Y026180D01*
X016155Y026030D01*
X016080Y025955D01*
X016005Y025955D01*
X015930Y026030D01*
X016155Y026415D02*
X015855Y026716D01*
X015780Y026716D01*
X016155Y026716D02*
X016155Y026415D01*
X005305Y020120D02*
X005230Y020195D01*
X005155Y020195D01*
X005080Y020120D01*
X005080Y019895D01*
X005230Y019895D01*
X005305Y019970D01*
X005305Y020120D01*
X005080Y019895D02*
X004930Y020045D01*
X004855Y020195D01*
X004930Y019734D02*
X004855Y019659D01*
X004855Y019509D01*
X004930Y019434D01*
X004930Y019734D02*
X005005Y019734D01*
X005305Y019434D01*
X005305Y019734D01*
X003830Y012745D02*
X003905Y012670D01*
X003905Y012520D01*
X003830Y012445D01*
X003905Y012284D02*
X003905Y011984D01*
X003905Y012134D02*
X003455Y012134D01*
X003605Y011984D01*
X003530Y012445D02*
X003455Y012520D01*
X003455Y012670D01*
X003530Y012745D01*
X003605Y012745D01*
X003680Y012670D01*
X003755Y012745D01*
X003830Y012745D01*
X003680Y012670D02*
X003680Y012595D01*
X002905Y012620D02*
X002830Y012545D01*
X002905Y012620D02*
X002905Y012770D01*
X002830Y012845D01*
X002680Y012845D01*
X002605Y012770D01*
X002605Y012695D01*
X002680Y012545D01*
X002455Y012545D01*
X002455Y012845D01*
X002530Y012384D02*
X002455Y012309D01*
X002455Y012159D01*
X002530Y012084D01*
X002530Y012384D02*
X002605Y012384D01*
X002905Y012084D01*
X002905Y012384D01*
X002055Y011648D02*
X001980Y011573D01*
X001680Y011573D01*
X001755Y011498D02*
X001755Y011648D01*
X001755Y011340D02*
X001755Y011265D01*
X001905Y011114D01*
X002055Y011114D02*
X001755Y011114D01*
X001830Y010954D02*
X001755Y010879D01*
X001755Y010729D01*
X001830Y010654D01*
X001980Y010654D01*
X002055Y010729D01*
X002055Y010879D01*
X001980Y010954D01*
X001830Y010954D01*
X001830Y010494D02*
X002055Y010494D01*
X001830Y010494D02*
X001755Y010419D01*
X001755Y010269D01*
X001830Y010194D01*
X001755Y010033D02*
X001755Y009808D01*
X001830Y009733D01*
X001905Y009808D01*
X001905Y009958D01*
X001980Y010033D01*
X002055Y009958D01*
X002055Y009733D01*
X002055Y010194D02*
X001605Y010194D01*
X001305Y010194D02*
X001305Y010494D01*
X001230Y010654D02*
X001305Y010729D01*
X001305Y010879D01*
X001230Y010954D01*
X001080Y010954D01*
X001005Y010879D01*
X001005Y010804D01*
X001080Y010654D01*
X000855Y010654D01*
X000855Y010954D01*
X000930Y010494D02*
X000855Y010419D01*
X000855Y010269D01*
X000930Y010194D01*
X000855Y010033D02*
X001305Y010033D01*
X001305Y010194D02*
X001005Y010494D01*
X000930Y010494D01*
X001080Y010033D02*
X001080Y009733D01*
X001305Y009733D02*
X000855Y009733D01*
X003714Y008680D02*
X003939Y008680D01*
X004014Y008605D01*
X004014Y008530D01*
X003939Y008455D01*
X003789Y008455D01*
X003714Y008530D01*
X003714Y008680D01*
X003864Y008830D01*
X004014Y008905D01*
X004174Y008830D02*
X004174Y008755D01*
X004249Y008680D01*
X004399Y008680D01*
X004474Y008605D01*
X004474Y008530D01*
X004399Y008455D01*
X004249Y008455D01*
X004174Y008530D01*
X004174Y008605D01*
X004249Y008680D01*
X004399Y008680D02*
X004474Y008755D01*
X004474Y008830D01*
X004399Y008905D01*
X004249Y008905D01*
X004174Y008830D01*
X004635Y008830D02*
X004635Y008530D01*
X004935Y008830D01*
X004935Y008530D01*
X004860Y008455D01*
X004710Y008455D01*
X004635Y008530D01*
X004635Y008830D02*
X004710Y008905D01*
X004860Y008905D01*
X004935Y008830D01*
X006163Y007905D02*
X006314Y008055D01*
X006314Y007605D01*
X006464Y007605D02*
X006163Y007605D01*
X006624Y007680D02*
X006624Y007980D01*
X006699Y008055D01*
X006849Y008055D01*
X006924Y007980D01*
X006624Y007680D01*
X006699Y007605D01*
X006849Y007605D01*
X006924Y007680D01*
X006924Y007980D01*
X007084Y007905D02*
X007084Y007680D01*
X007159Y007605D01*
X007384Y007605D01*
X007384Y007905D01*
X007545Y007830D02*
X007695Y007830D01*
X007545Y007605D02*
X007545Y008055D01*
X007845Y008055D01*
X008680Y008705D02*
X008680Y009005D01*
X008755Y009165D02*
X008455Y009466D01*
X008455Y009626D02*
X008455Y009926D01*
X008530Y009926D01*
X008830Y009626D01*
X008905Y009626D01*
X008905Y009466D02*
X008680Y009240D01*
X008455Y009165D02*
X008905Y009165D01*
X008905Y008930D02*
X008455Y008930D01*
X008680Y008705D01*
X031705Y007430D02*
X031705Y007280D01*
X031780Y007205D01*
X031705Y007430D02*
X031780Y007505D01*
X031855Y007505D01*
X032155Y007205D01*
X032155Y007505D01*
X032705Y007355D02*
X033155Y007355D01*
X033155Y007205D02*
X033155Y007505D01*
X032855Y007205D02*
X032705Y007355D01*
X033705Y009805D02*
X033555Y009955D01*
X034005Y009955D01*
X034005Y009805D02*
X034005Y010105D01*
X033930Y010265D02*
X033630Y010566D01*
X033930Y010566D01*
X034005Y010491D01*
X034005Y010340D01*
X033930Y010265D01*
X033630Y010265D01*
X033555Y010340D01*
X033555Y010491D01*
X033630Y010566D01*
D16*
X032550Y014630D02*
X032550Y015230D01*
X032300Y015230D02*
X032300Y014630D01*
X029300Y016130D02*
X029300Y016730D01*
X029050Y016730D02*
X029050Y016130D01*
X028730Y013560D02*
X028130Y013560D01*
X028130Y013310D02*
X028730Y013310D01*
X027480Y010310D02*
X026880Y010310D01*
X026880Y010060D02*
X027480Y010060D01*
X026480Y010050D02*
X025880Y010050D01*
X025880Y010300D02*
X026480Y010300D01*
X025480Y010310D02*
X024880Y010310D01*
X024880Y010060D02*
X025480Y010060D01*
X023480Y010050D02*
X022880Y010050D01*
X022880Y010300D02*
X023480Y010300D01*
X022480Y010310D02*
X021880Y010310D01*
X021880Y010060D02*
X022480Y010060D01*
X021480Y010060D02*
X020880Y010060D01*
X020880Y010310D02*
X021480Y010310D01*
X020230Y013310D02*
X019630Y013310D01*
X019630Y013560D02*
X020230Y013560D01*
X018550Y016130D02*
X018550Y016730D01*
X018300Y016730D02*
X018300Y016130D01*
X018300Y021630D02*
X018300Y022230D01*
X018550Y022230D02*
X018550Y021630D01*
X013300Y021880D02*
X013300Y022480D01*
X013050Y022480D02*
X013050Y021880D01*
X009730Y019560D02*
X009130Y019560D01*
X009130Y019310D02*
X009730Y019310D01*
X009730Y016810D02*
X009130Y016810D01*
X009130Y016560D02*
X009730Y016560D01*
X019630Y006800D02*
X020230Y006800D01*
X020230Y006550D02*
X019630Y006550D01*
X028130Y006560D02*
X028730Y006560D01*
X028730Y006810D02*
X028130Y006810D01*
X032310Y005730D02*
X032310Y005130D01*
X032560Y005130D02*
X032560Y005730D01*
X024060Y016130D02*
X024060Y016730D01*
X023810Y016730D02*
X023810Y016130D01*
X023810Y021630D02*
X023810Y022230D01*
X024060Y022230D02*
X024060Y021630D01*
X029060Y021630D02*
X029060Y022230D01*
X029310Y022230D02*
X029310Y021630D01*
X032300Y023130D02*
X032300Y023730D01*
X032550Y023730D02*
X032550Y023130D01*
X032550Y032630D02*
X032550Y033230D01*
X032300Y033230D02*
X032300Y032630D01*
X026050Y037880D02*
X026050Y038480D01*
X025800Y038480D02*
X025800Y037880D01*
X020550Y037880D02*
X020550Y038480D01*
X020300Y038480D02*
X020300Y037880D01*
X015060Y037880D02*
X015060Y038480D01*
X014810Y038480D02*
X014810Y037880D01*
X013310Y032980D02*
X013310Y032380D01*
X013060Y032380D02*
X013060Y032980D01*
X005730Y031800D02*
X005130Y031800D01*
X005130Y031550D02*
X005730Y031550D01*
X005730Y029810D02*
X005130Y029810D01*
X005130Y029560D02*
X005730Y029560D01*
X020310Y027980D02*
X020310Y027380D01*
X020560Y027380D02*
X020560Y027980D01*
D17*
X011064Y035430D02*
X011066Y035472D01*
X011072Y035514D01*
X011082Y035556D01*
X011095Y035596D01*
X011113Y035635D01*
X011134Y035672D01*
X011158Y035706D01*
X011186Y035739D01*
X011216Y035769D01*
X011249Y035795D01*
X011284Y035819D01*
X011322Y035839D01*
X011361Y035855D01*
X011401Y035868D01*
X011443Y035877D01*
X011485Y035882D01*
X011528Y035883D01*
X011570Y035880D01*
X011612Y035873D01*
X011653Y035862D01*
X011693Y035847D01*
X011731Y035829D01*
X011768Y035807D01*
X011802Y035782D01*
X011834Y035754D01*
X011862Y035723D01*
X011888Y035689D01*
X011911Y035653D01*
X011930Y035616D01*
X011946Y035576D01*
X011958Y035535D01*
X011966Y035494D01*
X011970Y035451D01*
X011970Y035409D01*
X011966Y035366D01*
X011958Y035325D01*
X011946Y035284D01*
X011930Y035244D01*
X011911Y035207D01*
X011888Y035171D01*
X011862Y035137D01*
X011834Y035106D01*
X011802Y035078D01*
X011768Y035053D01*
X011731Y035031D01*
X011693Y035013D01*
X011653Y034998D01*
X011612Y034987D01*
X011570Y034980D01*
X011528Y034977D01*
X011485Y034978D01*
X011443Y034983D01*
X011401Y034992D01*
X011361Y035005D01*
X011322Y035021D01*
X011284Y035041D01*
X011249Y035065D01*
X011216Y035091D01*
X011186Y035121D01*
X011158Y035154D01*
X011134Y035188D01*
X011113Y035225D01*
X011095Y035264D01*
X011082Y035304D01*
X011072Y035346D01*
X011066Y035388D01*
X011064Y035430D01*
X005890Y035430D02*
X005892Y035472D01*
X005898Y035514D01*
X005908Y035556D01*
X005921Y035596D01*
X005939Y035635D01*
X005960Y035672D01*
X005984Y035706D01*
X006012Y035739D01*
X006042Y035769D01*
X006075Y035795D01*
X006110Y035819D01*
X006148Y035839D01*
X006187Y035855D01*
X006227Y035868D01*
X006269Y035877D01*
X006311Y035882D01*
X006354Y035883D01*
X006396Y035880D01*
X006438Y035873D01*
X006479Y035862D01*
X006519Y035847D01*
X006557Y035829D01*
X006594Y035807D01*
X006628Y035782D01*
X006660Y035754D01*
X006688Y035723D01*
X006714Y035689D01*
X006737Y035653D01*
X006756Y035616D01*
X006772Y035576D01*
X006784Y035535D01*
X006792Y035494D01*
X006796Y035451D01*
X006796Y035409D01*
X006792Y035366D01*
X006784Y035325D01*
X006772Y035284D01*
X006756Y035244D01*
X006737Y035207D01*
X006714Y035171D01*
X006688Y035137D01*
X006660Y035106D01*
X006628Y035078D01*
X006594Y035053D01*
X006557Y035031D01*
X006519Y035013D01*
X006479Y034998D01*
X006438Y034987D01*
X006396Y034980D01*
X006354Y034977D01*
X006311Y034978D01*
X006269Y034983D01*
X006227Y034992D01*
X006187Y035005D01*
X006148Y035021D01*
X006110Y035041D01*
X006075Y035065D01*
X006042Y035091D01*
X006012Y035121D01*
X005984Y035154D01*
X005960Y035188D01*
X005939Y035225D01*
X005921Y035264D01*
X005908Y035304D01*
X005898Y035346D01*
X005892Y035388D01*
X005890Y035430D01*
X002306Y036794D02*
X002308Y036844D01*
X002314Y036894D01*
X002324Y036943D01*
X002338Y036991D01*
X002355Y037038D01*
X002376Y037083D01*
X002401Y037127D01*
X002429Y037168D01*
X002461Y037207D01*
X002495Y037244D01*
X002532Y037278D01*
X002572Y037308D01*
X002614Y037335D01*
X002658Y037359D01*
X002704Y037380D01*
X002751Y037396D01*
X002799Y037409D01*
X002849Y037418D01*
X002898Y037423D01*
X002949Y037424D01*
X002999Y037421D01*
X003048Y037414D01*
X003097Y037403D01*
X003145Y037388D01*
X003191Y037370D01*
X003236Y037348D01*
X003279Y037322D01*
X003320Y037293D01*
X003359Y037261D01*
X003395Y037226D01*
X003427Y037188D01*
X003457Y037148D01*
X003484Y037105D01*
X003507Y037061D01*
X003526Y037015D01*
X003542Y036967D01*
X003554Y036918D01*
X003562Y036869D01*
X003566Y036819D01*
X003566Y036769D01*
X003562Y036719D01*
X003554Y036670D01*
X003542Y036621D01*
X003526Y036573D01*
X003507Y036527D01*
X003484Y036483D01*
X003457Y036440D01*
X003427Y036400D01*
X003395Y036362D01*
X003359Y036327D01*
X003320Y036295D01*
X003279Y036266D01*
X003236Y036240D01*
X003191Y036218D01*
X003145Y036200D01*
X003097Y036185D01*
X003048Y036174D01*
X002999Y036167D01*
X002949Y036164D01*
X002898Y036165D01*
X002849Y036170D01*
X002799Y036179D01*
X002751Y036192D01*
X002704Y036208D01*
X002658Y036229D01*
X002614Y036253D01*
X002572Y036280D01*
X002532Y036310D01*
X002495Y036344D01*
X002461Y036381D01*
X002429Y036420D01*
X002401Y036461D01*
X002376Y036505D01*
X002355Y036550D01*
X002338Y036597D01*
X002324Y036645D01*
X002314Y036694D01*
X002308Y036744D01*
X002306Y036794D01*
X002306Y002936D02*
X002308Y002986D01*
X002314Y003036D01*
X002324Y003085D01*
X002338Y003133D01*
X002355Y003180D01*
X002376Y003225D01*
X002401Y003269D01*
X002429Y003310D01*
X002461Y003349D01*
X002495Y003386D01*
X002532Y003420D01*
X002572Y003450D01*
X002614Y003477D01*
X002658Y003501D01*
X002704Y003522D01*
X002751Y003538D01*
X002799Y003551D01*
X002849Y003560D01*
X002898Y003565D01*
X002949Y003566D01*
X002999Y003563D01*
X003048Y003556D01*
X003097Y003545D01*
X003145Y003530D01*
X003191Y003512D01*
X003236Y003490D01*
X003279Y003464D01*
X003320Y003435D01*
X003359Y003403D01*
X003395Y003368D01*
X003427Y003330D01*
X003457Y003290D01*
X003484Y003247D01*
X003507Y003203D01*
X003526Y003157D01*
X003542Y003109D01*
X003554Y003060D01*
X003562Y003011D01*
X003566Y002961D01*
X003566Y002911D01*
X003562Y002861D01*
X003554Y002812D01*
X003542Y002763D01*
X003526Y002715D01*
X003507Y002669D01*
X003484Y002625D01*
X003457Y002582D01*
X003427Y002542D01*
X003395Y002504D01*
X003359Y002469D01*
X003320Y002437D01*
X003279Y002408D01*
X003236Y002382D01*
X003191Y002360D01*
X003145Y002342D01*
X003097Y002327D01*
X003048Y002316D01*
X002999Y002309D01*
X002949Y002306D01*
X002898Y002307D01*
X002849Y002312D01*
X002799Y002321D01*
X002751Y002334D01*
X002704Y002350D01*
X002658Y002371D01*
X002614Y002395D01*
X002572Y002422D01*
X002532Y002452D01*
X002495Y002486D01*
X002461Y002523D01*
X002429Y002562D01*
X002401Y002603D01*
X002376Y002647D01*
X002355Y002692D01*
X002338Y002739D01*
X002324Y002787D01*
X002314Y002836D01*
X002308Y002886D01*
X002306Y002936D01*
X036164Y002936D02*
X036166Y002986D01*
X036172Y003036D01*
X036182Y003085D01*
X036196Y003133D01*
X036213Y003180D01*
X036234Y003225D01*
X036259Y003269D01*
X036287Y003310D01*
X036319Y003349D01*
X036353Y003386D01*
X036390Y003420D01*
X036430Y003450D01*
X036472Y003477D01*
X036516Y003501D01*
X036562Y003522D01*
X036609Y003538D01*
X036657Y003551D01*
X036707Y003560D01*
X036756Y003565D01*
X036807Y003566D01*
X036857Y003563D01*
X036906Y003556D01*
X036955Y003545D01*
X037003Y003530D01*
X037049Y003512D01*
X037094Y003490D01*
X037137Y003464D01*
X037178Y003435D01*
X037217Y003403D01*
X037253Y003368D01*
X037285Y003330D01*
X037315Y003290D01*
X037342Y003247D01*
X037365Y003203D01*
X037384Y003157D01*
X037400Y003109D01*
X037412Y003060D01*
X037420Y003011D01*
X037424Y002961D01*
X037424Y002911D01*
X037420Y002861D01*
X037412Y002812D01*
X037400Y002763D01*
X037384Y002715D01*
X037365Y002669D01*
X037342Y002625D01*
X037315Y002582D01*
X037285Y002542D01*
X037253Y002504D01*
X037217Y002469D01*
X037178Y002437D01*
X037137Y002408D01*
X037094Y002382D01*
X037049Y002360D01*
X037003Y002342D01*
X036955Y002327D01*
X036906Y002316D01*
X036857Y002309D01*
X036807Y002306D01*
X036756Y002307D01*
X036707Y002312D01*
X036657Y002321D01*
X036609Y002334D01*
X036562Y002350D01*
X036516Y002371D01*
X036472Y002395D01*
X036430Y002422D01*
X036390Y002452D01*
X036353Y002486D01*
X036319Y002523D01*
X036287Y002562D01*
X036259Y002603D01*
X036234Y002647D01*
X036213Y002692D01*
X036196Y002739D01*
X036182Y002787D01*
X036172Y002836D01*
X036166Y002886D01*
X036164Y002936D01*
X036164Y036794D02*
X036166Y036844D01*
X036172Y036894D01*
X036182Y036943D01*
X036196Y036991D01*
X036213Y037038D01*
X036234Y037083D01*
X036259Y037127D01*
X036287Y037168D01*
X036319Y037207D01*
X036353Y037244D01*
X036390Y037278D01*
X036430Y037308D01*
X036472Y037335D01*
X036516Y037359D01*
X036562Y037380D01*
X036609Y037396D01*
X036657Y037409D01*
X036707Y037418D01*
X036756Y037423D01*
X036807Y037424D01*
X036857Y037421D01*
X036906Y037414D01*
X036955Y037403D01*
X037003Y037388D01*
X037049Y037370D01*
X037094Y037348D01*
X037137Y037322D01*
X037178Y037293D01*
X037217Y037261D01*
X037253Y037226D01*
X037285Y037188D01*
X037315Y037148D01*
X037342Y037105D01*
X037365Y037061D01*
X037384Y037015D01*
X037400Y036967D01*
X037412Y036918D01*
X037420Y036869D01*
X037424Y036819D01*
X037424Y036769D01*
X037420Y036719D01*
X037412Y036670D01*
X037400Y036621D01*
X037384Y036573D01*
X037365Y036527D01*
X037342Y036483D01*
X037315Y036440D01*
X037285Y036400D01*
X037253Y036362D01*
X037217Y036327D01*
X037178Y036295D01*
X037137Y036266D01*
X037094Y036240D01*
X037049Y036218D01*
X037003Y036200D01*
X036955Y036185D01*
X036906Y036174D01*
X036857Y036167D01*
X036807Y036164D01*
X036756Y036165D01*
X036707Y036170D01*
X036657Y036179D01*
X036609Y036192D01*
X036562Y036208D01*
X036516Y036229D01*
X036472Y036253D01*
X036430Y036280D01*
X036390Y036310D01*
X036353Y036344D01*
X036319Y036381D01*
X036287Y036420D01*
X036259Y036461D01*
X036234Y036505D01*
X036213Y036550D01*
X036196Y036597D01*
X036182Y036645D01*
X036172Y036694D01*
X036166Y036744D01*
X036164Y036794D01*
D18*
X005600Y008680D03*
X002760Y008680D03*
X006010Y004680D03*
X008850Y004680D03*
X010760Y002930D03*
X010760Y001930D03*
X013600Y001930D03*
X013600Y002930D03*
D19*
X005554Y002224D02*
X005507Y002251D01*
X005462Y002281D01*
X005419Y002314D01*
X005379Y002350D01*
X005341Y002389D01*
X005306Y002430D01*
X005273Y002473D01*
X005244Y002518D01*
X005218Y002566D01*
X005195Y002615D01*
X005175Y002665D01*
X005159Y002716D01*
X005146Y002769D01*
X005137Y002822D01*
X005132Y002876D01*
X005130Y002930D01*
X006327Y002235D02*
X006375Y002265D01*
X006420Y002298D01*
X006463Y002334D01*
X006504Y002372D01*
X006541Y002414D01*
X006576Y002458D01*
X006607Y002504D01*
X006636Y002553D01*
X006660Y002603D01*
X006681Y002655D01*
X006699Y002709D01*
X006712Y002763D01*
X006722Y002818D01*
X006728Y002874D01*
X006730Y002930D01*
X006728Y002983D01*
X006723Y003037D01*
X006714Y003089D01*
X006702Y003141D01*
X006686Y003192D01*
X006667Y003242D01*
X006644Y003291D01*
X006618Y003338D01*
X006590Y003383D01*
X006558Y003426D01*
X006524Y003466D01*
X006486Y003505D01*
X006447Y003541D01*
X005418Y003545D02*
X005378Y003509D01*
X005340Y003470D01*
X005305Y003429D01*
X005273Y003386D01*
X005243Y003341D01*
X005217Y003294D01*
X005195Y003245D01*
X005175Y003194D01*
X005159Y003143D01*
X005146Y003091D01*
X005137Y003037D01*
X005132Y002984D01*
X005130Y002930D01*
X002077Y006235D02*
X002125Y006265D01*
X002170Y006298D01*
X002213Y006334D01*
X002254Y006372D01*
X002291Y006414D01*
X002326Y006458D01*
X002357Y006504D01*
X002386Y006553D01*
X002410Y006603D01*
X002431Y006655D01*
X002449Y006709D01*
X002462Y006763D01*
X002472Y006818D01*
X002478Y006874D01*
X002480Y006930D01*
X001304Y006224D02*
X001257Y006251D01*
X001212Y006281D01*
X001169Y006314D01*
X001129Y006350D01*
X001091Y006389D01*
X001056Y006430D01*
X001023Y006473D01*
X000994Y006518D01*
X000968Y006566D01*
X000945Y006615D01*
X000925Y006665D01*
X000909Y006716D01*
X000896Y006769D01*
X000887Y006822D01*
X000882Y006876D01*
X000880Y006930D01*
X002197Y007541D02*
X002236Y007505D01*
X002274Y007466D01*
X002308Y007426D01*
X002340Y007383D01*
X002368Y007338D01*
X002394Y007291D01*
X002417Y007242D01*
X002436Y007192D01*
X002452Y007141D01*
X002464Y007089D01*
X002473Y007037D01*
X002478Y006983D01*
X002480Y006930D01*
X001168Y007545D02*
X001128Y007509D01*
X001090Y007470D01*
X001055Y007429D01*
X001023Y007386D01*
X000993Y007341D01*
X000967Y007294D01*
X000945Y007245D01*
X000925Y007194D01*
X000909Y007143D01*
X000896Y007091D01*
X000887Y007037D01*
X000882Y006984D01*
X000880Y006930D01*
X006017Y033812D02*
X011843Y033812D01*
X011843Y039442D01*
X006017Y039442D01*
X006017Y033812D01*
X032879Y037859D02*
X034981Y037859D01*
X034981Y039001D01*
X032879Y039001D01*
X032879Y037859D01*
X033130Y035930D02*
X033132Y035876D01*
X033137Y035822D01*
X033146Y035769D01*
X033159Y035716D01*
X033175Y035665D01*
X033195Y035615D01*
X033218Y035566D01*
X033244Y035518D01*
X033273Y035473D01*
X033306Y035430D01*
X033341Y035389D01*
X033379Y035350D01*
X033419Y035314D01*
X033462Y035281D01*
X033507Y035251D01*
X033554Y035224D01*
X034327Y035235D02*
X034375Y035265D01*
X034420Y035298D01*
X034463Y035334D01*
X034504Y035372D01*
X034541Y035414D01*
X034576Y035458D01*
X034607Y035504D01*
X034636Y035553D01*
X034660Y035603D01*
X034681Y035655D01*
X034699Y035709D01*
X034712Y035763D01*
X034722Y035818D01*
X034728Y035874D01*
X034730Y035930D01*
X034728Y035983D01*
X034723Y036037D01*
X034714Y036089D01*
X034702Y036141D01*
X034686Y036192D01*
X034667Y036242D01*
X034644Y036291D01*
X034618Y036338D01*
X034590Y036383D01*
X034558Y036426D01*
X034524Y036466D01*
X034486Y036505D01*
X034447Y036541D01*
X033418Y036545D02*
X033378Y036509D01*
X033340Y036470D01*
X033305Y036429D01*
X033273Y036386D01*
X033243Y036341D01*
X033217Y036294D01*
X033195Y036245D01*
X033175Y036194D01*
X033159Y036143D01*
X033146Y036091D01*
X033137Y036037D01*
X033132Y035984D01*
X033130Y035930D01*
X035109Y033231D02*
X035109Y023129D01*
X036251Y023129D01*
X036251Y033231D01*
X035109Y033231D01*
X032533Y019875D02*
X032485Y019845D01*
X032440Y019812D01*
X032397Y019776D01*
X032356Y019738D01*
X032319Y019696D01*
X032284Y019652D01*
X032253Y019606D01*
X032224Y019557D01*
X032200Y019507D01*
X032179Y019455D01*
X032161Y019401D01*
X032148Y019347D01*
X032138Y019292D01*
X032132Y019236D01*
X032130Y019180D01*
X033306Y019886D02*
X033353Y019859D01*
X033398Y019829D01*
X033441Y019796D01*
X033481Y019760D01*
X033519Y019721D01*
X033554Y019680D01*
X033587Y019637D01*
X033616Y019592D01*
X033642Y019544D01*
X033665Y019495D01*
X033685Y019445D01*
X033701Y019394D01*
X033714Y019341D01*
X033723Y019288D01*
X033728Y019234D01*
X033730Y019180D01*
X032413Y018569D02*
X032374Y018605D01*
X032336Y018644D01*
X032302Y018684D01*
X032270Y018727D01*
X032242Y018772D01*
X032216Y018819D01*
X032193Y018868D01*
X032174Y018918D01*
X032158Y018969D01*
X032146Y019021D01*
X032137Y019073D01*
X032132Y019127D01*
X032130Y019180D01*
X033442Y018565D02*
X033482Y018601D01*
X033520Y018640D01*
X033555Y018681D01*
X033587Y018724D01*
X033617Y018769D01*
X033643Y018816D01*
X033665Y018865D01*
X033685Y018916D01*
X033701Y018967D01*
X033714Y019019D01*
X033723Y019073D01*
X033728Y019126D01*
X033730Y019180D01*
X035109Y015231D02*
X035109Y005129D01*
X036251Y005129D01*
X036251Y015231D01*
X035109Y015231D01*
D20*
X034430Y017760D03*
X034430Y020600D03*
X032180Y035010D03*
X031180Y035010D03*
X031180Y037850D03*
X032180Y037850D03*
D21*
X029810Y037203D02*
X029450Y037203D01*
X029630Y037023D01*
X029630Y037263D01*
X029810Y036895D02*
X029810Y036655D01*
X029810Y036775D02*
X029450Y036775D01*
X029570Y036655D01*
X029570Y036527D02*
X029630Y036467D01*
X029630Y036347D01*
X029570Y036287D01*
X029510Y036287D01*
X029450Y036347D01*
X029450Y036467D01*
X029510Y036527D01*
X029570Y036527D01*
X029630Y036467D02*
X029690Y036527D01*
X029750Y036527D01*
X029810Y036467D01*
X029810Y036347D01*
X029750Y036287D01*
X029690Y036287D01*
X029630Y036347D01*
X029750Y036159D02*
X029810Y036098D01*
X029810Y035978D01*
X029750Y035918D01*
X029510Y035918D01*
X029450Y035978D01*
X029450Y036098D01*
X029510Y036159D01*
X029510Y035790D02*
X029630Y035790D01*
X029690Y035730D01*
X029690Y035550D01*
X029810Y035550D02*
X029450Y035550D01*
X029450Y035730D01*
X029510Y035790D01*
X028010Y031647D02*
X027550Y031647D01*
X027550Y031340D02*
X028010Y031647D01*
X028010Y031340D02*
X027550Y031340D01*
X027626Y031186D02*
X027550Y031109D01*
X027550Y030956D01*
X027626Y030879D01*
X027933Y030879D01*
X027626Y031186D01*
X027933Y031186D01*
X028010Y031109D01*
X028010Y030956D01*
X027933Y030879D01*
X027780Y030726D02*
X027780Y030419D01*
X027550Y030649D01*
X028010Y030649D01*
X028010Y030265D02*
X028010Y029958D01*
X027703Y030265D01*
X027626Y030265D01*
X027550Y030189D01*
X027550Y030035D01*
X027626Y029958D01*
X027626Y029805D02*
X027550Y029728D01*
X027550Y029575D01*
X027626Y029498D01*
X027933Y029498D01*
X028010Y029575D01*
X028010Y029728D01*
X027933Y029805D01*
X028010Y029345D02*
X027550Y029345D01*
X027780Y029345D02*
X027780Y029038D01*
X027780Y028884D02*
X027780Y028577D01*
X027550Y028807D01*
X028010Y028807D01*
X028010Y029038D02*
X027550Y029038D01*
X027550Y028424D02*
X027626Y028424D01*
X027933Y028117D01*
X028010Y028117D01*
X027550Y028117D02*
X027550Y028424D01*
X001660Y028490D02*
X001200Y028490D01*
X001353Y028643D01*
X001200Y028797D01*
X001660Y028797D01*
D22*
X007390Y036078D02*
X007490Y036078D01*
X007440Y036153D02*
X007390Y036153D01*
X007390Y036228D02*
X007390Y036078D01*
X007390Y036228D02*
X007490Y036228D01*
X007685Y036228D02*
X007685Y036078D01*
X007785Y036078D01*
X007980Y036078D02*
X008080Y036078D01*
X008030Y036153D02*
X007980Y036153D01*
X007980Y036228D02*
X007980Y036078D01*
X007980Y036228D02*
X008080Y036228D01*
X008274Y036203D02*
X008274Y036103D01*
X008299Y036078D01*
X008349Y036078D01*
X008374Y036103D01*
X008374Y036203D02*
X008349Y036228D01*
X008299Y036228D01*
X008274Y036203D01*
X008569Y036228D02*
X008669Y036228D01*
X008619Y036228D02*
X008619Y036078D01*
X008864Y036078D02*
X008864Y036228D01*
X008939Y036228D01*
X008964Y036203D01*
X008964Y036153D01*
X008939Y036128D01*
X008864Y036128D01*
X008914Y036128D02*
X008964Y036078D01*
X009158Y036103D02*
X009183Y036078D01*
X009233Y036078D01*
X009258Y036103D01*
X009258Y036203D01*
X009233Y036228D01*
X009183Y036228D01*
X009158Y036203D01*
X009158Y036103D01*
X009453Y036078D02*
X009453Y036228D01*
X009553Y036078D01*
X009553Y036228D01*
X009747Y036228D02*
X009798Y036228D01*
X009772Y036228D02*
X009772Y036078D01*
X009747Y036078D02*
X009798Y036078D01*
X009993Y036103D02*
X010018Y036078D01*
X010068Y036078D01*
X010093Y036103D01*
X009993Y036103D02*
X009993Y036203D01*
X010018Y036228D01*
X010068Y036228D01*
X010093Y036203D01*
X010288Y036203D02*
X010288Y036178D01*
X010313Y036153D01*
X010363Y036153D01*
X010388Y036128D01*
X010388Y036103D01*
X010363Y036078D01*
X010313Y036078D01*
X010288Y036103D01*
X010288Y036203D02*
X010313Y036228D01*
X010363Y036228D01*
X010388Y036203D01*
D23*
X035430Y018530D03*
D24*
X035430Y017905D03*
X035430Y020455D03*
D25*
X000460Y010755D03*
D26*
X000505Y029210D03*
D27*
X000330Y019930D03*
D28*
X001905Y019930D03*
X001905Y021020D03*
X001905Y022100D03*
X001905Y023190D03*
X001905Y024280D03*
X001905Y025360D03*
X001905Y026450D03*
X001905Y018840D03*
X001905Y017760D03*
X001905Y016670D03*
X001905Y015580D03*
X001905Y014500D03*
X001905Y013410D03*
D29*
X001405Y013950D03*
X001405Y015040D03*
X001405Y016130D03*
X001405Y017210D03*
X001405Y018300D03*
X001405Y019390D03*
X001405Y020470D03*
X001405Y021560D03*
X001405Y022650D03*
X001405Y023730D03*
X001405Y024820D03*
X001405Y025910D03*
D30*
X004980Y006430D03*
M02*
