%
M48
M72
T01C0.0315
T02C0.0320
T03C0.0360
T04C0.0374
T05C0.0400
T06C0.0472
T07C0.0512
T08C0.0906
T09C0.1260
T10C0.1300
%
T01
X6680Y29180
X6680Y30180
X6680Y31180
X6680Y32180
T02
X5430Y32180
X5430Y31180
X5430Y30180
X5430Y29180
X2680Y31980
X2680Y33380
X9680Y31430
X9680Y30430
X9680Y29430
X9680Y28430
X9680Y27430
X9680Y26430
X9680Y25430
X9680Y24430
X9680Y23430
X11680Y23430
X11680Y24430
X11680Y25430
X11680Y26430
X11680Y27430
X11680Y28430
X11680Y29430
X11680Y30430
X11680Y31430
X12680Y32680
X13680Y32680
X13430Y33930
X13430Y34930
X13430Y35930
X13430Y36930
X14430Y38180
X15430Y38180
X16430Y36930
X16430Y35930
X16430Y34930
X16430Y33930
X18930Y33930
X18930Y34930
X18930Y35930
X18930Y36930
X19930Y38180
X20930Y38180
X21930Y36930
X21930Y35930
X21930Y34930
X21930Y33930
X21930Y31930
X21930Y30930
X21930Y29930
X21930Y28930
X20930Y27680
X19930Y27680
X18930Y26430
X18930Y25430
X18930Y24430
X18930Y23430
X18930Y21930
X17930Y21930
X16930Y20680
X16930Y19680
X16930Y18680
X16930Y17680
X17930Y16430
X18930Y16430
X19930Y17680
X19930Y18680
X19930Y19680
X19930Y20680
X21930Y23430
X21930Y24430
X21930Y25430
X21930Y26430
X24180Y25930
X24180Y26930
X24180Y27930
X24180Y28930
X24180Y29930
X24180Y30930
X24180Y31930
X24430Y33930
X24430Y34930
X24430Y35930
X24430Y36930
X25430Y38180
X26430Y38180
X27430Y36930
X27430Y35930
X27430Y34930
X27430Y33930
X28930Y34930
X29930Y34930
X31180Y34430
X32180Y34430
X31930Y32930
X32930Y32930
X33930Y35430
X33930Y36430
X32180Y38430
X31180Y38430
X29930Y37930
X28930Y37930
X29180Y32430
X29180Y31430
X29180Y30430
X29180Y29430
X29180Y28430
X29180Y27430
X29180Y26430
X29180Y25430
X29180Y24430
X29180Y23430
X28680Y21930
X29680Y21930
X30930Y20680
X30930Y19680
X30930Y18680
X30930Y17680
X29680Y16430
X28680Y16430
X27930Y17680
X27930Y18680
X27930Y19680
X27930Y20680
X25430Y20680
X25430Y19680
X25430Y18680
X25430Y17680
X24430Y16430
X23430Y16430
X22430Y17680
X22430Y18680
X22430Y19680
X22430Y20680
X23430Y21930
X24430Y21930
X26180Y23430
X26180Y24430
X26180Y25430
X26180Y26430
X26180Y27430
X26180Y28430
X26180Y29430
X26180Y30430
X26180Y31430
X26180Y32430
X18930Y31930
X18930Y30930
X18930Y29930
X18930Y28930
X16680Y28430
X16680Y27430
X16680Y26430
X16680Y25430
X16680Y24430
X16680Y23430
X14680Y23430
X14680Y24430
X14680Y25430
X14680Y26430
X14680Y27430
X14680Y28430
X14680Y29430
X14680Y30430
X14680Y31430
X16680Y31430
X16680Y30430
X16680Y29430
X13680Y22180
X12680Y22180
X11680Y19930
X11680Y18930
X11680Y17930
X11680Y16930
X11680Y15930
X11680Y14930
X11680Y13930
X11680Y12930
X11680Y11930
X11680Y10930
X11680Y9930
X11680Y8930
X11680Y7930
X11680Y6930
X11680Y5930
X11680Y4930
X10180Y2930
X10180Y1930
X8930Y2680
X8430Y1930
X7930Y2680
X5930Y2430
X5930Y3430
X5430Y4680
X6180Y6430
X4180Y6430
X2180Y8680
X1680Y7430
X1680Y6430
X6180Y8680
X9430Y8180
X9430Y7180
X9430Y6180
X9430Y4680
X9430Y9180
X9430Y10180
X9430Y11180
X9430Y12180
X9430Y13180
X9430Y14180
X9430Y16180
X9430Y17180
X9430Y18930
X9430Y19930
X14680Y19930
X14680Y18930
X14680Y17930
X14680Y16930
X14680Y15930
X14680Y14930
X14680Y13930
X14680Y12930
X14680Y11930
X14680Y10930
X14680Y9930
X14680Y8930
X14680Y7930
X14680Y6930
X14680Y5930
X14680Y4930
X14180Y2930
X15180Y2180
X15930Y1680
X15930Y2680
X14180Y1930
X18180Y1680
X18180Y2680
X20180Y2680
X20180Y1680
X23180Y1680
X23180Y2680
X24680Y2930
X24680Y1430
X24180Y5180
X25180Y5180
X26180Y5180
X27180Y5180
X28430Y6180
X28430Y7180
X27180Y8180
X26180Y8180
X25180Y8180
X24180Y8180
X23180Y8180
X22180Y8180
X21180Y8180
X19930Y7180
X19930Y6180
X21180Y5180
X22180Y5180
X23180Y5180
X23180Y9680
X23180Y10680
X22180Y10680
X22180Y9680
X21180Y9680
X21180Y10680
X21180Y11930
X22180Y11930
X23180Y11930
X24180Y11930
X25180Y11930
X26180Y11930
X27180Y11930
X27180Y10680
X27180Y9680
X26180Y9680
X26180Y10680
X25180Y10680
X25180Y9680
X28430Y12930
X28430Y13930
X27180Y14930
X26180Y14930
X25180Y14930
X24180Y14930
X23180Y14930
X22180Y14930
X21180Y14930
X19930Y13930
X19930Y12930
X17430Y12930
X17430Y11930
X17430Y10930
X17430Y9930
X17430Y8930
X17430Y7930
X17430Y6930
X17430Y5930
X17430Y13930
X24180Y23930
X24180Y24930
X31930Y23430
X32930Y23430
X34430Y21180
X35430Y21180
X32930Y19680
X32930Y18680
X34430Y17180
X35430Y17180
X32930Y14930
X31930Y14930
X31930Y5430
X32930Y5430
X28680Y2930
X28680Y1430
T03
X31930Y8180
X31930Y9180
X31930Y10180
X31930Y11180
X31930Y12180
X32930Y12180
X32930Y11180
X32930Y10180
X32930Y9180
X32930Y8180
X32930Y26180
X32930Y27180
X32930Y28180
X32930Y29180
X32930Y30180
X31930Y30180
X31930Y29180
X31930Y28180
X31930Y27180
X31930Y26180
X6930Y25930
X6930Y24930
X6930Y23930
X6930Y22930
X6930Y21930
X6930Y20930
X6930Y19930
X6930Y18930
X6930Y17930
X6930Y16930
X6930Y15930
X6930Y14930
X6930Y13930
X5930Y13930
X5930Y14930
X5930Y15930
X5930Y16930
X5930Y17930
X5930Y18930
X5930Y19930
X5930Y20930
X5930Y21930
X5930Y22930
X5930Y23930
X5930Y24930
X5930Y25930
T04
X7552Y34363
X8536Y34363
X9324Y34363
X10308Y34363
T05
X3680Y26450
X3680Y25360
X3680Y24280
X3680Y23190
X3680Y22100
X3680Y21020
X3680Y19930
X3680Y18840
X3680Y17760
X3680Y16670
X3680Y15580
X3680Y14500
X3680Y13410
X2680Y13950
X2680Y15040
X2680Y16130
X2680Y17210
X2680Y18300
X2680Y19390
X2680Y20470
X2680Y21560
X2680Y22650
X2680Y23730
X2680Y24820
X2680Y25910
T06
X33430Y38430
X34430Y38430
X35680Y32680
X35680Y31680
X35680Y30680
X35680Y29680
X35680Y28680
X35680Y27680
X35680Y26680
X35680Y25680
X35680Y24680
X35680Y23680
X35680Y14680
X35680Y13680
X35680Y12680
X35680Y11680
X35680Y10680
X35680Y9680
X35680Y8680
X35680Y7680
X35680Y6680
X35680Y5680
T07
X32922Y1940
X30922Y1940
X37940Y18188
X37940Y20188
T08
X11517Y35430
X6343Y35430
T09
X2936Y2936
X2936Y36794
X36794Y36794
X36794Y2936
T10
X3180Y10670
X3180Y29190
M30
