G75*
%MOIN*%
%OFA0B0*%
%FSLAX24Y24*%
%IPPOS*%
%LPD*%
%AMOC8*
5,1,8,0,0,1.08239X$1,22.5*
%
%ADD10OC8,0.0560*%
%ADD11C,0.0520*%
%ADD12C,0.0515*%
%ADD13OC8,0.0520*%
%ADD14C,0.0787*%
%ADD15C,0.0709*%
%ADD16OC8,0.0630*%
%ADD17C,0.0630*%
%ADD18C,0.0574*%
%ADD19OC8,0.0600*%
%ADD20C,0.2000*%
%ADD21C,0.0750*%
%ADD22OC8,0.0750*%
%ADD23C,0.0100*%
%ADD24C,0.0120*%
D10*
X005930Y013930D03*
X005930Y014930D03*
X005930Y015930D03*
X005930Y016930D03*
X005930Y017930D03*
X005930Y018930D03*
X005930Y019930D03*
X005930Y020930D03*
X005930Y021930D03*
X005930Y022930D03*
X005930Y023930D03*
X005930Y024930D03*
X005930Y025930D03*
X006930Y025930D03*
X006930Y024930D03*
X006930Y023930D03*
X006930Y022930D03*
X006930Y021930D03*
X006930Y020930D03*
X006930Y019930D03*
X006930Y018930D03*
X006930Y017930D03*
X006930Y016930D03*
X006930Y015930D03*
X006930Y014930D03*
X006930Y013930D03*
X031930Y012180D03*
X031930Y011180D03*
X031930Y010180D03*
X031930Y009180D03*
X031930Y008180D03*
X032930Y008180D03*
X032930Y009180D03*
X032930Y010180D03*
X032930Y011180D03*
X032930Y012180D03*
X032930Y026180D03*
X032930Y027180D03*
X032930Y028180D03*
X032930Y029180D03*
X032930Y030180D03*
X031930Y030180D03*
X031930Y029180D03*
X031930Y028180D03*
X031930Y027180D03*
X031930Y026180D03*
D11*
X029440Y026430D02*
X028920Y026430D01*
X028920Y025430D02*
X029440Y025430D01*
X029440Y024430D02*
X028920Y024430D01*
X028920Y023430D02*
X029440Y023430D01*
X030930Y020680D02*
X031450Y020680D01*
X031450Y019680D02*
X030930Y019680D01*
X030930Y018680D02*
X031450Y018680D01*
X031450Y017680D02*
X030930Y017680D01*
X027930Y017680D02*
X027410Y017680D01*
X027410Y018680D02*
X027930Y018680D01*
X027930Y019680D02*
X027410Y019680D01*
X027410Y020680D02*
X027930Y020680D01*
X025950Y020680D02*
X025430Y020680D01*
X025430Y019680D02*
X025950Y019680D01*
X025950Y018680D02*
X025430Y018680D01*
X025430Y017680D02*
X025950Y017680D01*
X026180Y015190D02*
X026180Y014670D01*
X027180Y014670D02*
X027180Y015190D01*
X025180Y015190D02*
X025180Y014670D01*
X024180Y014670D02*
X024180Y015190D01*
X023180Y015190D02*
X023180Y014670D01*
X022180Y014670D02*
X022180Y015190D01*
X021180Y015190D02*
X021180Y014670D01*
X021180Y012190D02*
X021180Y011670D01*
X022180Y011670D02*
X022180Y012190D01*
X023180Y012190D02*
X023180Y011670D01*
X024180Y011670D02*
X024180Y012190D01*
X025180Y012190D02*
X025180Y011670D01*
X026180Y011670D02*
X026180Y012190D01*
X027180Y012190D02*
X027180Y011670D01*
X027180Y008440D02*
X027180Y007920D01*
X026180Y007920D02*
X026180Y008440D01*
X025180Y008440D02*
X025180Y007920D01*
X024180Y007920D02*
X024180Y008440D01*
X023180Y008440D02*
X023180Y007920D01*
X022180Y007920D02*
X022180Y008440D01*
X021180Y008440D02*
X021180Y007920D01*
X021180Y005440D02*
X021180Y004920D01*
X022180Y004920D02*
X022180Y005440D01*
X023180Y005440D02*
X023180Y004920D01*
X024180Y004920D02*
X024180Y005440D01*
X025180Y005440D02*
X025180Y004920D01*
X026180Y004920D02*
X026180Y005440D01*
X027180Y005440D02*
X027180Y004920D01*
X023700Y002680D02*
X023180Y002680D01*
X023180Y001680D02*
X023700Y001680D01*
X020180Y001680D02*
X019660Y001680D01*
X019660Y002680D02*
X020180Y002680D01*
X017690Y005930D02*
X017170Y005930D01*
X017170Y006930D02*
X017690Y006930D01*
X017690Y007930D02*
X017170Y007930D01*
X017170Y008930D02*
X017690Y008930D01*
X017690Y009930D02*
X017170Y009930D01*
X017170Y010930D02*
X017690Y010930D01*
X017690Y011930D02*
X017170Y011930D01*
X017170Y012930D02*
X017690Y012930D01*
X017690Y013930D02*
X017170Y013930D01*
X015200Y013930D02*
X014680Y013930D01*
X014680Y014930D02*
X015200Y014930D01*
X015200Y015930D02*
X014680Y015930D01*
X014680Y016930D02*
X015200Y016930D01*
X015200Y017930D02*
X014680Y017930D01*
X014680Y018930D02*
X015200Y018930D01*
X015200Y019930D02*
X014680Y019930D01*
X016410Y019680D02*
X016930Y019680D01*
X016930Y018680D02*
X016410Y018680D01*
X016410Y017680D02*
X016930Y017680D01*
X019930Y017680D02*
X020450Y017680D01*
X020450Y018680D02*
X019930Y018680D01*
X019930Y019680D02*
X020450Y019680D01*
X020450Y020680D02*
X019930Y020680D01*
X021910Y020680D02*
X022430Y020680D01*
X022430Y019680D02*
X021910Y019680D01*
X021910Y018680D02*
X022430Y018680D01*
X022430Y017680D02*
X021910Y017680D01*
X016930Y020680D02*
X016410Y020680D01*
X016420Y023430D02*
X016940Y023430D01*
X016940Y024430D02*
X016420Y024430D01*
X016420Y025430D02*
X016940Y025430D01*
X016940Y026430D02*
X016420Y026430D01*
X016420Y027430D02*
X016940Y027430D01*
X016940Y028430D02*
X016420Y028430D01*
X016420Y029430D02*
X016940Y029430D01*
X016940Y030430D02*
X016420Y030430D01*
X016420Y031430D02*
X016940Y031430D01*
X018410Y030930D02*
X018930Y030930D01*
X018930Y029930D02*
X018410Y029930D01*
X018410Y028930D02*
X018930Y028930D01*
X018930Y026430D02*
X018410Y026430D01*
X018410Y025430D02*
X018930Y025430D01*
X018930Y024430D02*
X018410Y024430D01*
X018410Y023430D02*
X018930Y023430D01*
X021930Y023430D02*
X022450Y023430D01*
X022450Y024430D02*
X021930Y024430D01*
X021930Y025430D02*
X022450Y025430D01*
X022450Y026430D02*
X021930Y026430D01*
X023920Y025930D02*
X024440Y025930D01*
X024440Y026930D02*
X023920Y026930D01*
X023920Y027930D02*
X024440Y027930D01*
X024440Y028930D02*
X023920Y028930D01*
X023920Y029930D02*
X024440Y029930D01*
X024440Y030930D02*
X023920Y030930D01*
X023920Y031930D02*
X024440Y031930D01*
X025920Y031430D02*
X026440Y031430D01*
X026440Y032430D02*
X025920Y032430D01*
X024430Y033930D02*
X023910Y033930D01*
X023910Y034930D02*
X024430Y034930D01*
X024430Y035930D02*
X023910Y035930D01*
X023910Y036930D02*
X024430Y036930D01*
X022450Y036930D02*
X021930Y036930D01*
X021930Y035930D02*
X022450Y035930D01*
X022450Y034930D02*
X021930Y034930D01*
X021930Y033930D02*
X022450Y033930D01*
X022450Y031930D02*
X021930Y031930D01*
X021930Y030930D02*
X022450Y030930D01*
X022450Y029930D02*
X021930Y029930D01*
X021930Y028930D02*
X022450Y028930D01*
X025920Y028430D02*
X026440Y028430D01*
X026440Y027430D02*
X025920Y027430D01*
X025920Y026430D02*
X026440Y026430D01*
X026440Y025430D02*
X025920Y025430D01*
X025920Y024430D02*
X026440Y024430D01*
X026440Y023430D02*
X025920Y023430D01*
X024440Y023930D02*
X023920Y023930D01*
X023920Y024930D02*
X024440Y024930D01*
X028920Y027430D02*
X029440Y027430D01*
X029440Y028430D02*
X028920Y028430D01*
X028920Y029430D02*
X029440Y029430D01*
X029440Y030430D02*
X028920Y030430D01*
X028920Y031430D02*
X029440Y031430D01*
X029440Y032430D02*
X028920Y032430D01*
X027950Y033930D02*
X027430Y033930D01*
X027430Y034930D02*
X027950Y034930D01*
X028930Y034930D02*
X028930Y034410D01*
X029930Y034410D02*
X029930Y034930D01*
X027950Y035930D02*
X027430Y035930D01*
X027430Y036930D02*
X027950Y036930D01*
X028930Y037930D02*
X028930Y038450D01*
X029930Y038450D02*
X029930Y037930D01*
X026440Y030430D02*
X025920Y030430D01*
X025920Y029430D02*
X026440Y029430D01*
X018930Y031930D02*
X018410Y031930D01*
X018410Y033930D02*
X018930Y033930D01*
X018930Y034930D02*
X018410Y034930D01*
X018410Y035930D02*
X018930Y035930D01*
X018930Y036930D02*
X018410Y036930D01*
X016950Y036930D02*
X016430Y036930D01*
X016430Y035930D02*
X016950Y035930D01*
X016950Y034930D02*
X016430Y034930D01*
X016430Y033930D02*
X016950Y033930D01*
X014940Y031430D02*
X014420Y031430D01*
X014420Y030430D02*
X014940Y030430D01*
X014940Y029430D02*
X014420Y029430D01*
X014420Y028430D02*
X014940Y028430D01*
X014940Y027430D02*
X014420Y027430D01*
X014420Y026430D02*
X014940Y026430D01*
X014940Y025430D02*
X014420Y025430D01*
X014420Y024430D02*
X014940Y024430D01*
X014940Y023430D02*
X014420Y023430D01*
X011940Y023430D02*
X011420Y023430D01*
X011420Y024430D02*
X011940Y024430D01*
X011940Y025430D02*
X011420Y025430D01*
X011420Y026430D02*
X011940Y026430D01*
X011940Y027430D02*
X011420Y027430D01*
X011420Y028430D02*
X011940Y028430D01*
X011940Y029430D02*
X011420Y029430D01*
X011420Y030430D02*
X011940Y030430D01*
X011940Y031430D02*
X011420Y031430D01*
X009940Y031430D02*
X009420Y031430D01*
X009420Y030430D02*
X009940Y030430D01*
X009940Y029430D02*
X009420Y029430D01*
X009420Y028430D02*
X009940Y028430D01*
X009940Y027430D02*
X009420Y027430D01*
X009420Y026430D02*
X009940Y026430D01*
X009940Y025430D02*
X009420Y025430D01*
X009420Y024430D02*
X009940Y024430D01*
X009940Y023430D02*
X009420Y023430D01*
X011160Y019930D02*
X011680Y019930D01*
X011680Y018930D02*
X011160Y018930D01*
X011160Y017930D02*
X011680Y017930D01*
X011680Y016930D02*
X011160Y016930D01*
X011160Y015930D02*
X011680Y015930D01*
X011680Y014930D02*
X011160Y014930D01*
X011160Y013930D02*
X011680Y013930D01*
X011680Y012930D02*
X011160Y012930D01*
X011160Y011930D02*
X011680Y011930D01*
X011680Y010930D02*
X011160Y010930D01*
X011160Y009930D02*
X011680Y009930D01*
X011680Y008930D02*
X011160Y008930D01*
X011160Y007930D02*
X011680Y007930D01*
X011680Y006930D02*
X011160Y006930D01*
X011160Y005930D02*
X011680Y005930D01*
X011680Y004930D02*
X011160Y004930D01*
X009690Y006180D02*
X009170Y006180D01*
X009170Y007180D02*
X009690Y007180D01*
X009690Y008180D02*
X009170Y008180D01*
X009170Y009180D02*
X009690Y009180D01*
X009690Y010180D02*
X009170Y010180D01*
X009170Y011180D02*
X009690Y011180D01*
X009690Y012180D02*
X009170Y012180D01*
X009170Y013180D02*
X009690Y013180D01*
X009690Y014180D02*
X009170Y014180D01*
X014680Y012930D02*
X015200Y012930D01*
X015200Y011930D02*
X014680Y011930D01*
X014680Y010930D02*
X015200Y010930D01*
X015200Y009930D02*
X014680Y009930D01*
X014680Y008930D02*
X015200Y008930D01*
X015200Y007930D02*
X014680Y007930D01*
X014680Y006930D02*
X015200Y006930D01*
X015200Y005930D02*
X014680Y005930D01*
X014680Y004930D02*
X015200Y004930D01*
X035430Y016920D02*
X035430Y017440D01*
X035430Y020920D02*
X035430Y021440D01*
X013430Y033930D02*
X012910Y033930D01*
X012910Y034930D02*
X013430Y034930D01*
X013430Y035930D02*
X012910Y035930D01*
X012910Y036930D02*
X013430Y036930D01*
D12*
X006680Y032180D03*
X006680Y031180D03*
X006680Y030180D03*
X006680Y029180D03*
D13*
X005430Y004680D03*
X005930Y003430D03*
X005930Y002430D03*
X007930Y002680D03*
X008430Y001930D03*
X008930Y002680D03*
X010180Y002930D03*
X010180Y001930D03*
X009430Y004680D03*
X006180Y008680D03*
X002180Y008680D03*
X001680Y007430D03*
X001680Y006430D03*
X009430Y016180D03*
X009430Y017180D03*
X009430Y018930D03*
X009430Y019930D03*
X012680Y022180D03*
X013680Y022180D03*
X017930Y021930D03*
X018930Y021930D03*
X023430Y021930D03*
X024430Y021930D03*
X028680Y021930D03*
X029680Y021930D03*
X031930Y023430D03*
X032930Y023430D03*
X034430Y021180D03*
X032930Y019680D03*
X032930Y018680D03*
X034430Y017180D03*
X032930Y014930D03*
X031930Y014930D03*
X029680Y016430D03*
X028680Y016430D03*
X028430Y013930D03*
X028430Y012930D03*
X027180Y010680D03*
X027180Y009680D03*
X026180Y009680D03*
X026180Y010680D03*
X025180Y010680D03*
X025180Y009680D03*
X023180Y009680D03*
X023180Y010680D03*
X022180Y010680D03*
X022180Y009680D03*
X021180Y009680D03*
X021180Y010680D03*
X019930Y012930D03*
X019930Y013930D03*
X018930Y016430D03*
X017930Y016430D03*
X023430Y016430D03*
X024430Y016430D03*
X028430Y007180D03*
X028430Y006180D03*
X028680Y002930D03*
X028680Y001430D03*
X024680Y001430D03*
X024680Y002930D03*
X019930Y006180D03*
X019930Y007180D03*
X015930Y002680D03*
X015180Y002180D03*
X015930Y001680D03*
X014180Y001930D03*
X014180Y002930D03*
X031930Y005430D03*
X032930Y005430D03*
X020930Y027680D03*
X019930Y027680D03*
X013680Y032680D03*
X012680Y032680D03*
X014430Y038180D03*
X015430Y038180D03*
X019930Y038180D03*
X020930Y038180D03*
X025430Y038180D03*
X026430Y038180D03*
X031180Y038430D03*
X032180Y038430D03*
X033930Y036430D03*
X033930Y035430D03*
X032180Y034430D03*
X031180Y034430D03*
X031930Y032930D03*
X032930Y032930D03*
X005430Y032180D03*
X005430Y031180D03*
X005430Y030180D03*
X005430Y029180D03*
D14*
X030922Y001940D03*
X032922Y001940D03*
X037940Y018188D03*
X037940Y020188D03*
D15*
X036034Y023680D02*
X035326Y023680D01*
X035326Y024680D02*
X036034Y024680D01*
X036034Y025680D02*
X035326Y025680D01*
X035326Y026680D02*
X036034Y026680D01*
X036034Y027680D02*
X035326Y027680D01*
X035326Y028680D02*
X036034Y028680D01*
X036034Y029680D02*
X035326Y029680D01*
X035326Y030680D02*
X036034Y030680D01*
X036034Y031680D02*
X035326Y031680D01*
X035326Y032680D02*
X036034Y032680D01*
X034430Y038076D02*
X034430Y038784D01*
X033430Y038784D02*
X033430Y038076D01*
X035326Y014680D02*
X036034Y014680D01*
X036034Y013680D02*
X035326Y013680D01*
X035326Y012680D02*
X036034Y012680D01*
X036034Y011680D02*
X035326Y011680D01*
X035326Y010680D02*
X036034Y010680D01*
X036034Y009680D02*
X035326Y009680D01*
X035326Y008680D02*
X036034Y008680D01*
X036034Y007680D02*
X035326Y007680D01*
X035326Y006680D02*
X036034Y006680D01*
X036034Y005680D02*
X035326Y005680D01*
D16*
X018180Y002680D03*
X002680Y033380D03*
D17*
X002680Y031980D03*
X018180Y001680D03*
D18*
X010308Y034076D02*
X010308Y034650D01*
X009324Y034650D02*
X009324Y034076D01*
X008536Y034076D02*
X008536Y034650D01*
X007552Y034650D02*
X007552Y034076D01*
D19*
X003680Y026450D03*
X003680Y025360D03*
X003680Y024280D03*
X003680Y023190D03*
X003680Y022100D03*
X003680Y021020D03*
X003680Y019930D03*
X003680Y018840D03*
X003680Y017760D03*
X003680Y016670D03*
X003680Y015580D03*
X003680Y014500D03*
X003680Y013410D03*
X002680Y013950D03*
X002680Y015040D03*
X002680Y016130D03*
X002680Y017210D03*
X002680Y018300D03*
X002680Y019390D03*
X002680Y020470D03*
X002680Y021560D03*
X002680Y022650D03*
X002680Y023730D03*
X002680Y024820D03*
X002680Y025910D03*
D20*
X003180Y029190D03*
X003180Y010670D03*
D21*
X006180Y006430D03*
D22*
X004180Y006430D03*
D23*
X004180Y006680D01*
X006180Y008680D01*
X007241Y009741D01*
X011491Y009741D01*
X011680Y009930D01*
X011430Y009180D02*
X011680Y008930D01*
X011430Y009180D02*
X009430Y009180D01*
X009430Y010180D02*
X009496Y010246D01*
X010180Y010930D01*
X011680Y010930D01*
X011680Y011930D02*
X010690Y011930D01*
X009935Y012685D01*
X009870Y012750D01*
X008976Y012750D01*
X006930Y014796D01*
X006930Y014930D01*
X005930Y014930D02*
X005500Y014500D01*
X003680Y014500D01*
X004082Y013812D02*
X005930Y013812D01*
X009496Y010246D01*
X009430Y008180D02*
X010680Y006930D01*
X011680Y006930D01*
X011680Y005930D02*
X014180Y003430D01*
X014180Y002930D01*
X015680Y002930D01*
X015930Y002680D01*
X018180Y002680D01*
X020180Y002680D01*
X020180Y001680D02*
X018180Y001680D01*
X017680Y002180D01*
X015180Y002180D01*
X014430Y002180D01*
X014180Y001930D01*
X015739Y001489D02*
X008871Y001489D01*
X008430Y001930D01*
X008430Y002797D01*
X006547Y004680D01*
X005430Y004680D01*
X006180Y002680D02*
X005930Y002430D01*
X006180Y002680D02*
X007930Y002680D01*
X008930Y002680D02*
X009680Y001930D01*
X010180Y001930D01*
X008930Y002680D02*
X008930Y004180D01*
X009430Y004680D01*
X009134Y004976D01*
X009134Y005884D01*
X002226Y005884D01*
X001680Y006430D01*
X003680Y013410D02*
X004082Y013812D01*
X005930Y013812D02*
X005930Y013930D01*
X005930Y015930D02*
X004030Y015930D01*
X003680Y015580D01*
X003680Y016670D02*
X003940Y016930D01*
X005930Y016930D01*
X006464Y017396D02*
X004166Y017396D01*
X003980Y017210D01*
X002680Y017210D01*
X003680Y017760D02*
X003850Y017930D01*
X005930Y017930D01*
X006430Y018430D01*
X007066Y018430D01*
X009680Y021044D01*
X009680Y023430D01*
X010680Y023430D01*
X011680Y024430D01*
X012373Y024123D02*
X012373Y031876D01*
X010126Y031876D01*
X009680Y031430D01*
X007930Y031430D01*
X006680Y030180D01*
X005430Y030180D01*
X005430Y029180D02*
X006680Y029180D01*
X006680Y031180D02*
X005430Y031180D01*
X003480Y031180D01*
X002680Y031980D01*
X002680Y033380D02*
X004230Y033380D01*
X005430Y032180D01*
X006680Y032180D01*
X006680Y031180D02*
X007125Y031180D01*
X010308Y034363D01*
X013523Y034363D01*
X016090Y036930D01*
X016090Y037520D01*
X015430Y038180D01*
X016090Y036930D02*
X016430Y036930D01*
X017680Y038180D01*
X019930Y038180D01*
X020930Y038180D02*
X025430Y038180D01*
X025876Y037376D02*
X026430Y037930D01*
X027430Y036930D01*
X026992Y036368D02*
X027430Y035930D01*
X027566Y035930D01*
X028930Y036930D01*
X029123Y037487D01*
X029621Y037489D01*
X031239Y037489D01*
X032180Y038430D01*
X031611Y038861D02*
X032999Y038861D01*
X033430Y038430D01*
X034430Y038430D02*
X034430Y038312D01*
X031048Y034930D01*
X029930Y034930D01*
X028930Y034930D02*
X028930Y034772D01*
X029474Y033978D01*
X030728Y033978D01*
X031180Y034430D01*
X031930Y032930D02*
X031430Y032430D01*
X029180Y032430D01*
X028680Y031930D01*
X024180Y031930D01*
X021930Y031930D01*
X019930Y029930D01*
X019930Y027680D01*
X021180Y026430D01*
X021930Y026430D01*
X020430Y025930D02*
X024180Y025930D01*
X028680Y025930D01*
X029180Y025430D01*
X029680Y024930D02*
X026680Y024930D01*
X026180Y024430D01*
X025680Y024930D02*
X026180Y025430D01*
X025680Y024930D02*
X024180Y024930D01*
X024180Y023930D02*
X028680Y023930D01*
X029180Y023430D01*
X030180Y023430D02*
X028680Y021930D01*
X027680Y021930D01*
X026180Y023430D01*
X025930Y023430D01*
X024430Y021930D01*
X022930Y023430D01*
X021930Y023430D01*
X020719Y023880D02*
X024419Y020180D01*
X027430Y020180D01*
X027930Y019680D01*
X027930Y018680D02*
X027497Y018247D01*
X019426Y018247D01*
X017493Y020180D01*
X016281Y020180D01*
X014547Y021914D01*
X014547Y022660D01*
X013977Y023229D01*
X013977Y023727D01*
X014680Y024430D01*
X014680Y023430D02*
X016680Y023430D01*
X016981Y024000D02*
X016221Y024000D01*
X015976Y024245D01*
X015976Y024726D01*
X016680Y025430D01*
X016180Y025930D02*
X014680Y027430D01*
X014310Y027930D02*
X018430Y027930D01*
X020430Y025930D01*
X020930Y027680D02*
X020930Y027930D01*
X021930Y028930D01*
X021930Y029930D02*
X022059Y029930D01*
X023185Y028804D01*
X023185Y027925D01*
X024180Y026930D01*
X025680Y026930D01*
X026180Y027430D01*
X026180Y028430D02*
X026680Y028930D01*
X031680Y028930D01*
X031930Y029180D01*
X032430Y029680D01*
X033688Y029680D01*
X034688Y030680D01*
X035680Y030680D01*
X035680Y029680D02*
X035204Y029204D01*
X032954Y029204D01*
X032930Y029180D01*
X032930Y030180D02*
X032242Y030868D01*
X026618Y030868D01*
X026180Y030430D01*
X025680Y030930D02*
X026180Y031430D01*
X025680Y030930D02*
X024180Y030930D01*
X024180Y029930D02*
X028680Y029930D01*
X029180Y029430D01*
X029180Y028430D02*
X029430Y028180D01*
X031930Y028180D01*
X032430Y027680D02*
X030430Y027680D01*
X029180Y026430D01*
X029180Y027430D02*
X028680Y027930D01*
X024180Y027930D01*
X024180Y028930D02*
X025680Y028930D01*
X026180Y029430D01*
X029180Y031430D02*
X031430Y031430D01*
X032930Y032930D01*
X032930Y028180D02*
X033430Y027680D01*
X035680Y027680D01*
X035680Y026680D02*
X034093Y026680D01*
X033136Y027637D01*
X032698Y027637D01*
X032241Y027180D01*
X031930Y027180D01*
X031480Y026730D02*
X029680Y024930D01*
X029180Y024430D02*
X033369Y024430D01*
X034657Y023142D01*
X036268Y023142D01*
X036576Y023450D01*
X036576Y025898D01*
X035794Y026680D01*
X035680Y026680D01*
X035680Y024680D02*
X033430Y024680D01*
X031930Y026180D01*
X031480Y026730D02*
X032480Y026730D01*
X032930Y027180D01*
X032430Y027680D02*
X032930Y028180D01*
X032930Y023430D02*
X031930Y022430D01*
X031930Y020680D01*
X032930Y019680D01*
X035430Y017180D01*
X036932Y017180D01*
X037940Y018188D01*
X034430Y017180D02*
X032930Y018680D01*
X031930Y020680D02*
X030930Y020680D01*
X029680Y021930D01*
X030180Y023430D02*
X031930Y023430D01*
X034430Y021180D02*
X035430Y021180D01*
X030930Y019680D02*
X030496Y019246D01*
X025864Y019246D01*
X025430Y019680D01*
X024993Y019243D01*
X020367Y019243D01*
X019930Y019680D01*
X019930Y020680D02*
X019930Y020930D01*
X018930Y021930D01*
X019060Y022680D02*
X018300Y022680D01*
X016981Y024000D01*
X016680Y024430D02*
X017680Y024430D01*
X018230Y023880D01*
X020719Y023880D01*
X018930Y024430D02*
X018787Y024430D01*
X017287Y025930D01*
X016180Y025930D01*
X014680Y026430D02*
X013748Y025498D01*
X013748Y022863D01*
X014197Y022414D01*
X014197Y021811D01*
X015899Y020110D01*
X015899Y019564D01*
X016783Y018680D01*
X016930Y018680D01*
X016653Y016860D02*
X015723Y015930D01*
X014680Y015930D01*
X014246Y015496D01*
X014246Y014364D01*
X014680Y013930D01*
X014680Y014930D02*
X014826Y014930D01*
X016185Y013571D01*
X016185Y013175D01*
X017430Y011930D01*
X018127Y011233D01*
X022483Y011233D01*
X023180Y011930D01*
X023039Y011175D02*
X025425Y011175D01*
X026180Y011930D01*
X027180Y011930D02*
X027180Y010680D01*
X026180Y010680D01*
X025180Y009680D02*
X024180Y010680D01*
X023180Y010680D01*
X022180Y009680D01*
X021180Y009680D01*
X021364Y008875D02*
X021680Y008559D01*
X021680Y007791D01*
X023360Y006110D01*
X025250Y006110D01*
X026180Y005180D01*
X026680Y005575D02*
X026680Y004780D01*
X026390Y004490D01*
X025870Y004490D01*
X025180Y005180D01*
X026680Y005575D02*
X028285Y007180D01*
X028430Y007180D01*
X027869Y007230D02*
X025917Y007230D01*
X025180Y007967D01*
X025180Y008180D01*
X025614Y007863D02*
X026005Y007471D01*
X027482Y007471D01*
X029691Y009680D01*
X032430Y009680D01*
X032930Y010180D01*
X033430Y009680D01*
X035680Y009680D01*
X035680Y010680D02*
X032248Y010680D01*
X031930Y010362D01*
X031930Y010180D01*
X031930Y010362D02*
X029690Y010362D01*
X027431Y012620D01*
X024870Y012620D01*
X024180Y011930D01*
X023039Y011175D02*
X022726Y010863D01*
X022726Y010616D01*
X022361Y010250D01*
X018110Y010250D01*
X017430Y010930D01*
X015430Y012930D01*
X014680Y012930D01*
X014680Y010930D02*
X016430Y010930D01*
X017430Y009930D01*
X017607Y009107D02*
X017430Y008930D01*
X014680Y008930D01*
X014680Y006930D02*
X016430Y006930D01*
X017430Y007930D01*
X018375Y008875D01*
X021364Y008875D01*
X021180Y008180D02*
X019680Y008180D01*
X017430Y005930D01*
X017607Y009107D02*
X026253Y009107D01*
X027180Y008180D01*
X027869Y007230D02*
X029689Y009050D01*
X031930Y009050D01*
X031930Y009180D01*
X031930Y009050D02*
X032300Y008680D01*
X035680Y008680D01*
X035680Y006680D02*
X033430Y006680D01*
X031930Y008180D01*
X028020Y004270D01*
X022090Y004270D01*
X021180Y005180D01*
X023430Y002930D02*
X023180Y002680D01*
X023430Y002930D02*
X024680Y002930D01*
X024680Y001430D02*
X023430Y001430D01*
X023180Y001680D01*
X027180Y005180D02*
X028180Y006180D01*
X028430Y006180D01*
X025614Y007863D02*
X025614Y008622D01*
X025361Y008875D01*
X022875Y008875D01*
X022180Y008180D01*
X021180Y011930D02*
X022090Y012840D01*
X027541Y012840D01*
X028702Y011680D01*
X032430Y011680D01*
X032930Y011180D01*
X033430Y011680D01*
X035680Y011680D01*
X035680Y013680D02*
X034430Y013680D01*
X032930Y012180D01*
X032468Y012642D01*
X029150Y012642D01*
X028997Y012490D01*
X028235Y012490D01*
X027231Y013494D01*
X025747Y013494D01*
X024680Y014561D01*
X024680Y015322D01*
X024367Y015635D01*
X022885Y015635D01*
X022180Y014930D01*
X022180Y013930D02*
X019930Y013930D01*
X019430Y014930D02*
X017930Y016430D01*
X018500Y016860D02*
X016653Y016860D01*
X014833Y017083D02*
X018705Y017083D01*
X018768Y017020D01*
X025090Y017020D01*
X027180Y014930D01*
X027180Y013930D02*
X028430Y013930D01*
X028864Y013364D02*
X028430Y012930D01*
X028864Y013364D02*
X028864Y016246D01*
X028680Y016430D01*
X029930Y017680D01*
X030930Y017680D01*
X029680Y016430D02*
X031180Y014930D01*
X031930Y014930D01*
X028680Y016430D02*
X026680Y016430D01*
X025430Y017680D01*
X023430Y016430D02*
X022680Y016430D01*
X021180Y014930D01*
X019430Y014930D01*
X018930Y016430D02*
X018500Y016860D01*
X017430Y013930D02*
X017866Y013494D01*
X022744Y013494D01*
X024180Y014930D01*
X023180Y014930D02*
X022180Y013930D01*
X026180Y014930D02*
X027180Y013930D01*
X022430Y019680D02*
X022060Y019680D01*
X019060Y022680D01*
X023430Y021930D02*
X024680Y020680D01*
X025430Y020680D01*
X019042Y029430D02*
X016680Y029430D01*
X016180Y029930D02*
X014680Y028430D01*
X014310Y027930D02*
X013988Y028251D01*
X013988Y032096D01*
X016430Y034538D01*
X016430Y034930D01*
X016868Y034368D02*
X016430Y033930D01*
X016868Y034368D02*
X020930Y034368D01*
X020930Y038180D01*
X021930Y036930D02*
X022376Y037376D01*
X025876Y037376D01*
X026430Y037930D02*
X026430Y038180D01*
X026992Y036368D02*
X022368Y036368D01*
X021930Y035930D01*
X021492Y034368D02*
X020930Y034368D01*
X021492Y034368D02*
X021930Y033930D01*
X021945Y033500D02*
X019945Y031500D01*
X018087Y031500D01*
X017517Y030930D01*
X016180Y030930D01*
X014680Y029430D01*
X016180Y029930D02*
X018930Y029930D01*
X019042Y029430D02*
X021230Y031618D01*
X021230Y031840D01*
X021750Y032360D01*
X023489Y032360D01*
X024864Y033735D01*
X024864Y035496D01*
X024430Y035930D01*
X024430Y034930D02*
X024086Y034930D01*
X022656Y033500D01*
X021945Y033500D01*
X029123Y037487D02*
X028930Y037930D01*
X031180Y038430D02*
X031611Y038861D01*
X013680Y032680D02*
X012876Y031876D01*
X012373Y031876D01*
X011680Y031430D02*
X010680Y030430D01*
X009680Y030430D01*
X009680Y029430D02*
X010680Y029430D01*
X011680Y030430D01*
X011680Y029430D02*
X010680Y028430D01*
X009680Y028430D01*
X008848Y028598D02*
X008848Y026209D01*
X007060Y024420D01*
X006758Y024420D01*
X006267Y023930D01*
X005930Y023930D01*
X005580Y024280D01*
X003680Y024280D01*
X003999Y025041D02*
X005819Y025041D01*
X005930Y024930D01*
X005755Y024468D02*
X005404Y024820D01*
X002680Y024820D01*
X002680Y023730D02*
X005410Y023730D01*
X005667Y023473D01*
X006473Y023473D01*
X006930Y023930D01*
X007380Y024130D02*
X007380Y022729D01*
X007131Y022480D01*
X006843Y022480D01*
X006480Y022116D01*
X006480Y021570D01*
X005930Y021020D01*
X003680Y021020D01*
X003680Y019930D02*
X005930Y019930D01*
X006480Y020480D01*
X006480Y021116D01*
X006794Y021430D01*
X007076Y021430D01*
X007613Y021967D01*
X007613Y023363D01*
X009680Y025430D01*
X010680Y025430D01*
X011680Y026430D01*
X011680Y025430D02*
X010680Y024430D01*
X009680Y024430D01*
X007883Y022633D01*
X007883Y021246D01*
X007017Y020380D01*
X006740Y020380D01*
X006430Y020070D01*
X006430Y019430D01*
X005930Y018930D01*
X003770Y018930D01*
X003680Y018840D01*
X005930Y020930D02*
X005930Y021020D01*
X005930Y021930D02*
X003850Y021930D01*
X003680Y022100D01*
X003680Y023190D02*
X005670Y023190D01*
X005930Y022930D01*
X005585Y022465D02*
X005400Y022650D01*
X002680Y022650D01*
X003999Y025041D02*
X003680Y025360D01*
X004638Y025910D02*
X002680Y025910D01*
X003680Y026450D02*
X005410Y026450D01*
X005930Y025930D01*
X006472Y025472D02*
X005077Y025472D01*
X004638Y025910D01*
X005755Y024468D02*
X006468Y024468D01*
X006930Y024930D01*
X006472Y025472D02*
X006930Y025930D01*
X007380Y024130D02*
X009680Y026430D01*
X010680Y026430D01*
X011680Y027430D01*
X010680Y027430D02*
X011680Y028430D01*
X010680Y027430D02*
X009680Y027430D01*
X008848Y028598D02*
X009680Y029430D01*
X012373Y024123D02*
X011680Y023430D01*
X011680Y022180D01*
X012680Y022180D01*
X011680Y022180D02*
X009430Y019930D01*
X009000Y019500D01*
X009000Y017930D01*
X006930Y017930D01*
X006464Y017464D01*
X006464Y017396D01*
X006930Y016930D01*
X009000Y017610D02*
X009430Y017180D01*
X009000Y017610D02*
X009000Y017930D01*
X009869Y018522D02*
X009491Y018900D01*
X009460Y018900D01*
X009430Y018930D01*
X009491Y018900D02*
X011430Y020839D01*
X012339Y020839D01*
X013680Y022180D01*
X014680Y019930D02*
X014246Y019496D01*
X014246Y018364D01*
X014680Y017930D01*
X014833Y017083D02*
X014680Y016930D01*
X011680Y014930D02*
X011180Y014930D01*
X009430Y013180D01*
X009430Y014180D02*
X010155Y014905D01*
X010155Y017555D01*
X011531Y018930D01*
X011680Y018930D01*
X009869Y018522D02*
X009869Y016619D01*
X009430Y016180D01*
X006465Y022465D02*
X005585Y022465D01*
X006465Y022465D02*
X006930Y022930D01*
X009430Y007180D02*
X010331Y006279D01*
X010331Y006133D01*
X011534Y004930D01*
X011680Y004930D01*
X009430Y006180D02*
X009134Y005884D01*
X015739Y001489D02*
X015930Y001680D01*
X028680Y001430D02*
X030412Y001430D01*
X030922Y001940D01*
X031932Y002930D02*
X032922Y001940D01*
X031932Y002930D02*
X028680Y002930D01*
X032930Y005430D02*
X033180Y005680D01*
X035680Y005680D01*
D24*
X012180Y012180D02*
X011930Y011930D01*
X011680Y011930D01*
X012180Y012180D02*
X012180Y014180D01*
X012180Y015680D01*
X011930Y015930D01*
X011680Y015930D01*
X012180Y016430D01*
X012180Y017680D01*
X011930Y017930D01*
X011680Y017930D01*
X012180Y018430D01*
X012180Y019680D01*
X011930Y019930D01*
X011680Y019930D01*
X011680Y013930D02*
X011180Y013930D01*
X009935Y012685D01*
M02*
